Source-HROTx_VROTx.ufo
<glyph name="exclam" format="2">
  <advance width="205"/>
  <unicode hex="0021"/>
  <outline>
    <contour>
      <point x="38" y="149" type="line"/>
      <point x="105" y="21" type="line" smooth="yes"/>
      <point x="109" y="14"/>
      <point x="102" y="7"/>
      <point x="95" y="10" type="curve" smooth="yes"/>
      <point x="61" y="24" type="line"/>
      <point x="67" y="38" type="line"/>
      <point x="101" y="24" type="line" smooth="yes"/>
      <point x="108" y="22"/>
      <point x="94" y="7"/>
      <point x="91" y="13" type="curve" smooth="yes"/>
      <point x="24" y="141" type="line"/>
    </contour>
    <contour>
      <point x="-48" y="39" type="line"/>
      <point x="99" y="25" type="line" smooth="yes"/>
      <point x="102" y="25"/>
      <point x="89" y="16"/>
      <point x="90" y="20" type="curve" smooth="yes"/>
      <point x="137" y="148" type="line"/>
      <point x="153" y="142" type="line"/>
      <point x="106" y="14" type="line" smooth="yes"/>
      <point x="104" y="11"/>
      <point x="101" y="9"/>
      <point x="97" y="9" type="curve" smooth="yes"/>
      <point x="-50" y="23" type="line"/>
    </contour>
    <contour>
      <point x="202" y="179" type="line"/>
      <point x="359" y="402" type="line"/>
      <point x="373" y="392" type="line"/>
      <point x="216" y="169" type="line"/>
    </contour>
    <contour>
      <point x="180" y="218" type="line"/>
      <point x="215" y="179" type="line" smooth="yes"/>
      <point x="220" y="173"/>
      <point x="214" y="164"/>
      <point x="206" y="166" type="curve" smooth="yes"/>
      <point x="95" y="205" type="line"/>
      <point x="101" y="221" type="line"/>
      <point x="212" y="182" type="line" smooth="yes"/>
      <point x="219" y="179"/>
      <point x="209" y="162"/>
      <point x="203" y="169" type="curve" smooth="yes"/>
      <point x="168" y="208" type="line"/>
    </contour>
    <contour>
      <point x="287" y="517" type="line"/>
      <point x="372" y="402" type="line" smooth="yes"/>
      <point x="376" y="397"/>
      <point x="356" y="394"/>
      <point x="359" y="400" type="curve" smooth="yes"/>
      <point x="407" y="515" type="line"/>
      <point x="421" y="509" type="line"/>
      <point x="373" y="394" type="line" smooth="yes"/>
      <point x="371" y="388"/>
      <point x="363" y="387"/>
      <point x="360" y="392" type="curve" smooth="yes"/>
      <point x="275" y="507" type="line"/>
    </contour>
  </outline>
</glyph>
<glyph name="quotedbl" format="2">
  <advance width="366"/>
  <unicode hex="0022"/>
  <outline>
    <contour>
      <point x="275" y="279" type="line"/>
      <point x="362" y="402" type="line"/>
      <point x="376" y="392" type="line"/>
      <point x="289" y="269" type="line"/>
    </contour>
    <contour>
      <point x="251" y="318" type="line"/>
      <point x="288" y="280" type="line" smooth="yes"/>
      <point x="294" y="274"/>
      <point x="287" y="264"/>
      <point x="279" y="266" type="curve" smooth="yes"/>
      <point x="170" y="304" type="line"/>
      <point x="176" y="320" type="line"/>
      <point x="285" y="282" type="line" smooth="yes"/>
      <point x="293" y="279"/>
      <point x="282" y="262"/>
      <point x="276" y="268" type="curve" smooth="yes"/>
      <point x="239" y="306" type="line"/>
    </contour>
    <contour>
      <point x="297" y="517" type="line"/>
      <point x="376" y="402" type="line" smooth="yes"/>
      <point x="379" y="396"/>
      <point x="359" y="394"/>
      <point x="361" y="400" type="curve" smooth="yes"/>
      <point x="402" y="515" type="line"/>
      <point x="418" y="509" type="line"/>
      <point x="377" y="394" type="line" smooth="yes"/>
      <point x="374" y="388"/>
      <point x="366" y="387"/>
      <point x="362" y="392" type="curve" smooth="yes"/>
      <point x="283" y="507" type="line"/>
    </contour>
    <contour>
      <point x="431" y="279" type="line"/>
      <point x="518" y="402" type="line"/>
      <point x="532" y="392" type="line"/>
      <point x="445" y="269" type="line"/>
    </contour>
    <contour>
      <point x="407" y="318" type="line"/>
      <point x="444" y="280" type="line" smooth="yes"/>
      <point x="450" y="274"/>
      <point x="443" y="264"/>
      <point x="435" y="266" type="curve" smooth="yes"/>
      <point x="326" y="304" type="line"/>
      <point x="332" y="320" type="line"/>
      <point x="441" y="282" type="line" smooth="yes"/>
      <point x="449" y="279"/>
      <point x="438" y="262"/>
      <point x="432" y="268" type="curve" smooth="yes"/>
      <point x="395" y="306" type="line"/>
    </contour>
    <contour>
      <point x="453" y="517" type="line"/>
      <point x="532" y="402" type="line" smooth="yes"/>
      <point x="535" y="396"/>
      <point x="515" y="394"/>
      <point x="517" y="400" type="curve" smooth="yes"/>
      <point x="558" y="515" type="line"/>
      <point x="574" y="509" type="line"/>
      <point x="533" y="394" type="line" smooth="yes"/>
      <point x="530" y="388"/>
      <point x="522" y="387"/>
      <point x="518" y="392" type="curve" smooth="yes"/>
      <point x="439" y="507" type="line"/>
    </contour>
  </outline>
</glyph>
<glyph name="numbersign" format="2">
  <advance width="480"/>
  <unicode hex="0023"/>
  <outline>
    <contour>
      <point x="447" y="395" type="line"/>
      <point x="358" y="282" type="line" smooth="yes"/>
      <point x="358" y="282"/>
      <point x="358" y="282"/>
      <point x="358" y="282" type="curve" smooth="yes"/>
      <point x="222" y="109" type="line" smooth="yes"/>
      <point x="222" y="109"/>
      <point x="222" y="109"/>
      <point x="222" y="109" type="curve" smooth="yes"/>
      <point x="133" y="-4" type="line"/>
      <point x="121" y="6" type="line"/>
      <point x="210" y="119" type="line" smooth="yes"/>
      <point x="210" y="119"/>
      <point x="210" y="119"/>
      <point x="210" y="119" type="curve" smooth="yes"/>
      <point x="346" y="292" type="line" smooth="yes"/>
      <point x="346" y="292"/>
      <point x="346" y="292"/>
      <point x="346" y="292" type="curve" smooth="yes"/>
      <point x="435" y="405" type="line"/>
    </contour>
    <contour>
      <point x="609" y="395" type="line"/>
      <point x="520" y="282" type="line" smooth="yes"/>
      <point x="520" y="282"/>
      <point x="520" y="282"/>
      <point x="520" y="282" type="curve" smooth="yes"/>
      <point x="384" y="109" type="line" smooth="yes"/>
      <point x="384" y="109"/>
      <point x="384" y="109"/>
      <point x="384" y="109" type="curve" smooth="yes"/>
      <point x="295" y="-4" type="line"/>
      <point x="283" y="6" type="line"/>
      <point x="372" y="119" type="line" smooth="yes"/>
      <point x="372" y="119"/>
      <point x="372" y="119"/>
      <point x="372" y="119" type="curve" smooth="yes"/>
      <point x="508" y="292" type="line" smooth="yes"/>
      <point x="508" y="292"/>
      <point x="508" y="292"/>
      <point x="508" y="292" type="curve" smooth="yes"/>
      <point x="597" y="405" type="line"/>
    </contour>
    <contour>
      <point x="462" y="106" type="line"/>
      <point x="378" y="106" type="line"/>
      <point x="378" y="106"/>
      <point x="378" y="106"/>
      <point x="378" y="106" type="curve"/>
      <point x="216" y="106" type="line"/>
      <point x="216" y="106"/>
      <point x="216" y="106"/>
      <point x="216" y="106" type="curve"/>
      <point x="146" y="106" type="line"/>
      <point x="146" y="122" type="line"/>
      <point x="216" y="122" type="line"/>
      <point x="216" y="122"/>
      <point x="216" y="122"/>
      <point x="216" y="122" type="curve"/>
      <point x="378" y="122" type="line"/>
      <point x="378" y="122"/>
      <point x="378" y="122"/>
      <point x="378" y="122" type="curve"/>
      <point x="462" y="122" type="line"/>
    </contour>
    <contour>
      <point x="584" y="279" type="line"/>
      <point x="514" y="279" type="line"/>
      <point x="514" y="279"/>
      <point x="514" y="279"/>
      <point x="514" y="279" type="curve"/>
      <point x="352" y="279" type="line"/>
      <point x="352" y="279"/>
      <point x="352" y="279"/>
      <point x="352" y="279" type="curve"/>
      <point x="268" y="279" type="line"/>
      <point x="268" y="295" type="line"/>
      <point x="352" y="295" type="line"/>
      <point x="352" y="295"/>
      <point x="352" y="295"/>
      <point x="352" y="295" type="curve"/>
      <point x="514" y="295" type="line"/>
      <point x="514" y="295"/>
      <point x="514" y="295"/>
      <point x="514" y="295" type="curve"/>
      <point x="584" y="295" type="line"/>
    </contour>
    <contour>
      <point x="23" y="149" type="line"/>
      <point x="148" y="122" type="line" smooth="yes"/>
      <point x="154" y="120"/>
      <point x="142" y="104"/>
      <point x="139" y="110" type="curve" smooth="yes"/>
      <point x="77" y="225" type="line"/>
      <point x="91" y="233" type="line"/>
      <point x="153" y="118" type="line" smooth="yes"/>
      <point x="156" y="112"/>
      <point x="151" y="105"/>
      <point x="144" y="106" type="curve" smooth="yes"/>
      <point x="19" y="133" type="line"/>
    </contour>
    <contour>
      <point x="145" y="321" type="line"/>
      <point x="270" y="295" type="line" smooth="yes"/>
      <point x="276" y="293"/>
      <point x="264" y="277"/>
      <point x="261" y="283" type="curve" smooth="yes"/>
      <point x="198" y="397" type="line"/>
      <point x="212" y="405" type="line"/>
      <point x="275" y="291" type="line" smooth="yes"/>
      <point x="278" y="285"/>
      <point x="273" y="278"/>
      <point x="266" y="279" type="curve" smooth="yes"/>
      <point x="141" y="305" type="line"/>
    </contour>
    <contour>
      <point x="495" y="227" type="line"/>
      <point x="470" y="112" type="line" smooth="yes"/>
      <point x="469" y="107"/>
      <point x="462" y="104"/>
      <point x="457" y="108" type="curve" smooth="yes"/>
      <point x="420" y="135" type="line"/>
      <point x="430" y="147" type="line"/>
      <point x="467" y="120" type="line" smooth="yes"/>
      <point x="471" y="117"/>
      <point x="453" y="110"/>
      <point x="454" y="116" type="curve" smooth="yes"/>
      <point x="479" y="231" type="line"/>
    </contour>
    <contour>
      <point x="617" y="399" type="line"/>
      <point x="592" y="285" type="line" smooth="yes"/>
      <point x="591" y="280"/>
      <point x="584" y="277"/>
      <point x="579" y="280" type="curve" smooth="yes"/>
      <point x="541" y="306" type="line"/>
      <point x="551" y="320" type="line"/>
      <point x="589" y="294" type="line" smooth="yes"/>
      <point x="593" y="290"/>
      <point x="575" y="283"/>
      <point x="576" y="289" type="curve" smooth="yes"/>
      <point x="601" y="403" type="line"/>
    </contour>
    <contour>
      <point x="386" y="516" type="line"/>
      <point x="448" y="404" type="line" smooth="yes"/>
      <point x="452" y="397"/>
      <point x="432" y="395"/>
      <point x="433" y="402" type="curve" smooth="yes"/>
      <point x="459" y="514" type="line"/>
      <point x="475" y="510" type="line"/>
      <point x="449" y="398" type="line" smooth="yes"/>
      <point x="447" y="391"/>
      <point x="438" y="390"/>
      <point x="434" y="396" type="curve" smooth="yes"/>
      <point x="372" y="508" type="line"/>
    </contour>
    <contour>
      <point x="548" y="516" type="line"/>
      <point x="610" y="404" type="line" smooth="yes"/>
      <point x="614" y="397"/>
      <point x="594" y="395"/>
      <point x="595" y="402" type="curve" smooth="yes"/>
      <point x="621" y="514" type="line"/>
      <point x="637" y="510" type="line"/>
      <point x="611" y="398" type="line" smooth="yes"/>
      <point x="609" y="391"/>
      <point x="600" y="390"/>
      <point x="596" y="396" type="curve" smooth="yes"/>
      <point x="534" y="508" type="line"/>
    </contour>
    <contour>
      <point x="256" y="37" type="line"/>
      <point x="294" y="7" type="line" smooth="yes"/>
      <point x="301" y="2"/>
      <point x="295" y="-9"/>
      <point x="287" y="-7" type="curve" smooth="yes"/>
      <point x="161" y="23" type="line"/>
      <point x="165" y="39" type="line"/>
      <point x="291" y="9" type="line" smooth="yes"/>
      <point x="299" y="7"/>
      <point x="291" y="-11"/>
      <point x="284" y="-5" type="curve" smooth="yes"/>
      <point x="246" y="25" type="line"/>
    </contour>
    <contour>
      <point x="94" y="37" type="line"/>
      <point x="132" y="7" type="line" smooth="yes"/>
      <point x="139" y="2"/>
      <point x="133" y="-9"/>
      <point x="125" y="-7" type="curve" smooth="yes"/>
      <point x="-1" y="23" type="line"/>
      <point x="3" y="39" type="line"/>
      <point x="129" y="9" type="line" smooth="yes"/>
      <point x="137" y="7"/>
      <point x="129" y="-11"/>
      <point x="122" y="-5" type="curve" smooth="yes"/>
      <point x="84" y="25" type="line"/>
    </contour>
    <contour>
      <point x="389" y="399" type="line"/>
      <point x="360" y="285" type="line" smooth="yes"/>
      <point x="359" y="281"/>
      <point x="355" y="278"/>
      <point x="350" y="279" type="curve" smooth="yes"/>
      <point x="221" y="305" type="line"/>
      <point x="225" y="321" type="line"/>
      <point x="354" y="295" type="line" smooth="yes"/>
      <point x="358" y="294"/>
      <point x="343" y="285"/>
      <point x="344" y="289" type="curve" smooth="yes"/>
      <point x="373" y="403" type="line"/>
    </contour>
    <contour>
      <point x="299" y="405" type="line"/>
      <point x="359" y="291" type="line" smooth="yes"/>
      <point x="363" y="283"/>
      <point x="355" y="276"/>
      <point x="348" y="280" type="curve" smooth="yes"/>
      <point x="307" y="306" type="line"/>
      <point x="315" y="320" type="line"/>
      <point x="356" y="294" type="line" smooth="yes"/>
      <point x="363" y="289"/>
      <point x="349" y="276"/>
      <point x="345" y="283" type="curve" smooth="yes"/>
      <point x="285" y="397" type="line"/>
    </contour>
    <contour>
      <point x="551" y="399" type="line"/>
      <point x="522" y="285" type="line" smooth="yes"/>
      <point x="521" y="281"/>
      <point x="517" y="278"/>
      <point x="512" y="279" type="curve" smooth="yes"/>
      <point x="383" y="305" type="line"/>
      <point x="387" y="321" type="line"/>
      <point x="516" y="295" type="line" smooth="yes"/>
      <point x="520" y="294"/>
      <point x="505" y="285"/>
      <point x="506" y="289" type="curve" smooth="yes"/>
      <point x="535" y="403" type="line"/>
    </contour>
    <contour>
      <point x="461" y="405" type="line"/>
      <point x="521" y="291" type="line" smooth="yes"/>
      <point x="525" y="283"/>
      <point x="517" y="276"/>
      <point x="510" y="280" type="curve" smooth="yes"/>
      <point x="469" y="306" type="line"/>
      <point x="477" y="320" type="line"/>
      <point x="518" y="294" type="line" smooth="yes"/>
      <point x="525" y="289"/>
      <point x="511" y="276"/>
      <point x="507" y="283" type="curve" smooth="yes"/>
      <point x="447" y="397" type="line"/>
    </contour>
    <contour>
      <point x="253" y="227" type="line"/>
      <point x="224" y="112" type="line" smooth="yes"/>
      <point x="223" y="108"/>
      <point x="219" y="105"/>
      <point x="214" y="106" type="curve" smooth="yes"/>
      <point x="85" y="133" type="line"/>
      <point x="89" y="149" type="line"/>
      <point x="218" y="122" type="line" smooth="yes"/>
      <point x="222" y="121"/>
      <point x="207" y="112"/>
      <point x="208" y="116" type="curve" smooth="yes"/>
      <point x="237" y="231" type="line"/>
    </contour>
    <contour>
      <point x="164" y="233" type="line"/>
      <point x="223" y="118" type="line" smooth="yes"/>
      <point x="227" y="110"/>
      <point x="218" y="103"/>
      <point x="212" y="107" type="curve" smooth="yes"/>
      <point x="172" y="134" type="line"/>
      <point x="180" y="148" type="line"/>
      <point x="220" y="121" type="line" smooth="yes"/>
      <point x="227" y="116"/>
      <point x="213" y="103"/>
      <point x="209" y="110" type="curve" smooth="yes"/>
      <point x="150" y="225" type="line"/>
    </contour>
    <contour>
      <point x="415" y="227" type="line"/>
      <point x="386" y="112" type="line" smooth="yes"/>
      <point x="385" y="108"/>
      <point x="381" y="105"/>
      <point x="376" y="106" type="curve" smooth="yes"/>
      <point x="247" y="133" type="line"/>
      <point x="251" y="149" type="line"/>
      <point x="380" y="122" type="line" smooth="yes"/>
      <point x="384" y="121"/>
      <point x="369" y="112"/>
      <point x="370" y="116" type="curve" smooth="yes"/>
      <point x="399" y="231" type="line"/>
    </contour>
    <contour>
      <point x="326" y="233" type="line"/>
      <point x="385" y="118" type="line" smooth="yes"/>
      <point x="389" y="110"/>
      <point x="380" y="103"/>
      <point x="374" y="107" type="curve" smooth="yes"/>
      <point x="334" y="134" type="line"/>
      <point x="342" y="148" type="line"/>
      <point x="382" y="121" type="line" smooth="yes"/>
      <point x="389" y="116"/>
      <point x="375" y="103"/>
      <point x="371" y="110" type="curve" smooth="yes"/>
      <point x="312" y="225" type="line"/>
    </contour>
  </outline>
</glyph>
<glyph name="percent" format="2">
  <advance width="723"/>
  <unicode hex="0025"/>
  <outline>
    <contour>
      <point x="281" y="190" type="curve"/>
      <point x="281" y="190"/>
      <point x="281" y="190"/>
      <point x="281" y="190" type="curve"/>
      <point x="335" y="190"/>
      <point x="404" y="237"/>
      <point x="450" y="303" type="curve" smooth="yes"/>
      <point x="450" y="303"/>
      <point x="450" y="303"/>
      <point x="450" y="303" type="curve" smooth="yes"/>
      <point x="492" y="362"/>
      <point x="494" y="405"/>
      <point x="444" y="405" type="curve"/>
      <point x="444" y="405"/>
      <point x="444" y="405"/>
      <point x="444" y="405" type="curve"/>
      <point x="390" y="405"/>
      <point x="323" y="358"/>
      <point x="277" y="293" type="curve" smooth="yes"/>
      <point x="276" y="293"/>
      <point x="277" y="293"/>
      <point x="277" y="293" type="curve" smooth="yes"/>
      <point x="234" y="233"/>
      <point x="231" y="190"/>
    </contour>
    <contour>
      <point x="529" y="-4" type="curve"/>
      <point x="529" y="-4"/>
      <point x="529" y="-4"/>
      <point x="529" y="-4" type="curve"/>
      <point x="584" y="-4"/>
      <point x="652" y="43"/>
      <point x="698" y="109" type="curve" smooth="yes"/>
      <point x="698" y="109"/>
      <point x="698" y="109"/>
      <point x="698" y="109" type="curve" smooth="yes"/>
      <point x="740" y="169"/>
      <point x="743" y="211"/>
      <point x="692" y="211" type="curve"/>
      <point x="692" y="211"/>
      <point x="692" y="211"/>
      <point x="692" y="211" type="curve"/>
      <point x="638" y="211"/>
      <point x="570" y="165"/>
      <point x="525" y="99" type="curve" smooth="yes"/>
      <point x="525" y="99"/>
      <point x="525" y="99"/>
      <point x="525" y="99" type="curve" smooth="yes"/>
      <point x="482" y="39"/>
      <point x="479" y="-4"/>
    </contour>
    <contour>
      <point x="281" y="174" type="curve"/>
      <point x="219" y="174"/>
      <point x="210" y="227"/>
      <point x="263" y="303" type="curve" smooth="yes"/>
      <point x="263" y="303"/>
      <point x="263" y="303"/>
      <point x="263" y="303" type="curve" smooth="yes"/>
      <point x="313" y="372"/>
      <point x="386" y="421"/>
      <point x="444" y="421" type="curve"/>
      <point x="444" y="421"/>
      <point x="444" y="421"/>
      <point x="444" y="421" type="curve"/>
      <point x="506" y="421"/>
      <point x="516" y="368"/>
      <point x="464" y="293" type="curve" smooth="yes"/>
      <point x="464" y="293"/>
      <point x="464" y="293"/>
      <point x="464" y="293" type="curve" smooth="yes"/>
      <point x="414" y="223"/>
      <point x="339" y="174"/>
      <point x="281" y="174" type="curve"/>
      <point x="281" y="174"/>
      <point x="281" y="174"/>
    </contour>
    <contour>
      <point x="529" y="-20" type="curve"/>
      <point x="467" y="-20"/>
      <point x="458" y="33"/>
      <point x="511" y="109" type="curve" smooth="yes"/>
      <point x="511" y="109"/>
      <point x="511" y="109"/>
      <point x="511" y="109" type="curve" smooth="yes"/>
      <point x="560" y="179"/>
      <point x="634" y="227"/>
      <point x="692" y="227" type="curve"/>
      <point x="692" y="227"/>
      <point x="692" y="227"/>
      <point x="692" y="227" type="curve"/>
      <point x="755" y="227"/>
      <point x="764" y="175"/>
      <point x="712" y="99" type="curve" smooth="yes"/>
      <point x="712" y="99"/>
      <point x="712" y="99"/>
      <point x="712" y="99" type="curve" smooth="yes"/>
      <point x="662" y="29"/>
      <point x="588" y="-20"/>
      <point x="529" y="-20" type="curve"/>
      <point x="529" y="-20"/>
      <point x="529" y="-20"/>
    </contour>
    <contour>
      <point x="760" y="398" type="line"/>
      <point x="223" y="-9" type="line"/>
      <point x="213" y="3" type="line"/>
      <point x="750" y="410" type="line"/>
    </contour>
    <contour>
      <point x="168" y="38" type="line"/>
      <point x="222" y="4" type="line" smooth="yes"/>
      <point x="230" y="-1"/>
      <point x="225" y="-13"/>
      <point x="216" y="-11" type="curve" smooth="yes"/>
      <point x="72" y="23" type="line"/>
      <point x="76" y="39" type="line"/>
      <point x="220" y="5" type="line" smooth="yes"/>
      <point x="229" y="3"/>
      <point x="221" y="-15"/>
      <point x="214" y="-10" type="curve" smooth="yes"/>
      <point x="160" y="24" type="line"/>
    </contour>
    <contour>
      <point x="715" y="515" type="line"/>
      <point x="762" y="407" type="line" smooth="yes"/>
      <point x="765" y="401"/>
      <point x="745" y="400"/>
      <point x="748" y="407" type="curve" smooth="yes"/>
      <point x="791" y="515" type="line"/>
      <point x="805" y="509" type="line"/>
      <point x="762" y="401" type="line" smooth="yes"/>
      <point x="760" y="394"/>
      <point x="751" y="394"/>
      <point x="748" y="401" type="curve" smooth="yes"/>
      <point x="701" y="509" type="line"/>
    </contour>
  </outline>
</glyph>
<glyph name="parenright" format="2">
  <advance width="341"/>
  <unicode hex="0029"/>
  <outline>
    <contour>
      <point x="1" y="-76" type="line"/>
      <point x="119" y="-48"/>
      <point x="262" y="46"/>
      <point x="375" y="206" type="curve" smooth="yes"/>
      <point x="375" y="206"/>
      <point x="375" y="206"/>
      <point x="375" y="206" type="curve" smooth="yes"/>
      <point x="485" y="361"/>
      <point x="478" y="451"/>
      <point x="404" y="480" type="curve"/>
      <point x="410" y="494" type="line"/>
      <point x="490" y="463"/>
      <point x="509" y="367"/>
      <point x="389" y="196" type="curve" smooth="yes"/>
      <point x="389" y="196"/>
      <point x="389" y="196"/>
      <point x="389" y="196" type="curve" smooth="yes"/>
      <point x="272" y="32"/>
      <point x="125" y="-62"/>
      <point x="5" y="-92" type="curve"/>
    </contour>
    <contour>
      <point x="-135" y="-69" type="line"/>
      <point x="3" y="-76" type="line" smooth="yes"/>
      <point x="10" y="-76"/>
      <point x="-1" y="-93"/>
      <point x="-4" y="-88" type="curve" smooth="yes"/>
      <point x="-65" y="29" type="line"/>
      <point x="-51" y="37" type="line"/>
      <point x="10" y="-80" type="line" smooth="yes"/>
      <point x="13" y="-86"/>
      <point x="9" y="-92"/>
      <point x="3" y="-92" type="curve" smooth="yes"/>
      <point x="-135" y="-85" type="line"/>
    </contour>
    <contour>
      <point x="281" y="519" type="line"/>
      <point x="408" y="495" type="line" smooth="yes"/>
      <point x="415" y="494"/>
      <point x="402" y="478"/>
      <point x="399" y="484" type="curve" smooth="yes"/>
      <point x="350" y="618" type="line"/>
      <point x="366" y="624" type="line"/>
      <point x="415" y="490" type="line" smooth="yes"/>
      <point x="417" y="484"/>
      <point x="412" y="478"/>
      <point x="406" y="479" type="curve" smooth="yes"/>
      <point x="279" y="503" type="line"/>
    </contour>
  </outline>
</glyph>
<glyph name="plus" format="2">
  <advance width="382"/>
  <unicode hex="002B"/>
  <outline>
    <contour>
      <point x="420" y="171" type="line"/>
      <point x="182" y="171" type="line"/>
      <point x="182" y="187" type="line"/>
      <point x="420" y="187" type="line"/>
    </contour>
    <contour>
      <point x="393" y="296" type="line"/>
      <point x="220" y="51" type="line"/>
      <point x="206" y="61" type="line"/>
      <point x="379" y="306" type="line"/>
    </contour>
    <contour>
      <point x="59" y="213" type="line"/>
      <point x="184" y="187" type="line" smooth="yes"/>
      <point x="190" y="185"/>
      <point x="178" y="169"/>
      <point x="175" y="175" type="curve" smooth="yes"/>
      <point x="113" y="291" type="line"/>
      <point x="127" y="299" type="line"/>
      <point x="189" y="183" type="line" smooth="yes"/>
      <point x="192" y="177"/>
      <point x="187" y="170"/>
      <point x="180" y="171" type="curve" smooth="yes"/>
      <point x="55" y="197" type="line"/>
    </contour>
    <contour>
      <point x="454" y="293" type="line"/>
      <point x="428" y="177" type="line" smooth="yes"/>
      <point x="427" y="172"/>
      <point x="420" y="169"/>
      <point x="415" y="172" type="curve" smooth="yes"/>
      <point x="377" y="198" type="line"/>
      <point x="387" y="212" type="line"/>
      <point x="425" y="186" type="line" smooth="yes"/>
      <point x="429" y="182"/>
      <point x="411" y="175"/>
      <point x="412" y="181" type="curve" smooth="yes"/>
      <point x="438" y="297" type="line"/>
    </contour>
    <contour>
      <point x="328" y="419" type="line"/>
      <point x="393" y="305" type="line" smooth="yes"/>
      <point x="397" y="299"/>
      <point x="377" y="296"/>
      <point x="378" y="303" type="curve" smooth="yes"/>
      <point x="405" y="417" type="line"/>
      <point x="421" y="413" type="line"/>
      <point x="394" y="299" type="line" smooth="yes"/>
      <point x="392" y="292"/>
      <point x="383" y="291"/>
      <point x="379" y="297" type="curve" smooth="yes"/>
      <point x="314" y="411" type="line"/>
    </contour>
    <contour>
      <point x="183" y="89" type="line"/>
      <point x="218" y="62" type="line" smooth="yes"/>
      <point x="225" y="57"/>
      <point x="220" y="46"/>
      <point x="211" y="48" type="curve" smooth="yes"/>
      <point x="84" y="75" type="line"/>
      <point x="88" y="91" type="line"/>
      <point x="215" y="64" type="line" smooth="yes"/>
      <point x="223" y="62"/>
      <point x="215" y="44"/>
      <point x="208" y="50" type="curve" smooth="yes"/>
      <point x="173" y="77" type="line"/>
    </contour>
    <contour>
      <point x="174" y="213" type="line"/>
      <point x="302" y="187" type="line" smooth="yes"/>
      <point x="306" y="186"/>
      <point x="291" y="177"/>
      <point x="292" y="181" type="curve" smooth="yes"/>
      <point x="320" y="297" type="line"/>
      <point x="336" y="293" type="line"/>
      <point x="308" y="177" type="line" smooth="yes"/>
      <point x="307" y="173"/>
      <point x="303" y="170"/>
      <point x="298" y="171" type="curve" smooth="yes"/>
      <point x="170" y="197" type="line"/>
    </contour>
    <contour>
      <point x="243" y="299" type="line"/>
      <point x="307" y="183" type="line" smooth="yes"/>
      <point x="311" y="175"/>
      <point x="302" y="167"/>
      <point x="295" y="173" type="curve" smooth="yes"/>
      <point x="260" y="199" type="line"/>
      <point x="270" y="211" type="line"/>
      <point x="305" y="185" type="line" smooth="yes"/>
      <point x="312" y="180"/>
      <point x="297" y="168"/>
      <point x="293" y="175" type="curve" smooth="yes"/>
      <point x="229" y="291" type="line"/>
    </contour>
  </outline>
</glyph>
<glyph name="period" format="2">
  <advance width="191"/>
  <unicode hex="002E"/>
  <outline>
    <contour>
      <point x="31" y="149" type="line"/>
      <point x="98" y="21" type="line" smooth="yes"/>
      <point x="102" y="14"/>
      <point x="95" y="7"/>
      <point x="88" y="10" type="curve" smooth="yes"/>
      <point x="54" y="24" type="line"/>
      <point x="60" y="38" type="line"/>
      <point x="94" y="24" type="line" smooth="yes"/>
      <point x="101" y="22"/>
      <point x="87" y="7"/>
      <point x="84" y="13" type="curve" smooth="yes"/>
      <point x="17" y="141" type="line"/>
    </contour>
    <contour>
      <point x="-55" y="39" type="line"/>
      <point x="92" y="25" type="line" smooth="yes"/>
      <point x="95" y="25"/>
      <point x="82" y="16"/>
      <point x="83" y="20" type="curve" smooth="yes"/>
      <point x="130" y="148" type="line"/>
      <point x="146" y="142" type="line"/>
      <point x="99" y="14" type="line" smooth="yes"/>
      <point x="97" y="11"/>
      <point x="94" y="9"/>
      <point x="90" y="9" type="curve" smooth="yes"/>
      <point x="-57" y="23" type="line"/>
    </contour>
  </outline>
</glyph>
<glyph name="two" format="2">
  <advance width="367"/>
  <unicode hex="0032"/>
  <outline>
    <contour>
      <point x="336" y="399" type="line"/>
      <point x="370" y="407"/>
      <point x="400" y="412"/>
      <point x="427" y="412" type="curve"/>
      <point x="427" y="412"/>
      <point x="427" y="412"/>
      <point x="427" y="412" type="curve"/>
      <point x="509" y="412"/>
      <point x="533" y="370"/>
      <point x="488" y="304" type="curve" smooth="yes"/>
      <point x="488" y="304"/>
      <point x="488" y="304"/>
      <point x="487" y="304" type="curve" smooth="yes"/>
      <point x="448" y="250"/>
      <point x="385" y="211"/>
      <point x="313" y="167" type="curve" smooth="yes"/>
      <point x="313" y="167"/>
      <point x="313" y="167"/>
      <point x="313" y="167" type="curve" smooth="yes"/>
      <point x="237" y="123"/>
      <point x="152" y="75"/>
      <point x="72" y="0" type="curve" smooth="yes"/>
      <point x="67" y="-5"/>
      <point x="61" y="14"/>
      <point x="68" y="14" type="curve" smooth="yes"/>
      <point x="108" y="11"/>
      <point x="206" y="13"/>
      <point x="270" y="18" type="curve"/>
      <point x="272" y="2" type="line"/>
      <point x="206" y="-3"/>
      <point x="108" y="-5"/>
      <point x="66" y="-2" type="curve" smooth="yes"/>
      <point x="59" y="-1"/>
      <point x="56" y="7"/>
      <point x="62" y="12" type="curve" smooth="yes"/>
      <point x="142" y="87"/>
      <point x="229" y="137"/>
      <point x="305" y="181" type="curve" smooth="yes"/>
      <point x="305" y="181"/>
      <point x="305" y="181"/>
      <point x="305" y="181" type="curve" smooth="yes"/>
      <point x="375" y="223"/>
      <point x="436" y="260"/>
      <point x="475" y="314" type="curve" smooth="yes"/>
      <point x="475" y="314"/>
      <point x="474" y="314"/>
      <point x="474" y="314" type="curve" smooth="yes"/>
      <point x="513" y="368"/>
      <point x="495" y="396"/>
      <point x="427" y="396" type="curve"/>
      <point x="427" y="396"/>
      <point x="427" y="396"/>
      <point x="427" y="396" type="curve"/>
      <point x="402" y="396"/>
      <point x="372" y="391"/>
      <point x="340" y="383" type="curve"/>
    </contour>
    <contour>
      <point x="190" y="392" type="line"/>
      <point x="338" y="399" type="line" smooth="yes"/>
      <point x="344" y="399"/>
      <point x="334" y="382"/>
      <point x="331" y="387" type="curve" smooth="yes"/>
      <point x="265" y="496" type="line"/>
      <point x="279" y="504" type="line"/>
      <point x="345" y="395" type="line" smooth="yes"/>
      <point x="348" y="390"/>
      <point x="344" y="383"/>
      <point x="338" y="383" type="curve" smooth="yes"/>
      <point x="190" y="376" type="line"/>
    </contour>
    <contour>
      <point x="334" y="145" type="line"/>
      <point x="278" y="7" type="line" smooth="yes"/>
      <point x="277" y="3"/>
      <point x="272" y="1"/>
      <point x="267" y="3" type="curve" smooth="yes"/>
      <point x="226" y="24" type="line"/>
      <point x="234" y="38" type="line"/>
      <point x="275" y="17" type="line" smooth="yes"/>
      <point x="279" y="15"/>
      <point x="262" y="9"/>
      <point x="264" y="13" type="curve" smooth="yes"/>
      <point x="320" y="151" type="line"/>
    </contour>
    <contour>
      <point x="-75" y="39" type="line"/>
      <point x="68" y="14" type="line" smooth="yes"/>
      <point x="72" y="13"/>
      <point x="58" y="6"/>
      <point x="60" y="9" type="curve" smooth="yes"/>
      <point x="112" y="122" type="line"/>
      <point x="126" y="116" type="line"/>
      <point x="74" y="3" type="line" smooth="yes"/>
      <point x="73" y="-1"/>
      <point x="69" y="-3"/>
      <point x="66" y="-2" type="curve" smooth="yes"/>
      <point x="-77" y="23" type="line"/>
    </contour>
  </outline>
</glyph>
<glyph name="nine" format="2">
  <advance width="404"/>
  <unicode hex="0039"/>
  <outline>
    <contour>
      <point x="527" y="395" type="line"/>
      <point x="543" y="370"/>
      <point x="537" y="332"/>
      <point x="503" y="283" type="curve" smooth="yes"/>
      <point x="503" y="283"/>
      <point x="503" y="283"/>
      <point x="503" y="283" type="curve" smooth="yes"/>
      <point x="452" y="211"/>
      <point x="366" y="163"/>
      <point x="290" y="163" type="curve"/>
      <point x="290" y="163"/>
      <point x="290" y="163"/>
      <point x="290" y="163" type="curve"/>
      <point x="225" y="163"/>
      <point x="196" y="209"/>
      <point x="253" y="292" type="curve" smooth="yes"/>
      <point x="253" y="292"/>
      <point x="253" y="292"/>
      <point x="254" y="292" type="curve" smooth="yes"/>
      <point x="304" y="362"/>
      <point x="393" y="416"/>
      <point x="469" y="416" type="curve"/>
      <point x="469" y="416"/>
      <point x="469" y="416"/>
      <point x="469" y="416" type="curve"/>
      <point x="548" y="416"/>
      <point x="570" y="353"/>
      <point x="475" y="217" type="curve" smooth="yes"/>
      <point x="475" y="217"/>
      <point x="475" y="217"/>
      <point x="475" y="217" type="curve" smooth="yes"/>
      <point x="356" y="48"/>
      <point x="246" y="-13"/>
      <point x="149" y="-13" type="curve"/>
      <point x="149" y="-13"/>
      <point x="149" y="-13"/>
      <point x="149" y="-13" type="curve"/>
      <point x="125" y="-13"/>
      <point x="103" y="-8"/>
      <point x="83" y="2" type="curve"/>
      <point x="89" y="16" type="line"/>
      <point x="107" y="8"/>
      <point x="127" y="3"/>
      <point x="149" y="3" type="curve"/>
      <point x="149" y="3"/>
      <point x="149" y="3"/>
      <point x="149" y="3" type="curve"/>
      <point x="242" y="3"/>
      <point x="346" y="62"/>
      <point x="461" y="227" type="curve" smooth="yes"/>
      <point x="461" y="227"/>
      <point x="461" y="227"/>
      <point x="461" y="227" type="curve" smooth="yes"/>
      <point x="544" y="344"/>
      <point x="538" y="400"/>
      <point x="469" y="400" type="curve"/>
      <point x="469" y="400"/>
      <point x="469" y="400"/>
      <point x="469" y="400" type="curve"/>
      <point x="397" y="400"/>
      <point x="314" y="348"/>
      <point x="266" y="282" type="curve" smooth="yes"/>
      <point x="266" y="282"/>
      <point x="267" y="282"/>
      <point x="267" y="282" type="curve" smooth="yes"/>
      <point x="218" y="213"/>
      <point x="235" y="179"/>
      <point x="290" y="179" type="curve"/>
      <point x="290" y="179"/>
      <point x="290" y="179"/>
      <point x="290" y="179" type="curve"/>
      <point x="362" y="179"/>
      <point x="442" y="225"/>
      <point x="489" y="293" type="curve" smooth="yes"/>
      <point x="489" y="293"/>
      <point x="489" y="293"/>
      <point x="489" y="293" type="curve" smooth="yes"/>
      <point x="517" y="332"/>
      <point x="527" y="366"/>
      <point x="513" y="385" type="curve"/>
    </contour>
    <contour>
      <point x="320" y="242" type="line"/>
      <point x="396" y="254"/>
      <point x="484" y="290"/>
      <point x="520" y="346" type="curve"/>
      <point x="534" y="338" type="line"/>
      <point x="496" y="278"/>
      <point x="404" y="240"/>
      <point x="322" y="226" type="curve"/>
    </contour>
    <contour>
      <point x="-33" y="49" type="line"/>
      <point x="88" y="17" type="line" smooth="yes"/>
      <point x="94" y="15"/>
      <point x="80" y="1"/>
      <point x="78" y="7" type="curve" smooth="yes"/>
      <point x="38" y="154" type="line"/>
      <point x="54" y="158" type="line"/>
      <point x="94" y="11" type="line" smooth="yes"/>
      <point x="95" y="5"/>
      <point x="90" y="0"/>
      <point x="84" y="1" type="curve" smooth="yes"/>
      <point x="-37" y="33" type="line"/>
    </contour>
  </outline>
</glyph>
<glyph name="colon" format="2">
  <advance width="191"/>
  <unicode hex="003A"/>
  <outline>
    <contour>
      <point x="31" y="149" type="line"/>
      <point x="98" y="21" type="line" smooth="yes"/>
      <point x="102" y="14"/>
      <point x="95" y="7"/>
      <point x="88" y="10" type="curve" smooth="yes"/>
      <point x="54" y="24" type="line"/>
      <point x="60" y="38" type="line"/>
      <point x="94" y="24" type="line" smooth="yes"/>
      <point x="101" y="22"/>
      <point x="87" y="7"/>
      <point x="84" y="13" type="curve" smooth="yes"/>
      <point x="17" y="141" type="line"/>
    </contour>
    <contour>
      <point x="-55" y="39" type="line"/>
      <point x="92" y="25" type="line" smooth="yes"/>
      <point x="95" y="25"/>
      <point x="82" y="16"/>
      <point x="83" y="20" type="curve" smooth="yes"/>
      <point x="130" y="148" type="line"/>
      <point x="146" y="142" type="line"/>
      <point x="99" y="14" type="line" smooth="yes"/>
      <point x="97" y="11"/>
      <point x="94" y="9"/>
      <point x="90" y="9" type="curve" smooth="yes"/>
      <point x="-57" y="23" type="line"/>
    </contour>
    <contour>
      <point x="212" y="405" type="line"/>
      <point x="279" y="277" type="line" smooth="yes"/>
      <point x="283" y="270"/>
      <point x="276" y="263"/>
      <point x="269" y="266" type="curve" smooth="yes"/>
      <point x="235" y="280" type="line"/>
      <point x="241" y="294" type="line"/>
      <point x="275" y="280" type="line" smooth="yes"/>
      <point x="282" y="278"/>
      <point x="268" y="263"/>
      <point x="265" y="269" type="curve" smooth="yes"/>
      <point x="198" y="397" type="line"/>
    </contour>
    <contour>
      <point x="126" y="295" type="line"/>
      <point x="273" y="281" type="line" smooth="yes"/>
      <point x="276" y="281"/>
      <point x="263" y="272"/>
      <point x="264" y="276" type="curve" smooth="yes"/>
      <point x="311" y="404" type="line"/>
      <point x="327" y="398" type="line"/>
      <point x="280" y="270" type="line" smooth="yes"/>
      <point x="278" y="267"/>
      <point x="275" y="265"/>
      <point x="271" y="265" type="curve" smooth="yes"/>
      <point x="124" y="279" type="line"/>
    </contour>
  </outline>
</glyph>
<glyph name="question" format="2">
  <advance width="369"/>
  <unicode hex="003F"/>
  <outline>
    <contour>
      <point x="100" y="149" type="line"/>
      <point x="166" y="21" type="line" smooth="yes"/>
      <point x="170" y="14"/>
      <point x="163" y="7"/>
      <point x="156" y="10" type="curve" smooth="yes"/>
      <point x="123" y="24" type="line"/>
      <point x="129" y="38" type="line"/>
      <point x="162" y="24" type="line" smooth="yes"/>
      <point x="169" y="21"/>
      <point x="155" y="7"/>
      <point x="152" y="13" type="curve" smooth="yes"/>
      <point x="86" y="141" type="line"/>
    </contour>
    <contour>
      <point x="13" y="39" type="line"/>
      <point x="160" y="25" type="line" smooth="yes"/>
      <point x="163" y="25"/>
      <point x="150" y="16"/>
      <point x="151" y="20" type="curve" smooth="yes"/>
      <point x="198" y="148" type="line"/>
      <point x="214" y="142" type="line"/>
      <point x="167" y="14" type="line" smooth="yes"/>
      <point x="165" y="11"/>
      <point x="162" y="9"/>
      <point x="158" y="9" type="curve" smooth="yes"/>
      <point x="11" y="23" type="line"/>
    </contour>
    <contour>
      <point x="241" y="219" type="line"/>
      <point x="282" y="180" type="line" smooth="yes"/>
      <point x="288" y="174"/>
      <point x="282" y="164"/>
      <point x="273" y="166" type="curve" smooth="yes"/>
      <point x="157" y="205" type="line"/>
      <point x="163" y="221" type="line"/>
      <point x="279" y="182" type="line" smooth="yes"/>
      <point x="287" y="179"/>
      <point x="277" y="162"/>
      <point x="270" y="168" type="curve" smooth="yes"/>
      <point x="229" y="207" type="line"/>
    </contour>
    <contour>
      <point x="331" y="397" type="line"/>
      <point x="368" y="406"/>
      <point x="402" y="412"/>
      <point x="431" y="412" type="curve"/>
      <point x="431" y="412"/>
      <point x="431" y="412"/>
      <point x="431" y="412" type="curve"/>
      <point x="516" y="412"/>
      <point x="548" y="374"/>
      <point x="506" y="313" type="curve" smooth="yes"/>
      <point x="506" y="313"/>
      <point x="506" y="313"/>
      <point x="506" y="313" type="curve" smooth="yes"/>
      <point x="452" y="238"/>
      <point x="343" y="223"/>
      <point x="281" y="168" type="curve"/>
      <point x="271" y="180" type="line"/>
      <point x="335" y="237"/>
      <point x="442" y="250"/>
      <point x="492" y="323" type="curve" smooth="yes"/>
      <point x="492" y="323"/>
      <point x="492" y="323"/>
      <point x="492" y="323" type="curve" smooth="yes"/>
      <point x="528" y="372"/>
      <point x="501" y="396"/>
      <point x="431" y="396" type="curve"/>
      <point x="431" y="396"/>
      <point x="431" y="396"/>
      <point x="431" y="396" type="curve"/>
      <point x="404" y="396"/>
      <point x="370" y="390"/>
      <point x="335" y="381" type="curve"/>
    </contour>
    <contour>
      <point x="183" y="388" type="line"/>
      <point x="333" y="397" type="line" smooth="yes"/>
      <point x="338" y="397"/>
      <point x="329" y="380"/>
      <point x="326" y="385" type="curve" smooth="yes"/>
      <point x="262" y="497" type="line"/>
      <point x="276" y="505" type="line"/>
      <point x="340" y="393" type="line" smooth="yes"/>
      <point x="343" y="388"/>
      <point x="339" y="381"/>
      <point x="333" y="381" type="curve" smooth="yes"/>
      <point x="183" y="372" type="line"/>
    </contour>
  </outline>
</glyph>
<glyph name="A" format="2">
  <advance width="474"/>
  <unicode hex="0041"/>
  <outline>
    <contour>
      <point x="65" y="16" type="line"/>
      <point x="169" y="113" type="line" smooth="yes"/>
      <point x="169" y="113"/>
      <point x="169" y="113"/>
      <point x="169" y="113" type="curve" smooth="yes"/>
      <point x="465" y="390" type="line" smooth="yes"/>
      <point x="466" y="391"/>
      <point x="468" y="392"/>
      <point x="470" y="392" type="curve" smooth="yes"/>
      <point x="510" y="392" type="line" smooth="yes"/>
      <point x="515" y="392"/>
      <point x="519" y="387"/>
      <point x="518" y="381" type="curve" smooth="yes"/>
      <point x="423" y="104" type="line" smooth="yes"/>
      <point x="423" y="104"/>
      <point x="423" y="104"/>
      <point x="423" y="104" type="curve" smooth="yes"/>
      <point x="387" y="7" type="line"/>
      <point x="371" y="13" type="line"/>
      <point x="407" y="110" type="line" smooth="yes"/>
      <point x="408" y="110"/>
      <point x="407" y="110"/>
      <point x="407" y="110" type="curve" smooth="yes"/>
      <point x="502" y="387" type="line" smooth="yes"/>
      <point x="504" y="392"/>
      <point x="515" y="376"/>
      <point x="510" y="376" type="curve" smooth="yes"/>
      <point x="470" y="376" type="line" smooth="yes"/>
      <point x="468" y="376"/>
      <point x="477" y="380"/>
      <point x="475" y="378" type="curve" smooth="yes"/>
      <point x="179" y="101" type="line" smooth="yes"/>
      <point x="179" y="101"/>
      <point x="179" y="101"/>
      <point x="179" y="101" type="curve" smooth="yes"/>
      <point x="75" y="4" type="line"/>
    </contour>
    <contour>
      <point x="415" y="99" type="line"/>
      <point x="174" y="99" type="line"/>
      <point x="174" y="115" type="line"/>
      <point x="415" y="115" type="line"/>
    </contour>
    <contour>
      <point x="436" y="514" type="line"/>
      <point x="478" y="386" type="line" smooth="yes"/>
      <point x="479" y="382"/>
      <point x="476" y="377"/>
      <point x="471" y="376" type="curve" smooth="yes"/>
      <point x="380" y="364" type="line" smooth="yes"/>
      <point x="370" y="363"/>
      <point x="368" y="379"/>
      <point x="378" y="380" type="curve" smooth="yes"/>
      <point x="509" y="392" type="line" smooth="yes"/>
      <point x="513" y="392"/>
      <point x="501" y="382"/>
      <point x="502" y="386" type="curve" smooth="yes"/>
      <point x="528" y="514" type="line"/>
      <point x="544" y="510" type="line"/>
      <point x="518" y="382" type="line" smooth="yes"/>
      <point x="517" y="379"/>
      <point x="514" y="376"/>
      <point x="511" y="376" type="curve" smooth="yes"/>
      <point x="380" y="364" type="line" smooth="yes"/>
      <point x="369" y="363"/>
      <point x="368" y="379"/>
      <point x="378" y="380" type="curve" smooth="yes"/>
      <point x="469" y="392" type="line" smooth="yes"/>
      <point x="474" y="393"/>
      <point x="464" y="377"/>
      <point x="462" y="382" type="curve" smooth="yes"/>
      <point x="420" y="510" type="line"/>
    </contour>
    <contour>
      <point x="225" y="219" type="line"/>
      <point x="181" y="104" type="line" smooth="yes"/>
      <point x="180" y="100"/>
      <point x="174" y="98"/>
      <point x="170" y="100" type="curve" smooth="yes"/>
      <point x="123" y="127" type="line"/>
      <point x="131" y="141" type="line"/>
      <point x="178" y="114" type="line" smooth="yes"/>
      <point x="182" y="111"/>
      <point x="165" y="105"/>
      <point x="167" y="110" type="curve" smooth="yes"/>
      <point x="211" y="225" type="line"/>
    </contour>
    <contour>
      <point x="333" y="227" type="line"/>
      <point x="421" y="112" type="line" smooth="yes"/>
      <point x="426" y="106"/>
      <point x="421" y="98"/>
      <point x="413" y="99" type="curve" smooth="yes"/>
      <point x="291" y="126" type="line"/>
      <point x="295" y="142" type="line"/>
      <point x="417" y="115" type="line" smooth="yes"/>
      <point x="424" y="113"/>
      <point x="413" y="96"/>
      <point x="409" y="102" type="curve" smooth="yes"/>
      <point x="321" y="217" type="line"/>
    </contour>
    <contour>
      <point x="52" y="37" type="line"/>
      <point x="75" y="16" type="line" smooth="yes"/>
      <point x="81" y="11"/>
      <point x="77" y="1"/>
      <point x="69" y="2" type="curve" smooth="yes"/>
      <point x="-99" y="23" type="line"/>
      <point x="-97" y="39" type="line"/>
      <point x="71" y="18" type="line" smooth="yes"/>
      <point x="79" y="17"/>
      <point x="70" y="-1"/>
      <point x="65" y="4" type="curve" smooth="yes"/>
      <point x="42" y="25" type="line"/>
    </contour>
    <contour>
      <point x="390" y="30" type="line"/>
      <point x="387" y="9" type="line" smooth="yes"/>
      <point x="386" y="5"/>
      <point x="382" y="1"/>
      <point x="378" y="2" type="curve" smooth="yes"/>
      <point x="227" y="23" type="line"/>
      <point x="229" y="39" type="line"/>
      <point x="380" y="18" type="line" smooth="yes"/>
      <point x="384" y="17"/>
      <point x="370" y="7"/>
      <point x="371" y="11" type="curve" smooth="yes"/>
      <point x="374" y="32" type="line"/>
    </contour>
  </outline>
</glyph>
<glyph name="C" format="2">
  <advance width="432"/>
  <unicode hex="0043"/>
  <anchor x="121.0" y="71.0" name="below"/>
  <anchor x="464.0" y="556.0" name="above"/>
  <outline>
    <contour>
      <point x="600" y="382" type="line"/>
      <point x="583" y="390"/>
      <point x="558" y="396"/>
      <point x="534" y="396" type="curve"/>
      <point x="534" y="396"/>
      <point x="534" y="396"/>
      <point x="534" y="396" type="curve"/>
      <point x="423" y="396"/>
      <point x="296" y="315"/>
      <point x="212" y="195" type="curve" smooth="yes"/>
      <point x="212" y="195"/>
      <point x="212" y="195"/>
      <point x="212" y="195" type="curve" smooth="yes"/>
      <point x="129" y="79"/>
      <point x="140" y="5"/>
      <point x="246" y="5" type="curve"/>
      <point x="246" y="5"/>
      <point x="246" y="5"/>
      <point x="246" y="5" type="curve"/>
      <point x="270" y="5"/>
      <point x="306" y="10"/>
      <point x="334" y="18" type="curve"/>
      <point x="338" y="2" type="line"/>
      <point x="308" y="-6"/>
      <point x="272" y="-11"/>
      <point x="246" y="-11" type="curve"/>
      <point x="246" y="-11"/>
      <point x="246" y="-11"/>
      <point x="246" y="-11" type="curve"/>
      <point x="128" y="-11"/>
      <point x="107" y="75"/>
      <point x="198" y="205" type="curve" smooth="yes"/>
      <point x="198" y="205"/>
      <point x="198" y="205"/>
      <point x="198" y="205" type="curve" smooth="yes"/>
      <point x="286" y="329"/>
      <point x="419" y="412"/>
      <point x="534" y="412" type="curve"/>
      <point x="534" y="412"/>
      <point x="534" y="412"/>
      <point x="534" y="412" type="curve"/>
      <point x="560" y="412"/>
      <point x="589" y="406"/>
      <point x="608" y="396" type="curve"/>
    </contour>
    <contour>
      <point x="631" y="495" type="line"/>
      <point x="612" y="388" type="line" smooth="yes"/>
      <point x="611" y="384"/>
      <point x="609" y="382"/>
      <point x="605" y="381" type="curve" smooth="yes"/>
      <point x="540" y="369" type="line"/>
      <point x="538" y="385" type="line"/>
      <point x="603" y="397" type="line" smooth="yes"/>
      <point x="606" y="397"/>
      <point x="596" y="387"/>
      <point x="596" y="390" type="curve" smooth="yes"/>
      <point x="615" y="497" type="line"/>
    </contour>
    <contour>
      <point x="397" y="162" type="line"/>
      <point x="344" y="7" type="line" smooth="yes"/>
      <point x="342" y="2"/>
      <point x="334" y="0"/>
      <point x="330" y="5" type="curve" smooth="yes"/>
      <point x="299" y="41" type="line"/>
      <point x="311" y="51" type="line"/>
      <point x="342" y="15" type="line" smooth="yes"/>
      <point x="346" y="11"/>
      <point x="326" y="7"/>
      <point x="328" y="13" type="curve" smooth="yes"/>
      <point x="381" y="168" type="line"/>
    </contour>
  </outline>
</glyph>
<glyph name="D" format="2">
  <advance width="489"/>
  <unicode hex="0044"/>
  <outline>
    <contour>
      <point x="104" y="-1" type="line" smooth="yes"/>
      <point x="100" y="-6"/>
      <point x="91" y="12"/>
      <point x="97" y="12" type="curve" smooth="yes"/>
      <point x="203" y="12" type="line"/>
      <point x="203" y="12"/>
      <point x="203" y="12"/>
      <point x="203" y="12" type="curve"/>
      <point x="314" y="12"/>
      <point x="445" y="89"/>
      <point x="527" y="206" type="curve"/>
      <point x="527" y="206"/>
      <point x="527" y="206"/>
      <point x="527" y="206" type="curve"/>
      <point x="607" y="318"/>
      <point x="588" y="389"/>
      <point x="481" y="389" type="curve"/>
      <point x="481" y="389"/>
      <point x="481" y="389"/>
      <point x="481" y="389" type="curve"/>
      <point x="375" y="389" type="line" smooth="yes"/>
      <point x="372" y="389"/>
      <point x="383" y="394"/>
      <point x="382" y="392" type="curve" smooth="yes"/>
    </contour>
    <contour>
      <point x="139" y="117" type="line"/>
      <point x="105" y="2" type="line" smooth="yes"/>
      <point x="104" y="-2"/>
      <point x="100" y="-5"/>
      <point x="96" y="-4" type="curve" smooth="yes"/>
      <point x="-56" y="23" type="line"/>
      <point x="-54" y="39" type="line"/>
      <point x="98" y="12" type="line" smooth="yes"/>
      <point x="102" y="11"/>
      <point x="88" y="2"/>
      <point x="89" y="6" type="curve" smooth="yes"/>
      <point x="123" y="121" type="line"/>
    </contour>
    <contour>
      <point x="291" y="517" type="line"/>
      <point x="381" y="402" type="line" smooth="yes"/>
      <point x="387" y="394"/>
      <point x="377" y="385"/>
      <point x="370" y="391" type="curve" smooth="yes"/>
      <point x="341" y="417" type="line"/>
      <point x="351" y="429" type="line"/>
      <point x="380" y="403" type="line" smooth="yes"/>
      <point x="388" y="396"/>
      <point x="375" y="384"/>
      <point x="369" y="392" type="curve" smooth="yes"/>
      <point x="279" y="507" type="line"/>
    </contour>
    <contour>
      <point x="90" y="9" type="curve" smooth="yes"/>
      <point x="368" y="402" type="line" smooth="yes"/>
      <point x="370" y="404"/>
      <point x="372" y="405"/>
      <point x="375" y="405" type="curve" smooth="yes"/>
      <point x="481" y="405" type="line"/>
      <point x="481" y="405"/>
      <point x="481" y="405"/>
      <point x="481" y="405" type="curve"/>
      <point x="600" y="405"/>
      <point x="629" y="322"/>
      <point x="541" y="196" type="curve"/>
      <point x="541" y="196"/>
      <point x="541" y="196"/>
      <point x="541" y="196" type="curve"/>
      <point x="455" y="75"/>
      <point x="318" y="-4"/>
      <point x="203" y="-4" type="curve"/>
      <point x="203" y="-4"/>
      <point x="203" y="-4"/>
      <point x="203" y="-4" type="curve"/>
      <point x="97" y="-4" type="line" smooth="yes"/>
      <point x="91" y="-4"/>
      <point x="87" y="3"/>
    </contour>
  </outline>
</glyph>
<glyph name="E" format="2">
  <advance width="389"/>
  <unicode hex="0045"/>
  <anchor x="255.0" y="31.0" name="ogonek"/>
  <anchor x="101.0" y="31.0" name="below"/>
  <anchor x="441.0" y="512.0" name="above"/>
  <outline>
    <contour>
      <point x="553" y="384" type="line"/>
      <point x="506" y="388"/>
      <point x="424" y="390"/>
      <point x="375" y="389" type="curve" smooth="yes"/>
      <point x="373" y="389"/>
      <point x="383" y="394"/>
      <point x="382" y="392" type="curve" smooth="yes"/>
      <point x="104" y="-1" type="line" smooth="yes"/>
      <point x="100" y="-6"/>
      <point x="91" y="12"/>
      <point x="97" y="12" type="curve" smooth="yes"/>
      <point x="146" y="11"/>
      <point x="228" y="13"/>
      <point x="280" y="17" type="curve"/>
      <point x="282" y="1" type="line"/>
      <point x="228" y="-3"/>
      <point x="146" y="-5"/>
      <point x="97" y="-4" type="curve" smooth="yes"/>
      <point x="90" y="-4"/>
      <point x="87" y="3"/>
      <point x="90" y="9" type="curve" smooth="yes"/>
      <point x="368" y="402" type="line" smooth="yes"/>
      <point x="370" y="404"/>
      <point x="372" y="405"/>
      <point x="375" y="405" type="curve" smooth="yes"/>
      <point x="424" y="406"/>
      <point x="506" y="404"/>
      <point x="555" y="400" type="curve"/>
    </contour>
    <contour>
      <point x="404" y="200" type="line"/>
      <point x="241" y="200" type="line"/>
      <point x="241" y="216" type="line"/>
      <point x="404" y="216" type="line"/>
    </contour>
    <contour>
      <point x="139" y="117" type="line"/>
      <point x="105" y="2" type="line" smooth="yes"/>
      <point x="104" y="-2"/>
      <point x="100" y="-5"/>
      <point x="96" y="-4" type="curve" smooth="yes"/>
      <point x="-55" y="23" type="line"/>
      <point x="-53" y="39" type="line"/>
      <point x="98" y="12" type="line" smooth="yes"/>
      <point x="102" y="11"/>
      <point x="88" y="2"/>
      <point x="89" y="6" type="curve" smooth="yes"/>
      <point x="123" y="121" type="line"/>
    </contour>
    <contour>
      <point x="292" y="517" type="line"/>
      <point x="381" y="402" type="line" smooth="yes"/>
      <point x="387" y="394"/>
      <point x="377" y="385"/>
      <point x="370" y="391" type="curve" smooth="yes"/>
      <point x="341" y="417" type="line"/>
      <point x="351" y="429" type="line"/>
      <point x="380" y="403" type="line" smooth="yes"/>
      <point x="388" y="396"/>
      <point x="375" y="384"/>
      <point x="369" y="392" type="curve" smooth="yes"/>
      <point x="280" y="507" type="line"/>
    </contour>
    <contour>
      <point x="590" y="510" type="line"/>
      <point x="562" y="390" type="line" smooth="yes"/>
      <point x="561" y="386"/>
      <point x="557" y="383"/>
      <point x="553" y="384" type="curve" smooth="yes"/>
      <point x="503" y="393" type="line"/>
      <point x="505" y="409" type="line"/>
      <point x="555" y="400" type="line" smooth="yes"/>
      <point x="560" y="399"/>
      <point x="545" y="390"/>
      <point x="546" y="394" type="curve" smooth="yes"/>
      <point x="574" y="514" type="line"/>
    </contour>
    <contour>
      <point x="345" y="145" type="line"/>
      <point x="288" y="6" type="line" smooth="yes"/>
      <point x="287" y="2"/>
      <point x="281" y="0"/>
      <point x="277" y="2" type="curve" smooth="yes"/>
      <point x="237" y="24" type="line"/>
      <point x="245" y="38" type="line"/>
      <point x="285" y="16" type="line" smooth="yes"/>
      <point x="289" y="14"/>
      <point x="272" y="8"/>
      <point x="274" y="12" type="curve" smooth="yes"/>
      <point x="331" y="151" type="line"/>
    </contour>
    <contour>
      <point x="447" y="334" type="line"/>
      <point x="412" y="206" type="line" smooth="yes"/>
      <point x="411" y="202"/>
      <point x="406" y="199"/>
      <point x="402" y="200" type="curve" smooth="yes"/>
      <point x="355" y="213" type="line"/>
      <point x="359" y="229" type="line"/>
      <point x="406" y="216" type="line" smooth="yes"/>
      <point x="410" y="215"/>
      <point x="395" y="206"/>
      <point x="396" y="210" type="curve" smooth="yes"/>
      <point x="431" y="338" type="line"/>
    </contour>
    <contour>
      <point x="279" y="319" type="line"/>
      <point x="249" y="206" type="line" smooth="yes"/>
      <point x="247" y="200"/>
      <point x="240" y="198"/>
      <point x="236" y="202" type="curve" smooth="yes"/>
      <point x="206" y="230" type="line"/>
      <point x="216" y="242" type="line"/>
      <point x="246" y="214" type="line" smooth="yes"/>
      <point x="251" y="210"/>
      <point x="232" y="204"/>
      <point x="233" y="210" type="curve" smooth="yes"/>
      <point x="263" y="323" type="line"/>
    </contour>
  </outline>
</glyph>
<glyph name="G" format="2">
  <advance width="474"/>
  <unicode hex="0047"/>
  <anchor x="161.0" y="29.0" name="below"/>
  <anchor x="509.0" y="512.0" name="above"/>
  <outline>
    <contour>
      <point x="658" y="490" type="line"/>
      <point x="637" y="382" type="line" smooth="yes"/>
      <point x="636" y="379"/>
      <point x="634" y="377"/>
      <point x="630" y="376" type="curve" smooth="yes"/>
      <point x="567" y="365" type="line"/>
      <point x="565" y="381" type="line"/>
      <point x="628" y="392" type="line" smooth="yes"/>
      <point x="631" y="392"/>
      <point x="621" y="382"/>
      <point x="621" y="386" type="curve" smooth="yes"/>
      <point x="642" y="494" type="line"/>
    </contour>
    <contour>
      <point x="399" y="283" type="line"/>
      <point x="484" y="169" type="line" smooth="yes"/>
      <point x="488" y="164"/>
      <point x="468" y="161"/>
      <point x="470" y="167" type="curve" smooth="yes"/>
      <point x="511" y="281" type="line"/>
      <point x="527" y="275" type="line"/>
      <point x="486" y="161" type="line" smooth="yes"/>
      <point x="483" y="155"/>
      <point x="475" y="154"/>
      <point x="472" y="159" type="curve" smooth="yes"/>
      <point x="387" y="273" type="line"/>
    </contour>
    <contour>
      <point x="625" y="377" type="line"/>
      <point x="604" y="389"/>
      <point x="572" y="396"/>
      <point x="542" y="396" type="curve"/>
      <point x="542" y="396"/>
      <point x="542" y="396"/>
      <point x="542" y="396" type="curve"/>
      <point x="427" y="396"/>
      <point x="296" y="314"/>
      <point x="211" y="194" type="curve" smooth="yes"/>
      <point x="211" y="194"/>
      <point x="211" y="194"/>
      <point x="211" y="194" type="curve" smooth="yes"/>
      <point x="131" y="82"/>
      <point x="139" y="3"/>
      <point x="249" y="3" type="curve"/>
      <point x="249" y="3"/>
      <point x="249" y="3"/>
      <point x="249" y="3" type="curve"/>
      <point x="286" y="3"/>
      <point x="329" y="12"/>
      <point x="376" y="28" type="curve" smooth="yes"/>
      <point x="378" y="28"/>
      <point x="371" y="23"/>
      <point x="372" y="25" type="curve" smooth="yes"/>
      <point x="424" y="98"/>
      <point x="453" y="140"/>
      <point x="471" y="168" type="curve"/>
      <point x="485" y="160" type="line"/>
      <point x="467" y="132"/>
      <point x="438" y="90"/>
      <point x="386" y="15" type="curve" smooth="yes"/>
      <point x="385" y="14"/>
      <point x="383" y="13"/>
      <point x="382" y="12" type="curve" smooth="yes"/>
      <point x="333" y="-4"/>
      <point x="288" y="-13"/>
      <point x="249" y="-13" type="curve"/>
      <point x="249" y="-13"/>
      <point x="249" y="-13"/>
      <point x="249" y="-13" type="curve"/>
      <point x="127" y="-13"/>
      <point x="109" y="78"/>
      <point x="197" y="204" type="curve" smooth="yes"/>
      <point x="197" y="204"/>
      <point x="197" y="204"/>
      <point x="197" y="204" type="curve" smooth="yes"/>
      <point x="286" y="328"/>
      <point x="423" y="412"/>
      <point x="542" y="412" type="curve"/>
      <point x="542" y="412"/>
      <point x="542" y="412"/>
      <point x="542" y="412" type="curve"/>
      <point x="576" y="412"/>
      <point x="610" y="405"/>
      <point x="633" y="391" type="curve"/>
    </contour>
    <contour>
      <point x="308" y="126" type="line"/>
      <point x="385" y="25" type="line" smooth="yes"/>
      <point x="392" y="17"/>
      <point x="378" y="7"/>
      <point x="372" y="16" type="curve" smooth="yes"/>
      <point x="348" y="55" type="line"/>
      <point x="362" y="63" type="line"/>
      <point x="386" y="24" type="line" smooth="yes"/>
      <point x="391" y="16"/>
      <point x="379" y="7"/>
      <point x="373" y="15" type="curve" smooth="yes"/>
      <point x="296" y="116" type="line"/>
    </contour>
  </outline>
</glyph>
<glyph name="H" format="2">
  <advance width="497"/>
  <unicode hex="0048"/>
  <anchor x="153.0" y="31.0" name="below"/>
  <anchor x="493.0" y="512.0" name="above"/>
  <outline>
    <contour>
      <point x="381" y="392" type="line"/>
      <point x="249" y="205" type="line" smooth="yes"/>
      <point x="249" y="205"/>
      <point x="249" y="205"/>
      <point x="249" y="205" type="curve" smooth="yes"/>
      <point x="103" y="-1" type="line"/>
      <point x="89" y="9" type="line"/>
      <point x="235" y="215" type="line" smooth="yes"/>
      <point x="235" y="215"/>
      <point x="235" y="215"/>
      <point x="235" y="215" type="curve" smooth="yes"/>
      <point x="367" y="402" type="line"/>
    </contour>
    <contour>
      <point x="658" y="392" type="line"/>
      <point x="526" y="205" type="line" smooth="yes"/>
      <point x="526" y="205"/>
      <point x="526" y="205"/>
      <point x="526" y="205" type="curve" smooth="yes"/>
      <point x="380" y="-1" type="line"/>
      <point x="366" y="9" type="line"/>
      <point x="512" y="215" type="line" smooth="yes"/>
      <point x="512" y="215"/>
      <point x="512" y="215"/>
      <point x="512" y="215" type="curve" smooth="yes"/>
      <point x="644" y="402" type="line"/>
    </contour>
    <contour>
      <point x="519" y="202" type="line"/>
      <point x="242" y="202" type="line"/>
      <point x="242" y="218" type="line"/>
      <point x="519" y="218" type="line"/>
    </contour>
    <contour>
      <point x="282" y="324" type="line"/>
      <point x="250" y="208" type="line" smooth="yes"/>
      <point x="248" y="202"/>
      <point x="241" y="200"/>
      <point x="237" y="204" type="curve" smooth="yes"/>
      <point x="206" y="231" type="line"/>
      <point x="216" y="243" type="line"/>
      <point x="247" y="216" type="line" smooth="yes"/>
      <point x="252" y="212"/>
      <point x="233" y="206"/>
      <point x="234" y="212" type="curve" smooth="yes"/>
      <point x="266" y="328" type="line"/>
    </contour>
    <contour>
      <point x="92" y="34" type="line"/>
      <point x="103" y="7" type="line" smooth="yes"/>
      <point x="106" y="1"/>
      <point x="101" y="-5"/>
      <point x="95" y="-4" type="curve" smooth="yes"/>
      <point x="-56" y="23" type="line"/>
      <point x="-54" y="39" type="line"/>
      <point x="97" y="12" type="line" smooth="yes"/>
      <point x="104" y="11"/>
      <point x="91" y="-5"/>
      <point x="89" y="1" type="curve" smooth="yes"/>
      <point x="78" y="28" type="line"/>
    </contour>
    <contour>
      <point x="291" y="517" type="line"/>
      <point x="380" y="402" type="line" smooth="yes"/>
      <point x="384" y="397"/>
      <point x="364" y="395"/>
      <point x="367" y="400" type="curve" smooth="yes"/>
      <point x="418" y="515" type="line"/>
      <point x="432" y="509" type="line"/>
      <point x="381" y="394" type="line" smooth="yes"/>
      <point x="379" y="388"/>
      <point x="371" y="387"/>
      <point x="368" y="392" type="curve" smooth="yes"/>
      <point x="279" y="507" type="line"/>
    </contour>
    <contour>
      <point x="389" y="245" type="line"/>
      <point x="521" y="218" type="line" smooth="yes"/>
      <point x="527" y="216"/>
      <point x="516" y="200"/>
      <point x="512" y="206" type="curve" smooth="yes"/>
      <point x="444" y="322" type="line"/>
      <point x="458" y="330" type="line"/>
      <point x="526" y="214" type="line" smooth="yes"/>
      <point x="529" y="208"/>
      <point x="524" y="201"/>
      <point x="517" y="202" type="curve" smooth="yes"/>
      <point x="385" y="229" type="line"/>
    </contour>
    <contour>
      <point x="369" y="34" type="line"/>
      <point x="380" y="7" type="line" smooth="yes"/>
      <point x="383" y="1"/>
      <point x="378" y="-5"/>
      <point x="372" y="-4" type="curve" smooth="yes"/>
      <point x="221" y="23" type="line"/>
      <point x="223" y="39" type="line"/>
      <point x="374" y="12" type="line" smooth="yes"/>
      <point x="381" y="11"/>
      <point x="368" y="-5"/>
      <point x="366" y="1" type="curve" smooth="yes"/>
      <point x="355" y="28" type="line"/>
    </contour>
    <contour>
      <point x="568" y="517" type="line"/>
      <point x="657" y="402" type="line" smooth="yes"/>
      <point x="661" y="397"/>
      <point x="641" y="395"/>
      <point x="644" y="400" type="curve" smooth="yes"/>
      <point x="695" y="515" type="line"/>
      <point x="709" y="509" type="line"/>
      <point x="658" y="394" type="line" smooth="yes"/>
      <point x="656" y="388"/>
      <point x="648" y="387"/>
      <point x="645" y="392" type="curve" smooth="yes"/>
      <point x="556" y="507" type="line"/>
    </contour>
  </outline>
</glyph>
<glyph name="I" format="2">
  <advance width="225"/>
  <unicode hex="0049"/>
  <anchor x="-12.0" y="73.0" name="below"/>
  <anchor x="328.0" y="554.0" name="above"/>
  <outline>
    <contour>
      <point x="384" y="392" type="line"/>
      <point x="106" y="-1" type="line"/>
      <point x="92" y="9" type="line"/>
      <point x="370" y="402" type="line"/>
    </contour>
    <contour>
      <point x="94" y="34" type="line"/>
      <point x="106" y="7" type="line" smooth="yes"/>
      <point x="109" y="1"/>
      <point x="104" y="-5"/>
      <point x="98" y="-4" type="curve" smooth="yes"/>
      <point x="-53" y="23" type="line"/>
      <point x="-51" y="39" type="line"/>
      <point x="100" y="12" type="line" smooth="yes"/>
      <point x="107" y="11"/>
      <point x="94" y="-5"/>
      <point x="92" y="1" type="curve" smooth="yes"/>
      <point x="80" y="28" type="line"/>
    </contour>
    <contour>
      <point x="294" y="517" type="line"/>
      <point x="383" y="402" type="line" smooth="yes"/>
      <point x="387" y="397"/>
      <point x="367" y="395"/>
      <point x="370" y="400" type="curve" smooth="yes"/>
      <point x="420" y="515" type="line"/>
      <point x="434" y="509" type="line"/>
      <point x="384" y="394" type="line" smooth="yes"/>
      <point x="382" y="388"/>
      <point x="374" y="387"/>
      <point x="371" y="392" type="curve" smooth="yes"/>
      <point x="282" y="507" type="line"/>
    </contour>
  </outline>
</glyph>
<glyph name="J" format="2">
  <advance width="331"/>
  <unicode hex="004A"/>
  <anchor x="97.0" y="66.0" name="below"/>
  <anchor x="442.0" y="554.0" name="above"/>
  <outline>
    <contour>
      <point x="409" y="517" type="line"/>
      <point x="498" y="402" type="line" smooth="yes"/>
      <point x="502" y="397"/>
      <point x="482" y="395"/>
      <point x="485" y="400" type="curve" smooth="yes"/>
      <point x="535" y="515" type="line"/>
      <point x="549" y="509" type="line"/>
      <point x="499" y="394" type="line" smooth="yes"/>
      <point x="497" y="388"/>
      <point x="489" y="387"/>
      <point x="486" y="392" type="curve" smooth="yes"/>
      <point x="397" y="507" type="line"/>
    </contour>
    <contour>
      <point x="499" y="392" type="line"/>
      <point x="307" y="121" type="line" smooth="yes"/>
      <point x="307" y="121"/>
      <point x="307" y="121"/>
      <point x="307" y="121" type="curve" smooth="yes"/>
      <point x="250" y="41"/>
      <point x="170" y="-9"/>
      <point x="95" y="-10" type="curve" smooth="yes"/>
      <point x="95" y="-10"/>
      <point x="95" y="-10"/>
      <point x="95" y="-10" type="curve" smooth="yes"/>
      <point x="77" y="-10"/>
      <point x="60" y="-6"/>
      <point x="44" y="1" type="curve"/>
      <point x="50" y="15" type="line"/>
      <point x="64" y="10"/>
      <point x="79" y="6"/>
      <point x="95" y="6" type="curve" smooth="yes"/>
      <point x="95" y="6"/>
      <point x="95" y="6"/>
      <point x="95" y="6" type="curve" smooth="yes"/>
      <point x="166" y="7"/>
      <point x="240" y="55"/>
      <point x="293" y="131" type="curve" smooth="yes"/>
      <point x="293" y="131"/>
      <point x="293" y="131"/>
      <point x="293" y="131" type="curve" smooth="yes"/>
      <point x="485" y="402" type="line"/>
    </contour>
    <contour>
      <point x="-71" y="49" type="line"/>
      <point x="49" y="16" type="line" smooth="yes"/>
      <point x="55" y="14"/>
      <point x="40" y="0"/>
      <point x="39" y="6" type="curve" smooth="yes"/>
      <point x="5" y="160" type="line"/>
      <point x="21" y="164" type="line"/>
      <point x="55" y="10" type="line" smooth="yes"/>
      <point x="56" y="4"/>
      <point x="51" y="-1"/>
      <point x="45" y="0" type="curve" smooth="yes"/>
      <point x="-75" y="33" type="line"/>
    </contour>
  </outline>
</glyph>
<glyph name="K" format="2">
  <advance width="461"/>
  <unicode hex="004B"/>
  <anchor x="147.0" y="31.0" name="below"/>
  <anchor x="487.0" y="512.0" name="above"/>
  <outline>
    <contour>
      <point x="377" y="392" type="line"/>
      <point x="238" y="196" type="line" smooth="yes"/>
      <point x="238" y="196"/>
      <point x="238" y="196"/>
      <point x="238" y="196" type="curve" smooth="yes"/>
      <point x="99" y="-1" type="line"/>
      <point x="85" y="9" type="line"/>
      <point x="224" y="206" type="line" smooth="yes"/>
      <point x="224" y="206"/>
      <point x="224" y="206"/>
      <point x="224" y="206" type="curve" smooth="yes"/>
      <point x="363" y="402" type="line"/>
    </contour>
    <contour>
      <point x="614" y="390" type="line"/>
      <point x="358" y="235" type="line" smooth="yes"/>
      <point x="358" y="235"/>
      <point x="358" y="235"/>
      <point x="358" y="235" type="curve" smooth="yes"/>
      <point x="303" y="200"/>
      <point x="280" y="195"/>
      <point x="231" y="193" type="curve" smooth="yes"/>
      <point x="221" y="193"/>
      <point x="220" y="209"/>
      <point x="231" y="209" type="curve" smooth="yes"/>
      <point x="284" y="211"/>
      <point x="301" y="203"/>
      <point x="307" y="170" type="curve" smooth="yes"/>
      <point x="307" y="170"/>
      <point x="307" y="171"/>
      <point x="307" y="171" type="curve" smooth="yes"/>
      <point x="340" y="6" type="line"/>
      <point x="324" y="2" type="line"/>
      <point x="291" y="167" type="line" smooth="yes"/>
      <point x="291" y="168"/>
      <point x="291" y="168"/>
      <point x="291" y="168" type="curve" smooth="yes"/>
      <point x="287" y="193"/>
      <point x="272" y="195"/>
      <point x="231" y="193" type="curve" smooth="yes"/>
      <point x="221" y="193"/>
      <point x="220" y="209"/>
      <point x="231" y="209" type="curve" smooth="yes"/>
      <point x="276" y="211"/>
      <point x="297" y="216"/>
      <point x="350" y="249" type="curve" smooth="yes"/>
      <point x="350" y="249"/>
      <point x="350" y="249"/>
      <point x="350" y="249" type="curve" smooth="yes"/>
      <point x="606" y="404" type="line"/>
    </contour>
    <contour>
      <point x="277" y="324" type="line"/>
      <point x="239" y="199" type="line" smooth="yes"/>
      <point x="237" y="194"/>
      <point x="233" y="192"/>
      <point x="228" y="193" type="curve" smooth="yes"/>
      <point x="188" y="207" type="line"/>
      <point x="194" y="223" type="line"/>
      <point x="234" y="209" type="line" smooth="yes"/>
      <point x="238" y="207"/>
      <point x="222" y="199"/>
      <point x="223" y="203" type="curve" smooth="yes"/>
      <point x="261" y="328" type="line"/>
    </contour>
    <contour>
      <point x="87" y="34" type="line"/>
      <point x="99" y="7" type="line" smooth="yes"/>
      <point x="102" y="1"/>
      <point x="97" y="-5"/>
      <point x="91" y="-4" type="curve" smooth="yes"/>
      <point x="-60" y="23" type="line"/>
      <point x="-58" y="39" type="line"/>
      <point x="93" y="12" type="line" smooth="yes"/>
      <point x="100" y="11"/>
      <point x="87" y="-5"/>
      <point x="85" y="1" type="curve" smooth="yes"/>
      <point x="73" y="28" type="line"/>
    </contour>
    <contour>
      <point x="287" y="517" type="line"/>
      <point x="376" y="402" type="line" smooth="yes"/>
      <point x="380" y="397"/>
      <point x="360" y="395"/>
      <point x="363" y="400" type="curve" smooth="yes"/>
      <point x="413" y="515" type="line"/>
      <point x="427" y="509" type="line"/>
      <point x="377" y="394" type="line" smooth="yes"/>
      <point x="375" y="388"/>
      <point x="367" y="387"/>
      <point x="364" y="392" type="curve" smooth="yes"/>
      <point x="275" y="507" type="line"/>
    </contour>
    <contour>
      <point x="377" y="24" type="line"/>
      <point x="336" y="-3" type="line" smooth="yes"/>
      <point x="335" y="-4"/>
      <point x="332" y="-4"/>
      <point x="330" y="-4" type="curve" smooth="yes"/>
      <point x="206" y="23" type="line"/>
      <point x="210" y="39" type="line"/>
      <point x="334" y="12" type="line" smooth="yes"/>
      <point x="336" y="11"/>
      <point x="326" y="9"/>
      <point x="328" y="11" type="curve" smooth="yes"/>
      <point x="369" y="38" type="line"/>
    </contour>
    <contour>
      <point x="563" y="515" type="line"/>
      <point x="617" y="400" type="line" smooth="yes"/>
      <point x="620" y="395"/>
      <point x="600" y="398"/>
      <point x="604" y="402" type="curve" smooth="yes"/>
      <point x="701" y="517" type="line"/>
      <point x="713" y="507" type="line"/>
      <point x="616" y="392" type="line" smooth="yes"/>
      <point x="612" y="387"/>
      <point x="605" y="388"/>
      <point x="603" y="394" type="curve" smooth="yes"/>
      <point x="549" y="509" type="line"/>
    </contour>
    <contour>
      <point x="231" y="209" type="line"/>
      <point x="268" y="211"/>
      <point x="304" y="210"/>
      <point x="295" y="276" type="curve"/>
      <point x="311" y="278" type="line"/>
      <point x="322" y="200"/>
      <point x="276" y="195"/>
      <point x="231" y="193" type="curve"/>
    </contour>
  </outline>
</glyph>
<glyph name="L" format="2">
  <advance width="356"/>
  <unicode hex="004C"/>
  <anchor x="57.0" y="73.0" name="below"/>
  <anchor x="348.0" y="554.0" name="above"/>
  <anchor x="336.0" y="453.0" name="right"/>
  <outline>
    <contour>
      <point x="97" y="-1" type="line"/>
      <point x="-56" y="23" type="line"/>
      <point x="-54" y="39" type="line"/>
      <point x="99" y="15" type="line"/>
    </contour>
    <contour>
      <point x="142" y="122" type="line"/>
      <point x="106" y="5" type="line"/>
      <point x="90" y="9" type="line"/>
      <point x="126" y="126" type="line"/>
    </contour>
    <contour>
      <point x="291" y="517" type="line"/>
      <point x="380" y="402" type="line" smooth="yes"/>
      <point x="384" y="397"/>
      <point x="364" y="395"/>
      <point x="367" y="400" type="curve" smooth="yes"/>
      <point x="417" y="515" type="line"/>
      <point x="431" y="509" type="line"/>
      <point x="381" y="394" type="line" smooth="yes"/>
      <point x="379" y="388"/>
      <point x="371" y="387"/>
      <point x="368" y="392" type="curve" smooth="yes"/>
      <point x="279" y="507" type="line"/>
    </contour>
    <contour>
      <point x="232" y="38" type="line"/>
      <point x="276" y="19" type="line" smooth="yes"/>
      <point x="280" y="18"/>
      <point x="264" y="11"/>
      <point x="266" y="15" type="curve" smooth="yes"/>
      <point x="322" y="155" type="line"/>
      <point x="336" y="149" type="line"/>
      <point x="280" y="9" type="line" smooth="yes"/>
      <point x="279" y="5"/>
      <point x="274" y="3"/>
      <point x="270" y="5" type="curve" smooth="yes"/>
      <point x="226" y="24" type="line"/>
    </contour>
    <contour>
      <point x="381" y="392" type="line"/>
      <point x="105" y="2" type="line" smooth="yes"/>
      <point x="101" y="-3"/>
      <point x="91" y="15"/>
      <point x="98" y="15" type="curve" smooth="yes"/>
      <point x="273" y="20" type="line"/>
      <point x="273" y="4" type="line"/>
      <point x="98" y="-1" type="line" smooth="yes"/>
      <point x="92" y="-1"/>
      <point x="88" y="6"/>
      <point x="91" y="12" type="curve" smooth="yes"/>
      <point x="367" y="402" type="line"/>
    </contour>
  </outline>
</glyph>
<glyph name="P" format="2">
  <advance width="419"/>
  <unicode hex="0050"/>
  <outline>
    <contour>
      <point x="211" y="175" type="line"/>
      <point x="325" y="175" type="line"/>
      <point x="325" y="175"/>
      <point x="325" y="175"/>
      <point x="325" y="175" type="curve"/>
      <point x="400" y="175"/>
      <point x="478" y="220"/>
      <point x="525" y="287" type="curve" smooth="yes"/>
      <point x="525" y="287"/>
      <point x="525" y="287"/>
      <point x="525" y="287" type="curve" smooth="yes"/>
      <point x="569" y="349"/>
      <point x="559" y="389"/>
      <point x="488" y="389" type="curve"/>
      <point x="488" y="389"/>
      <point x="488" y="389"/>
      <point x="488" y="389" type="curve"/>
      <point x="374" y="389" type="line" smooth="yes"/>
      <point x="371" y="389"/>
      <point x="382" y="394"/>
      <point x="381" y="392" type="curve" smooth="yes"/>
      <point x="103" y="-1" type="line"/>
      <point x="89" y="9" type="line"/>
      <point x="367" y="402" type="line" smooth="yes"/>
      <point x="369" y="404"/>
      <point x="371" y="405"/>
      <point x="374" y="405" type="curve" smooth="yes"/>
      <point x="488" y="405" type="line"/>
      <point x="488" y="405"/>
      <point x="488" y="405"/>
      <point x="488" y="405" type="curve"/>
      <point x="572" y="405"/>
      <point x="591" y="351"/>
      <point x="539" y="277" type="curve" smooth="yes"/>
      <point x="539" y="277"/>
      <point x="539" y="277"/>
      <point x="539" y="277" type="curve" smooth="yes"/>
      <point x="488" y="206"/>
      <point x="406" y="159"/>
      <point x="325" y="159" type="curve"/>
      <point x="325" y="159"/>
      <point x="325" y="159"/>
      <point x="325" y="159" type="curve"/>
      <point x="211" y="159" type="line"/>
    </contour>
    <contour>
      <point x="251" y="280" type="line"/>
      <point x="219" y="165" type="line" smooth="yes"/>
      <point x="217" y="159"/>
      <point x="210" y="157"/>
      <point x="206" y="161" type="curve" smooth="yes"/>
      <point x="176" y="187" type="line"/>
      <point x="186" y="199" type="line"/>
      <point x="216" y="173" type="line" smooth="yes"/>
      <point x="221" y="169"/>
      <point x="202" y="163"/>
      <point x="203" y="169" type="curve" smooth="yes"/>
      <point x="235" y="284" type="line"/>
    </contour>
    <contour>
      <point x="91" y="34" type="line"/>
      <point x="103" y="7" type="line" smooth="yes"/>
      <point x="106" y="1"/>
      <point x="101" y="-5"/>
      <point x="95" y="-4" type="curve" smooth="yes"/>
      <point x="-56" y="23" type="line"/>
      <point x="-54" y="39" type="line"/>
      <point x="97" y="12" type="line" smooth="yes"/>
      <point x="104" y="11"/>
      <point x="91" y="-5"/>
      <point x="89" y="1" type="curve" smooth="yes"/>
      <point x="77" y="28" type="line"/>
    </contour>
    <contour>
      <point x="291" y="517" type="line"/>
      <point x="380" y="402" type="line" smooth="yes"/>
      <point x="386" y="394"/>
      <point x="376" y="384"/>
      <point x="369" y="391" type="curve" smooth="yes"/>
      <point x="341" y="417" type="line"/>
      <point x="351" y="429" type="line"/>
      <point x="379" y="403" type="line" smooth="yes"/>
      <point x="387" y="396"/>
      <point x="374" y="384"/>
      <point x="368" y="392" type="curve" smooth="yes"/>
      <point x="279" y="507" type="line"/>
    </contour>
  </outline>
</glyph>
<glyph name="Q" format="2">
  <advance width="524"/>
  <unicode hex="0051"/>
  <outline>
    <contour>
      <point x="243" y="5" type="curve"/>
      <point x="243" y="5"/>
      <point x="243" y="5"/>
      <point x="243" y="5" type="curve"/>
      <point x="270" y="5"/>
      <point x="299" y="10"/>
      <point x="329" y="21" type="curve" smooth="yes"/>
      <point x="329" y="21"/>
      <point x="329" y="21"/>
      <point x="329" y="21" type="curve" smooth="yes"/>
      <point x="413" y="50"/>
      <point x="501" y="117"/>
      <point x="562" y="206" type="curve" smooth="yes"/>
      <point x="562" y="206"/>
      <point x="562" y="206"/>
      <point x="562" y="206" type="curve" smooth="yes"/>
      <point x="644" y="321"/>
      <point x="631" y="396"/>
      <point x="531" y="396" type="curve"/>
      <point x="531" y="396"/>
      <point x="531" y="396"/>
      <point x="531" y="396" type="curve"/>
      <point x="427" y="396"/>
      <point x="297" y="317"/>
      <point x="213" y="196" type="curve" smooth="yes"/>
      <point x="213" y="196"/>
      <point x="213" y="196"/>
      <point x="213" y="196" type="curve" smooth="yes"/>
      <point x="130" y="81"/>
      <point x="143" y="5"/>
    </contour>
    <contour>
      <point x="243" y="-11" type="curve"/>
      <point x="131" y="-11"/>
      <point x="108" y="77"/>
      <point x="199" y="206" type="curve" smooth="yes"/>
      <point x="200" y="206"/>
      <point x="199" y="206"/>
      <point x="199" y="206" type="curve" smooth="yes"/>
      <point x="287" y="331"/>
      <point x="423" y="412"/>
      <point x="531" y="412" type="curve"/>
      <point x="531" y="412"/>
      <point x="531" y="412"/>
      <point x="531" y="412" type="curve"/>
      <point x="643" y="412"/>
      <point x="666" y="325"/>
      <point x="576" y="196" type="curve" smooth="yes"/>
      <point x="576" y="196"/>
      <point x="576" y="196"/>
      <point x="576" y="196" type="curve" smooth="yes"/>
      <point x="511" y="105"/>
      <point x="421" y="36"/>
      <point x="335" y="5" type="curve" smooth="yes"/>
      <point x="335" y="5"/>
      <point x="335" y="5"/>
      <point x="335" y="5" type="curve" smooth="yes"/>
      <point x="303" y="-6"/>
      <point x="272" y="-11"/>
      <point x="243" y="-11" type="curve"/>
      <point x="243" y="-11"/>
      <point x="243" y="-11"/>
    </contour>
    <contour>
      <point x="428" y="-19" type="line"/>
      <point x="349" y="-71"/>
      <point x="299" y="-68"/>
      <point x="324" y="15" type="curve"/>
      <point x="340" y="11" type="line"/>
      <point x="319" y="-56"/>
      <point x="356" y="-47"/>
      <point x="420" y="-5" type="curve"/>
    </contour>
    <contour>
      <point x="219" y="36" type="line"/>
      <point x="333" y="21" type="line" smooth="yes"/>
      <point x="337" y="20"/>
      <point x="323" y="11"/>
      <point x="324" y="15" type="curve" smooth="yes"/>
      <point x="338" y="76" type="line"/>
      <point x="354" y="72" type="line"/>
      <point x="340" y="11" type="line" smooth="yes"/>
      <point x="339" y="7"/>
      <point x="335" y="5"/>
      <point x="331" y="5" type="curve" smooth="yes"/>
      <point x="217" y="20" type="line"/>
    </contour>
  </outline>
</glyph>
<glyph name="R" format="2">
  <advance width="455"/>
  <unicode hex="0052"/>
  <anchor x="119.0" y="73.0" name="below"/>
  <anchor x="415.0" y="554.0" name="above"/>
  <outline>
    <contour>
      <point x="89" y="9" type="line"/>
      <point x="212" y="182" type="line" smooth="yes"/>
      <point x="212" y="182"/>
      <point x="212" y="182"/>
      <point x="212" y="182" type="curve" smooth="yes"/>
      <point x="367" y="402" type="line" smooth="yes"/>
      <point x="369" y="404"/>
      <point x="371" y="405"/>
      <point x="374" y="405" type="curve" smooth="yes"/>
      <point x="488" y="405" type="line"/>
      <point x="488" y="405"/>
      <point x="488" y="405"/>
      <point x="488" y="405" type="curve"/>
      <point x="568" y="405"/>
      <point x="586" y="354"/>
      <point x="535" y="282" type="curve" smooth="yes"/>
      <point x="535" y="282"/>
      <point x="535" y="282"/>
      <point x="535" y="282" type="curve" smooth="yes"/>
      <point x="491" y="220"/>
      <point x="421" y="176"/>
      <point x="359" y="169" type="curve" smooth="yes"/>
      <point x="359" y="169"/>
      <point x="358" y="169"/>
      <point x="358" y="169" type="curve" smooth="yes"/>
      <point x="219" y="169" type="line"/>
      <point x="219" y="185" type="line"/>
      <point x="358" y="185" type="line" smooth="yes"/>
      <point x="358" y="185"/>
      <point x="357" y="185"/>
      <point x="357" y="185" type="curve" smooth="yes"/>
      <point x="415" y="192"/>
      <point x="481" y="234"/>
      <point x="521" y="292" type="curve" smooth="yes"/>
      <point x="521" y="292"/>
      <point x="521" y="292"/>
      <point x="521" y="292" type="curve" smooth="yes"/>
      <point x="564" y="352"/>
      <point x="555" y="389"/>
      <point x="488" y="389" type="curve"/>
      <point x="488" y="389"/>
      <point x="488" y="389"/>
      <point x="488" y="389" type="curve"/>
      <point x="374" y="389" type="line" smooth="yes"/>
      <point x="371" y="389"/>
      <point x="382" y="395"/>
      <point x="381" y="392" type="curve" smooth="yes"/>
      <point x="226" y="172" type="line" smooth="yes"/>
      <point x="226" y="172"/>
      <point x="226" y="172"/>
      <point x="226" y="172" type="curve" smooth="yes"/>
      <point x="103" y="-1" type="line"/>
    </contour>
    <contour>
      <point x="366" y="177" type="line"/>
      <point x="357" y="4" type="line"/>
      <point x="341" y="4" type="line"/>
      <point x="350" y="177" type="line"/>
    </contour>
    <contour>
      <point x="257" y="288" type="line"/>
      <point x="227" y="175" type="line" smooth="yes"/>
      <point x="225" y="169"/>
      <point x="218" y="167"/>
      <point x="213" y="171" type="curve" smooth="yes"/>
      <point x="184" y="199" type="line"/>
      <point x="196" y="211" type="line"/>
      <point x="225" y="183" type="line" smooth="yes"/>
      <point x="229" y="179"/>
      <point x="210" y="173"/>
      <point x="211" y="179" type="curve" smooth="yes"/>
      <point x="241" y="292" type="line"/>
    </contour>
    <contour>
      <point x="92" y="34" type="line"/>
      <point x="103" y="7" type="line" smooth="yes"/>
      <point x="106" y="1"/>
      <point x="101" y="-5"/>
      <point x="95" y="-4" type="curve" smooth="yes"/>
      <point x="-56" y="23" type="line"/>
      <point x="-54" y="39" type="line"/>
      <point x="97" y="12" type="line" smooth="yes"/>
      <point x="104" y="11"/>
      <point x="91" y="-5"/>
      <point x="89" y="1" type="curve" smooth="yes"/>
      <point x="78" y="28" type="line"/>
    </contour>
    <contour>
      <point x="291" y="517" type="line"/>
      <point x="380" y="402" type="line" smooth="yes"/>
      <point x="386" y="394"/>
      <point x="376" y="384"/>
      <point x="369" y="391" type="curve" smooth="yes"/>
      <point x="341" y="417" type="line"/>
      <point x="351" y="429" type="line"/>
      <point x="379" y="403" type="line" smooth="yes"/>
      <point x="387" y="396"/>
      <point x="374" y="384"/>
      <point x="368" y="392" type="curve" smooth="yes"/>
      <point x="279" y="507" type="line"/>
    </contour>
    <contour>
      <point x="253" y="213" type="line"/>
      <point x="360" y="185" type="line" smooth="yes"/>
      <point x="365" y="184"/>
      <point x="349" y="173"/>
      <point x="350" y="178" type="curve" smooth="yes"/>
      <point x="356" y="228" type="line"/>
      <point x="372" y="226" type="line"/>
      <point x="366" y="176" type="line" smooth="yes"/>
      <point x="365" y="171"/>
      <point x="361" y="168"/>
      <point x="356" y="169" type="curve" smooth="yes"/>
      <point x="249" y="197" type="line"/>
    </contour>
    <contour>
      <point x="380" y="26" type="line"/>
      <point x="355" y="-1" type="line" smooth="yes"/>
      <point x="353" y="-3"/>
      <point x="350" y="-4"/>
      <point x="347" y="-4" type="curve" smooth="yes"/>
      <point x="216" y="23" type="line"/>
      <point x="220" y="39" type="line"/>
      <point x="351" y="12" type="line" smooth="yes"/>
      <point x="353" y="11"/>
      <point x="341" y="7"/>
      <point x="343" y="9" type="curve" smooth="yes"/>
      <point x="368" y="36" type="line"/>
    </contour>
  </outline>
</glyph>
<glyph name="S" format="2">
  <advance width="377"/>
  <unicode hex="0053"/>
  <anchor x="61.0" y="72.0" name="below"/>
  <anchor x="411.0" y="555.0" name="above"/>
  <outline>
    <contour>
      <point x="547" y="383" type="line"/>
      <point x="527" y="391"/>
      <point x="504" y="396"/>
      <point x="478" y="396" type="curve"/>
      <point x="478" y="396"/>
      <point x="478" y="396"/>
      <point x="478" y="396" type="curve"/>
      <point x="406" y="396"/>
      <point x="335" y="360"/>
      <point x="295" y="302" type="curve" smooth="yes"/>
      <point x="295" y="302"/>
      <point x="295" y="302"/>
      <point x="295" y="302" type="curve" smooth="yes"/>
      <point x="259" y="251"/>
      <point x="292" y="230"/>
      <point x="325" y="208" type="curve" smooth="yes"/>
      <point x="325" y="208"/>
      <point x="325" y="208"/>
      <point x="325" y="207" type="curve" smooth="yes"/>
      <point x="364" y="179"/>
      <point x="402" y="150"/>
      <point x="361" y="91" type="curve" smooth="yes"/>
      <point x="361" y="91"/>
      <point x="361" y="91"/>
      <point x="361" y="91" type="curve" smooth="yes"/>
      <point x="314" y="25"/>
      <point x="236" y="-13"/>
      <point x="155" y="-13" type="curve"/>
      <point x="155" y="-13"/>
      <point x="155" y="-13"/>
      <point x="155" y="-13" type="curve"/>
      <point x="125" y="-13"/>
      <point x="94" y="-8"/>
      <point x="69" y="4" type="curve"/>
      <point x="75" y="18" type="line"/>
      <point x="98" y="8"/>
      <point x="127" y="3"/>
      <point x="155" y="3" type="curve"/>
      <point x="155" y="3"/>
      <point x="155" y="3"/>
      <point x="155" y="3" type="curve"/>
      <point x="230" y="3"/>
      <point x="304" y="39"/>
      <point x="347" y="101" type="curve" smooth="yes"/>
      <point x="347" y="101"/>
      <point x="347" y="101"/>
      <point x="347" y="101" type="curve" smooth="yes"/>
      <point x="382" y="150"/>
      <point x="348" y="171"/>
      <point x="315" y="195" type="curve" smooth="yes"/>
      <point x="315" y="195"/>
      <point x="315" y="194"/>
      <point x="315" y="194" type="curve" smooth="yes"/>
      <point x="276" y="222"/>
      <point x="239" y="251"/>
      <point x="281" y="312" type="curve" smooth="yes"/>
      <point x="281" y="312"/>
      <point x="281" y="312"/>
      <point x="281" y="312" type="curve" smooth="yes"/>
      <point x="325" y="374"/>
      <point x="400" y="412"/>
      <point x="478" y="412" type="curve"/>
      <point x="478" y="412"/>
      <point x="478" y="412"/>
      <point x="478" y="412" type="curve"/>
      <point x="506" y="412"/>
      <point x="531" y="407"/>
      <point x="553" y="397" type="curve"/>
    </contour>
    <contour>
      <point x="580" y="498" type="line"/>
      <point x="558" y="388" type="line" smooth="yes"/>
      <point x="557" y="385"/>
      <point x="554" y="382"/>
      <point x="551" y="382" type="curve" smooth="yes"/>
      <point x="491" y="376" type="line"/>
      <point x="489" y="392" type="line"/>
      <point x="549" y="398" type="line" smooth="yes"/>
      <point x="553" y="398"/>
      <point x="541" y="388"/>
      <point x="542" y="392" type="curve" smooth="yes"/>
      <point x="564" y="502" type="line"/>
    </contour>
    <contour>
      <point x="-49" y="49" type="line"/>
      <point x="74" y="19" type="line" smooth="yes"/>
      <point x="80" y="17"/>
      <point x="66" y="3"/>
      <point x="64" y="9" type="curve" smooth="yes"/>
      <point x="24" y="157" type="line"/>
      <point x="40" y="161" type="line"/>
      <point x="80" y="13" type="line" smooth="yes"/>
      <point x="81" y="7"/>
      <point x="76" y="2"/>
      <point x="70" y="3" type="curve" smooth="yes"/>
      <point x="-53" y="33" type="line"/>
    </contour>
  </outline>
</glyph>
<glyph name="W" format="2">
  <advance width="646"/>
  <unicode hex="0057"/>
  <anchor x="199.0" y="73.0" name="below"/>
  <anchor x="539.0" y="554.0" name="above"/>
  <outline>
    <contour>
      <point x="151" y="38" type="line"/>
      <point x="201" y="18" type="line" smooth="yes"/>
      <point x="210" y="15"/>
      <point x="206" y="2"/>
      <point x="197" y="3" type="curve" smooth="yes"/>
      <point x="68" y="23" type="line"/>
      <point x="70" y="39" type="line"/>
      <point x="199" y="19" type="line" smooth="yes"/>
      <point x="209" y="17"/>
      <point x="204" y="0"/>
      <point x="195" y="4" type="curve" smooth="yes"/>
      <point x="145" y="24" type="line"/>
    </contour>
    <contour>
      <point x="254" y="517" type="line"/>
      <point x="358" y="402" type="line" smooth="yes"/>
      <point x="362" y="398"/>
      <point x="342" y="395"/>
      <point x="345" y="400" type="curve" smooth="yes"/>
      <point x="396" y="515" type="line"/>
      <point x="410" y="509" type="line"/>
      <point x="359" y="394" type="line" smooth="yes"/>
      <point x="357" y="388"/>
      <point x="350" y="387"/>
      <point x="346" y="392" type="curve" smooth="yes"/>
      <point x="242" y="507" type="line"/>
    </contour>
    <contour>
      <point x="390" y="38" type="line"/>
      <point x="436" y="18" type="line" smooth="yes"/>
      <point x="445" y="15"/>
      <point x="441" y="2"/>
      <point x="432" y="3" type="curve" smooth="yes"/>
      <point x="305" y="23" type="line"/>
      <point x="307" y="39" type="line"/>
      <point x="434" y="19" type="line" smooth="yes"/>
      <point x="444" y="17"/>
      <point x="438" y="0"/>
      <point x="430" y="4" type="curve" smooth="yes"/>
      <point x="384" y="24" type="line"/>
    </contour>
    <contour>
      <point x="530" y="516" type="line"/>
      <point x="593" y="394" type="line" smooth="yes"/>
      <point x="596" y="387"/>
      <point x="576" y="386"/>
      <point x="578" y="392" type="curve" smooth="yes"/>
      <point x="617" y="514" type="line"/>
      <point x="633" y="510" type="line"/>
      <point x="594" y="388" type="line" smooth="yes"/>
      <point x="591" y="381"/>
      <point x="582" y="380"/>
      <point x="579" y="386" type="curve" smooth="yes"/>
      <point x="516" y="508" type="line"/>
    </contour>
    <contour>
      <point x="747" y="517" type="line"/>
      <point x="833" y="402" type="line" smooth="yes"/>
      <point x="837" y="397"/>
      <point x="817" y="396"/>
      <point x="820" y="401" type="curve" smooth="yes"/>
      <point x="881" y="516" type="line"/>
      <point x="895" y="508" type="line"/>
      <point x="834" y="393" type="line" smooth="yes"/>
      <point x="831" y="388"/>
      <point x="824" y="388"/>
      <point x="821" y="392" type="curve" smooth="yes"/>
      <point x="735" y="507" type="line"/>
    </contour>
    <contour>
      <point x="833" y="391" type="line"/>
      <point x="439" y="5" type="line" smooth="yes"/>
      <point x="432" y="-1"/>
      <point x="422" y="6"/>
      <point x="426" y="14" type="curve" smooth="yes"/>
      <point x="579" y="393" type="line" smooth="yes"/>
      <point x="582" y="401"/>
      <point x="598" y="390"/>
      <point x="592" y="384" type="curve" smooth="yes"/>
      <point x="204" y="5" type="line" smooth="yes"/>
      <point x="197" y="-1"/>
      <point x="187" y="6"/>
      <point x="191" y="14" type="curve" smooth="yes"/>
      <point x="345" y="400" type="line"/>
      <point x="359" y="394" type="line"/>
      <point x="205" y="8" type="line" smooth="yes"/>
      <point x="202" y="0"/>
      <point x="186" y="11"/>
      <point x="192" y="17" type="curve" smooth="yes"/>
      <point x="580" y="396" type="line" smooth="yes"/>
      <point x="587" y="402"/>
      <point x="597" y="395"/>
      <point x="593" y="387" type="curve" smooth="yes"/>
      <point x="440" y="8" type="line" smooth="yes"/>
      <point x="437" y="0"/>
      <point x="421" y="11"/>
      <point x="427" y="17" type="curve" smooth="yes"/>
      <point x="821" y="403" type="line"/>
    </contour>
    <contour>
      <point x="267" y="231" type="line"/>
      <point x="206" y="9" type="line"/>
      <point x="190" y="13" type="line"/>
      <point x="251" y="235" type="line"/>
    </contour>
    <contour>
      <point x="501" y="232" type="line"/>
      <point x="441" y="9" type="line"/>
      <point x="425" y="13" type="line"/>
      <point x="485" y="236" type="line"/>
    </contour>
    <contour>
      <point x="590" y="383" type="line"/>
      <point x="427" y="300" type="line"/>
      <point x="419" y="314" type="line"/>
      <point x="582" y="397" type="line"/>
    </contour>
  </outline>
</glyph>
<glyph name="X" format="2">
  <advance width="465"/>
  <unicode hex="0058"/>
  <outline>
    <contour>
      <point x="337" y="5" type="line"/>
      <point x="354" y="208" type="line" smooth="yes"/>
      <point x="354" y="208"/>
      <point x="354" y="208"/>
      <point x="354" y="208" type="curve" smooth="yes"/>
      <point x="371" y="398" type="line"/>
      <point x="387" y="396" type="line"/>
      <point x="370" y="206" type="line" smooth="yes"/>
      <point x="370" y="206"/>
      <point x="370" y="206"/>
      <point x="370" y="206" type="curve" smooth="yes"/>
      <point x="353" y="3" type="line"/>
    </contour>
    <contour>
      <point x="80" y="10" type="line"/>
      <point x="357" y="213" type="line" smooth="yes"/>
      <point x="357" y="213"/>
      <point x="357" y="213"/>
      <point x="357" y="213" type="curve" smooth="yes"/>
      <point x="616" y="403" type="line"/>
      <point x="626" y="391" type="line"/>
      <point x="367" y="201" type="line" smooth="yes"/>
      <point x="367" y="201"/>
      <point x="367" y="201"/>
      <point x="367" y="201" type="curve" smooth="yes"/>
      <point x="90" y="-2" type="line"/>
    </contour>
    <contour>
      <point x="59" y="37" type="line"/>
      <point x="90" y="10" type="line" smooth="yes"/>
      <point x="96" y="5"/>
      <point x="92" y="-5"/>
      <point x="84" y="-4" type="curve" smooth="yes"/>
      <point x="-96" y="23" type="line"/>
      <point x="-94" y="39" type="line"/>
      <point x="86" y="12" type="line" smooth="yes"/>
      <point x="94" y="11"/>
      <point x="86" y="-7"/>
      <point x="80" y="-2" type="curve" smooth="yes"/>
      <point x="49" y="25" type="line"/>
    </contour>
    <contour>
      <point x="257" y="518" type="line"/>
      <point x="384" y="403" type="line" smooth="yes"/>
      <point x="389" y="399"/>
      <point x="370" y="394"/>
      <point x="371" y="399" type="curve" smooth="yes"/>
      <point x="407" y="514" type="line"/>
      <point x="423" y="510" type="line"/>
      <point x="387" y="395" type="line" smooth="yes"/>
      <point x="385" y="389"/>
      <point x="378" y="387"/>
      <point x="374" y="391" type="curve" smooth="yes"/>
      <point x="247" y="506" type="line"/>
    </contour>
    <contour>
      <point x="376" y="26" type="line"/>
      <point x="351" y="-1" type="line" smooth="yes"/>
      <point x="349" y="-3"/>
      <point x="346" y="-4"/>
      <point x="343" y="-4" type="curve" smooth="yes"/>
      <point x="205" y="23" type="line"/>
      <point x="209" y="39" type="line"/>
      <point x="347" y="12" type="line" smooth="yes"/>
      <point x="349" y="11"/>
      <point x="337" y="7"/>
      <point x="339" y="9" type="curve" smooth="yes"/>
      <point x="364" y="36" type="line"/>
    </contour>
    <contour>
      <point x="559" y="516" type="line"/>
      <point x="628" y="401" type="line" smooth="yes"/>
      <point x="631" y="396"/>
      <point x="611" y="397"/>
      <point x="614" y="402" type="curve" smooth="yes"/>
      <point x="694" y="517" type="line"/>
      <point x="708" y="507" type="line"/>
      <point x="628" y="392" type="line" smooth="yes"/>
      <point x="624" y="388"/>
      <point x="617" y="388"/>
      <point x="614" y="393" type="curve" smooth="yes"/>
      <point x="545" y="508" type="line"/>
    </contour>
    <contour>
      <point x="256" y="280" type="line"/>
      <point x="366" y="214" type="line" smooth="yes"/>
      <point x="371" y="211"/>
      <point x="353" y="202"/>
      <point x="354" y="208" type="curve" smooth="yes"/>
      <point x="363" y="284" type="line"/>
      <point x="379" y="282" type="line"/>
      <point x="370" y="206" type="line" smooth="yes"/>
      <point x="369" y="200"/>
      <point x="363" y="197"/>
      <point x="358" y="200" type="curve" smooth="yes"/>
      <point x="248" y="266" type="line"/>
    </contour>
    <contour>
      <point x="386" y="363" type="line"/>
      <point x="370" y="206" type="line" smooth="yes"/>
      <point x="370" y="203"/>
      <point x="367" y="200"/>
      <point x="363" y="199" type="curve" smooth="yes"/>
      <point x="246" y="183" type="line"/>
      <point x="244" y="199" type="line"/>
      <point x="361" y="215" type="line" smooth="yes"/>
      <point x="365" y="215"/>
      <point x="354" y="204"/>
      <point x="354" y="208" type="curve" smooth="yes"/>
      <point x="370" y="365" type="line"/>
    </contour>
  </outline>
</glyph>
<glyph name="Y" format="2">
  <advance width="441"/>
  <unicode hex="0059"/>
  <anchor x="126.0" y="31.0" name="below"/>
  <anchor x="466.0" y="512.0" name="above"/>
  <outline>
    <contour>
      <point x="361" y="395" type="line"/>
      <point x="350" y="355"/>
      <point x="338" y="289"/>
      <point x="316" y="146" type="curve" smooth="yes"/>
      <point x="315" y="139"/>
      <point x="297" y="149"/>
      <point x="303" y="153" type="curve" smooth="yes"/>
      <point x="485" y="297"/>
      <point x="569" y="363"/>
      <point x="614" y="403" type="curve"/>
      <point x="624" y="391" type="line"/>
      <point x="579" y="351"/>
      <point x="495" y="285"/>
      <point x="313" y="141" type="curve" smooth="yes"/>
      <point x="307" y="136"/>
      <point x="299" y="141"/>
      <point x="300" y="148" type="curve" smooth="yes"/>
      <point x="322" y="293"/>
      <point x="334" y="359"/>
      <point x="345" y="399" type="curve"/>
    </contour>
    <contour>
      <point x="332" y="311" type="line"/>
      <point x="316" y="146" type="line" smooth="yes"/>
      <point x="316" y="145"/>
      <point x="315" y="144"/>
      <point x="315" y="142" type="curve" smooth="yes"/>
      <point x="214" y="-1" type="line"/>
      <point x="200" y="9" type="line"/>
      <point x="301" y="152" type="line" smooth="yes"/>
      <point x="302" y="153"/>
      <point x="300" y="146"/>
      <point x="300" y="148" type="curve" smooth="yes"/>
      <point x="316" y="313" type="line"/>
    </contour>
    <contour>
      <point x="203" y="34" type="line"/>
      <point x="214" y="7" type="line" smooth="yes"/>
      <point x="217" y="1"/>
      <point x="212" y="-5"/>
      <point x="206" y="-4" type="curve" smooth="yes"/>
      <point x="56" y="23" type="line"/>
      <point x="58" y="39" type="line"/>
      <point x="208" y="12" type="line" smooth="yes"/>
      <point x="215" y="11"/>
      <point x="202" y="-5"/>
      <point x="200" y="1" type="curve" smooth="yes"/>
      <point x="189" y="28" type="line"/>
    </contour>
    <contour>
      <point x="248" y="518" type="line"/>
      <point x="359" y="403" type="line" smooth="yes"/>
      <point x="363" y="398"/>
      <point x="343" y="394"/>
      <point x="345" y="400" type="curve" smooth="yes"/>
      <point x="384" y="515" type="line"/>
      <point x="400" y="509" type="line"/>
      <point x="361" y="394" type="line" smooth="yes"/>
      <point x="359" y="389"/>
      <point x="351" y="387"/>
      <point x="347" y="391" type="curve" smooth="yes"/>
      <point x="236" y="506" type="line"/>
    </contour>
    <contour>
      <point x="551" y="516" type="line"/>
      <point x="626" y="401" type="line" smooth="yes"/>
      <point x="629" y="396"/>
      <point x="609" y="396"/>
      <point x="612" y="401" type="curve" smooth="yes"/>
      <point x="682" y="516" type="line"/>
      <point x="696" y="508" type="line"/>
      <point x="626" y="393" type="line" smooth="yes"/>
      <point x="623" y="388"/>
      <point x="616" y="388"/>
      <point x="612" y="393" type="curve" smooth="yes"/>
      <point x="537" y="508" type="line"/>
    </contour>
    <contour>
      <point x="209" y="220" type="line"/>
      <point x="312" y="154" type="line" smooth="yes"/>
      <point x="318" y="150"/>
      <point x="300" y="140"/>
      <point x="300" y="147" type="curve" smooth="yes"/>
      <point x="298" y="213" type="line"/>
      <point x="314" y="213" type="line"/>
      <point x="316" y="147" type="line" smooth="yes"/>
      <point x="316" y="141"/>
      <point x="309" y="137"/>
      <point x="304" y="140" type="curve" smooth="yes"/>
      <point x="201" y="206" type="line"/>
    </contour>
  </outline>
</glyph>
<glyph name="Z" format="2">
  <advance width="416"/>
  <unicode hex="005A"/>
  <anchor x="112.0" y="31.0" name="below"/>
  <anchor x="452.0" y="512.0" name="above"/>
  <outline>
    <contour>
      <point x="344" y="400" type="line"/>
      <point x="393" y="404"/>
      <point x="452" y="404"/>
      <point x="500" y="404" type="curve"/>
      <point x="500" y="404"/>
      <point x="500" y="404"/>
      <point x="500" y="404" type="curve"/>
      <point x="578" y="404" type="line" smooth="yes"/>
      <point x="586" y="404"/>
      <point x="589" y="394"/>
      <point x="583" y="390" type="curve" smooth="yes"/>
      <point x="93" y="-1" type="line" smooth="yes"/>
      <point x="87" y="-6"/>
      <point x="80" y="13"/>
      <point x="88" y="13" type="curve" smooth="yes"/>
      <point x="159" y="13" type="line"/>
      <point x="159" y="13"/>
      <point x="159" y="13"/>
      <point x="159" y="13" type="curve"/>
      <point x="207" y="13"/>
      <point x="263" y="13"/>
      <point x="313" y="18" type="curve"/>
      <point x="315" y="2" type="line"/>
      <point x="265" y="-3"/>
      <point x="207" y="-3"/>
      <point x="159" y="-3" type="curve"/>
      <point x="159" y="-3"/>
      <point x="159" y="-3"/>
      <point x="159" y="-3" type="curve"/>
      <point x="88" y="-3" type="line" smooth="yes"/>
      <point x="80" y="-3"/>
      <point x="77" y="7"/>
      <point x="83" y="11" type="curve" smooth="yes"/>
      <point x="573" y="402" type="line" smooth="yes"/>
      <point x="579" y="407"/>
      <point x="586" y="388"/>
      <point x="578" y="388" type="curve" smooth="yes"/>
      <point x="500" y="388" type="line"/>
      <point x="500" y="388"/>
      <point x="500" y="388"/>
      <point x="500" y="388" type="curve"/>
      <point x="452" y="388"/>
      <point x="393" y="388"/>
      <point x="346" y="384" type="curve"/>
    </contour>
    <contour>
      <point x="208" y="409" type="line"/>
      <point x="346" y="400" type="line" smooth="yes"/>
      <point x="352" y="400"/>
      <point x="341" y="383"/>
      <point x="338" y="388" type="curve" smooth="yes"/>
      <point x="278" y="508" type="line"/>
      <point x="292" y="516" type="line"/>
      <point x="352" y="396" type="line" smooth="yes"/>
      <point x="355" y="390"/>
      <point x="351" y="384"/>
      <point x="344" y="384" type="curve" smooth="yes"/>
      <point x="206" y="393" type="line"/>
    </contour>
    <contour>
      <point x="377" y="145" type="line"/>
      <point x="321" y="7" type="line" smooth="yes"/>
      <point x="320" y="3"/>
      <point x="315" y="1"/>
      <point x="310" y="3" type="curve" smooth="yes"/>
      <point x="269" y="24" type="line"/>
      <point x="277" y="38" type="line"/>
      <point x="318" y="17" type="line" smooth="yes"/>
      <point x="322" y="15"/>
      <point x="305" y="9"/>
      <point x="307" y="13" type="curve" smooth="yes"/>
      <point x="363" y="151" type="line"/>
    </contour>
    <contour>
      <point x="-73" y="39" type="line"/>
      <point x="89" y="13" type="line" smooth="yes"/>
      <point x="93" y="12"/>
      <point x="79" y="6"/>
      <point x="81" y="9" type="curve" smooth="yes"/>
      <point x="144" y="123" type="line"/>
      <point x="158" y="115" type="line"/>
      <point x="95" y="1" type="line" smooth="yes"/>
      <point x="93" y="-2"/>
      <point x="90" y="-3"/>
      <point x="87" y="-3" type="curve" smooth="yes"/>
      <point x="-75" y="23" type="line"/>
    </contour>
    <contour>
      <point x="647" y="508" type="line"/>
      <point x="585" y="392" type="line" smooth="yes"/>
      <point x="583" y="389"/>
      <point x="580" y="388"/>
      <point x="577" y="388" type="curve" smooth="yes"/>
      <point x="414" y="415" type="line"/>
      <point x="416" y="431" type="line"/>
      <point x="579" y="404" type="line" smooth="yes"/>
      <point x="583" y="403"/>
      <point x="569" y="397"/>
      <point x="571" y="400" type="curve" smooth="yes"/>
      <point x="633" y="516" type="line"/>
    </contour>
  </outline>
</glyph>
<glyph name="bracketleft" format="2">
  <advance width="323"/>
  <unicode hex="005B"/>
  <outline>
    <contour>
      <point x="153" y="-58" type="line"/>
      <point x="170" y="-64"/>
      <point x="176" y="-80"/>
      <point x="63" y="-80" type="curve" smooth="yes"/>
      <point x="57" y="-80"/>
      <point x="53" y="-73"/>
      <point x="56" y="-67" type="curve" smooth="yes"/>
      <point x="441" y="478" type="line" smooth="yes"/>
      <point x="443" y="479"/>
      <point x="445" y="481"/>
      <point x="447" y="481" type="curve" smooth="yes"/>
      <point x="516" y="490"/>
      <point x="578" y="537"/>
      <point x="618" y="611" type="curve"/>
      <point x="632" y="603" type="line"/>
      <point x="590" y="525"/>
      <point x="522" y="474"/>
      <point x="449" y="465" type="curve" smooth="yes"/>
      <point x="447" y="465"/>
      <point x="456" y="470"/>
      <point x="455" y="468" type="curve" smooth="yes"/>
      <point x="70" y="-77" type="line" smooth="yes"/>
      <point x="66" y="-82"/>
      <point x="57" y="-64"/>
      <point x="63" y="-64" type="curve" smooth="yes"/>
      <point x="68" y="-64"/>
      <point x="148" y="-73"/>
      <point x="147" y="-72" type="curve"/>
    </contour>
    <contour>
      <point x="370" y="598" type="line"/>
      <point x="455" y="478" type="line" smooth="yes"/>
      <point x="460" y="470"/>
      <point x="449" y="460"/>
      <point x="442" y="467" type="curve" smooth="yes"/>
      <point x="414" y="494" type="line"/>
      <point x="426" y="506" type="line"/>
      <point x="454" y="479" type="line" smooth="yes"/>
      <point x="461" y="472"/>
      <point x="447" y="460"/>
      <point x="441" y="468" type="curve" smooth="yes"/>
      <point x="356" y="588" type="line"/>
    </contour>
    <contour>
      <point x="105" y="41" type="line"/>
      <point x="71" y="-74" type="line" smooth="yes"/>
      <point x="70" y="-78"/>
      <point x="66" y="-80"/>
      <point x="62" y="-80" type="curve" smooth="yes"/>
      <point x="-93" y="-59" type="line"/>
      <point x="-91" y="-43" type="line"/>
      <point x="64" y="-64" type="line" smooth="yes"/>
      <point x="68" y="-65"/>
      <point x="54" y="-74"/>
      <point x="55" y="-70" type="curve" smooth="yes"/>
      <point x="89" y="45" type="line"/>
    </contour>
  </outline>
</glyph>
<glyph name="backslash" format="2">
  <advance width="331"/>
  <unicode hex="005C"/>
  <outline>
    <contour>
      <point x="382" y="444" type="line"/>
      <point x="212" y="-52" type="line"/>
      <point x="196" y="-46" type="line"/>
      <point x="366" y="450" type="line"/>
    </contour>
    <contour>
      <point x="196" y="-18" type="line"/>
      <point x="211" y="-45" type="line" smooth="yes"/>
      <point x="214" y="-51"/>
      <point x="209" y="-58"/>
      <point x="202" y="-57" type="curve" smooth="yes"/>
      <point x="87" y="-30" type="line"/>
      <point x="91" y="-14" type="line"/>
      <point x="206" y="-41" type="line" smooth="yes"/>
      <point x="213" y="-43"/>
      <point x="200" y="-59"/>
      <point x="197" y="-53" type="curve" smooth="yes"/>
      <point x="182" y="-26" type="line"/>
    </contour>
    <contour>
      <point x="296" y="566" type="line"/>
      <point x="380" y="452" type="line" smooth="yes"/>
      <point x="385" y="446"/>
      <point x="365" y="441"/>
      <point x="366" y="448" type="curve" smooth="yes"/>
      <point x="381" y="562" type="line"/>
      <point x="397" y="560" type="line"/>
      <point x="382" y="446" type="line" smooth="yes"/>
      <point x="381" y="439"/>
      <point x="372" y="436"/>
      <point x="368" y="442" type="curve" smooth="yes"/>
      <point x="284" y="556" type="line"/>
    </contour>
  </outline>
</glyph>
<glyph name="bracketright" format="2">
  <advance width="323"/>
  <unicode hex="005D"/>
  <outline>
    <contour>
      <point x="331" y="612" type="line"/>
      <point x="375" y="537"/>
      <point x="441" y="491"/>
      <point x="512" y="481" type="curve" smooth="yes"/>
      <point x="518" y="480"/>
      <point x="521" y="473"/>
      <point x="518" y="468" type="curve" smooth="yes"/>
      <point x="133" y="-76" type="line" smooth="yes"/>
      <point x="131" y="-78"/>
      <point x="129" y="-79"/>
      <point x="126" y="-79" type="curve" smooth="yes"/>
      <point x="48" y="-79"/>
      <point x="-54" y="-76"/>
      <point x="-151" y="-72" type="curve"/>
      <point x="-151" y="-56" type="line"/>
      <point x="-54" y="-60"/>
      <point x="48" y="-63"/>
      <point x="126" y="-63" type="curve" smooth="yes"/>
      <point x="129" y="-63"/>
      <point x="118" y="-68"/>
      <point x="119" y="-66" type="curve" smooth="yes"/>
      <point x="504" y="478" type="line" smooth="yes"/>
      <point x="508" y="483"/>
      <point x="516" y="464"/>
      <point x="510" y="465" type="curve" smooth="yes"/>
      <point x="435" y="475"/>
      <point x="365" y="525"/>
      <point x="317" y="604" type="curve"/>
    </contour>
    <contour>
      <point x="118" y="-45" type="line"/>
      <point x="133" y="-66" type="line" smooth="yes"/>
      <point x="139" y="-75"/>
      <point x="125" y="-84"/>
      <point x="119" y="-75" type="curve" smooth="yes"/>
      <point x="47" y="40" type="line"/>
      <point x="61" y="48" type="line"/>
      <point x="133" y="-67" type="line" smooth="yes"/>
      <point x="138" y="-76"/>
      <point x="126" y="-84"/>
      <point x="119" y="-76" type="curve" smooth="yes"/>
      <point x="104" y="-55" type="line"/>
    </contour>
    <contour>
      <point x="379" y="508" type="line"/>
      <point x="513" y="481" type="line" smooth="yes"/>
      <point x="516" y="480"/>
      <point x="502" y="473"/>
      <point x="504" y="476" type="curve" smooth="yes"/>
      <point x="559" y="597" type="line"/>
      <point x="573" y="591" type="line"/>
      <point x="518" y="470" type="line" smooth="yes"/>
      <point x="517" y="466"/>
      <point x="513" y="464"/>
      <point x="509" y="465" type="curve" smooth="yes"/>
      <point x="375" y="492" type="line"/>
    </contour>
  </outline>
</glyph>
<glyph name="underscore" format="2">
  <advance width="435"/>
  <unicode hex="005F"/>
  <outline>
    <contour>
      <point x="308" y="-92" type="line"/>
      <point x="-26" y="-92" type="line"/>
      <point x="-26" y="-76" type="line"/>
      <point x="308" y="-76" type="line"/>
    </contour>
    <contour>
      <point x="-148" y="-50" type="line"/>
      <point x="-24" y="-76" type="line" smooth="yes"/>
      <point x="-18" y="-78"/>
      <point x="-30" y="-94"/>
      <point x="-33" y="-88" type="curve" smooth="yes"/>
      <point x="-95" y="27" type="line"/>
      <point x="-81" y="35" type="line"/>
      <point x="-19" y="-80" type="line" smooth="yes"/>
      <point x="-16" y="-86"/>
      <point x="-21" y="-93"/>
      <point x="-28" y="-92" type="curve" smooth="yes"/>
      <point x="-152" y="-66" type="line"/>
    </contour>
    <contour>
      <point x="341" y="29" type="line"/>
      <point x="316" y="-86" type="line" smooth="yes"/>
      <point x="315" y="-91"/>
      <point x="308" y="-94"/>
      <point x="303" y="-91" type="curve" smooth="yes"/>
      <point x="265" y="-65" type="line"/>
      <point x="275" y="-51" type="line"/>
      <point x="313" y="-77" type="line" smooth="yes"/>
      <point x="317" y="-81"/>
      <point x="299" y="-88"/>
      <point x="300" y="-82" type="curve" smooth="yes"/>
      <point x="325" y="33" type="line"/>
    </contour>
  </outline>
</glyph>
<glyph name="b" format="2">
  <advance width="378"/>
  <unicode hex="0062"/>
  <outline>
    <contour>
      <point x="87" y="-7" type="line" smooth="yes"/>
      <point x="81" y="-7"/>
      <point x="77" y="0"/>
      <point x="80" y="6" type="curve" smooth="yes"/>
      <point x="200" y="176" type="line" smooth="yes"/>
      <point x="200" y="176"/>
      <point x="200" y="176"/>
      <point x="200" y="176" type="curve" smooth="yes"/>
      <point x="312" y="334" type="line" smooth="yes"/>
      <point x="314" y="336"/>
      <point x="316" y="337"/>
      <point x="319" y="337" type="curve" smooth="yes"/>
      <point x="412" y="337" type="line"/>
      <point x="412" y="337"/>
      <point x="412" y="337"/>
      <point x="412" y="337" type="curve"/>
      <point x="478" y="337"/>
      <point x="496" y="299"/>
      <point x="460" y="247" type="curve" smooth="yes"/>
      <point x="459" y="247"/>
      <point x="460" y="247"/>
      <point x="460" y="247" type="curve" smooth="yes"/>
      <point x="423" y="195"/>
      <point x="358" y="163"/>
      <point x="295" y="163" type="curve" smooth="yes"/>
      <point x="284" y="163"/>
      <point x="284" y="179"/>
      <point x="295" y="179" type="curve" smooth="yes"/>
      <point x="371" y="179"/>
      <point x="396" y="139"/>
      <point x="356" y="80" type="curve" smooth="yes"/>
      <point x="356" y="80"/>
      <point x="356" y="80"/>
      <point x="356" y="80" type="curve" smooth="yes"/>
      <point x="319" y="28"/>
      <point x="252" y="-7"/>
      <point x="192" y="-7" type="curve"/>
      <point x="192" y="-7"/>
      <point x="192" y="-7"/>
      <point x="192" y="-7" type="curve"/>
    </contour>
    <contour>
      <point x="87" y="9" type="curve" smooth="yes"/>
      <point x="192" y="9" type="line"/>
      <point x="192" y="9"/>
      <point x="192" y="9"/>
      <point x="192" y="9" type="curve"/>
      <point x="246" y="9"/>
      <point x="309" y="42"/>
      <point x="342" y="90" type="curve" smooth="yes"/>
      <point x="342" y="90"/>
      <point x="342" y="90"/>
      <point x="342" y="90" type="curve" smooth="yes"/>
      <point x="376" y="137"/>
      <point x="357" y="163"/>
      <point x="295" y="163" type="curve" smooth="yes"/>
      <point x="284" y="163"/>
      <point x="284" y="179"/>
      <point x="295" y="179" type="curve" smooth="yes"/>
      <point x="352" y="179"/>
      <point x="413" y="209"/>
      <point x="446" y="257" type="curve" smooth="yes"/>
      <point x="446" y="257"/>
      <point x="446" y="257"/>
      <point x="446" y="257" type="curve" smooth="yes"/>
      <point x="476" y="297"/>
      <point x="464" y="321"/>
      <point x="412" y="321" type="curve"/>
      <point x="412" y="321"/>
      <point x="412" y="321"/>
      <point x="412" y="321" type="curve"/>
      <point x="319" y="321" type="line" smooth="yes"/>
      <point x="316" y="321"/>
      <point x="327" y="326"/>
      <point x="326" y="324" type="curve" smooth="yes"/>
      <point x="214" y="166" type="line" smooth="yes"/>
      <point x="214" y="166"/>
      <point x="214" y="166"/>
      <point x="214" y="166" type="curve" smooth="yes"/>
      <point x="94" y="-4" type="line" smooth="yes"/>
      <point x="90" y="-9"/>
      <point x="81" y="9"/>
    </contour>
    <contour>
      <point x="125" y="111" type="line"/>
      <point x="95" y="-1" type="line" smooth="yes"/>
      <point x="94" y="-5"/>
      <point x="90" y="-8"/>
      <point x="85" y="-7" type="curve" smooth="yes"/>
      <point x="-61" y="23" type="line"/>
      <point x="-57" y="39" type="line"/>
      <point x="89" y="9" type="line" smooth="yes"/>
      <point x="93" y="8"/>
      <point x="78" y="-1"/>
      <point x="79" y="3" type="curve" smooth="yes"/>
      <point x="109" y="115" type="line"/>
    </contour>
    <contour>
      <point x="237" y="446" type="line"/>
      <point x="325" y="334" type="line" smooth="yes"/>
      <point x="332" y="326"/>
      <point x="320" y="316"/>
      <point x="313" y="324" type="curve" smooth="yes"/>
      <point x="285" y="354" type="line"/>
      <point x="297" y="364" type="line"/>
      <point x="325" y="334" type="line" smooth="yes"/>
      <point x="332" y="327"/>
      <point x="319" y="316"/>
      <point x="313" y="324" type="curve" smooth="yes"/>
      <point x="225" y="436" type="line"/>
    </contour>
    <contour>
      <point x="241" y="278" type="line"/>
      <point x="215" y="169" type="line" smooth="yes"/>
      <point x="213" y="163"/>
      <point x="205" y="161"/>
      <point x="201" y="166" type="curve" smooth="yes"/>
      <point x="172" y="198" type="line"/>
      <point x="184" y="208" type="line"/>
      <point x="213" y="176" type="line" smooth="yes"/>
      <point x="217" y="172"/>
      <point x="198" y="167"/>
      <point x="199" y="173" type="curve" smooth="yes"/>
      <point x="225" y="282" type="line"/>
    </contour>
    <contour>
      <point x="207" y="179" type="line"/>
      <point x="242" y="179"/>
      <point x="271" y="179"/>
      <point x="295" y="179" type="curve" smooth="yes"/>
      <point x="296" y="179"/>
      <point x="292" y="179"/>
      <point x="293" y="179" type="curve" smooth="yes"/>
      <point x="323" y="186"/>
      <point x="343" y="207"/>
      <point x="350" y="247" type="curve"/>
      <point x="366" y="245" type="line"/>
      <point x="357" y="197"/>
      <point x="333" y="172"/>
      <point x="297" y="163" type="curve" smooth="yes"/>
      <point x="296" y="163"/>
      <point x="296" y="163"/>
      <point x="295" y="163" type="curve" smooth="yes"/>
      <point x="260" y="163"/>
      <point x="231" y="163"/>
      <point x="207" y="163" type="curve"/>
    </contour>
  </outline>
</glyph>
<glyph name="c" format="2">
  <advance width="383"/>
  <unicode hex="0063"/>
  <anchor x="121.0" y="29.0" name="below"/>
  <anchor x="414.0" y="443.0" name="above"/>
  <outline>
    <contour>
      <point x="506" y="313" type="line"/>
      <point x="491" y="321"/>
      <point x="472" y="328"/>
      <point x="448" y="328" type="curve"/>
      <point x="448" y="328"/>
      <point x="448" y="328"/>
      <point x="448" y="328" type="curve"/>
      <point x="357" y="328"/>
      <point x="249" y="260"/>
      <point x="179" y="159" type="curve" smooth="yes"/>
      <point x="179" y="159"/>
      <point x="179" y="159"/>
      <point x="179" y="159" type="curve" smooth="yes"/>
      <point x="110" y="64"/>
      <point x="121" y="3"/>
      <point x="208" y="3" type="curve"/>
      <point x="208" y="3"/>
      <point x="208" y="3"/>
      <point x="208" y="3" type="curve"/>
      <point x="233" y="3"/>
      <point x="260" y="9"/>
      <point x="288" y="18" type="curve"/>
      <point x="292" y="2" type="line"/>
      <point x="264" y="-7"/>
      <point x="235" y="-13"/>
      <point x="208" y="-13" type="curve"/>
      <point x="208" y="-13"/>
      <point x="208" y="-13"/>
      <point x="208" y="-13" type="curve"/>
      <point x="109" y="-13"/>
      <point x="88" y="60"/>
      <point x="165" y="169" type="curve" smooth="yes"/>
      <point x="166" y="169"/>
      <point x="165" y="169"/>
      <point x="165" y="169" type="curve" smooth="yes"/>
      <point x="239" y="274"/>
      <point x="353" y="344"/>
      <point x="448" y="344" type="curve"/>
      <point x="448" y="344"/>
      <point x="448" y="344"/>
      <point x="448" y="344" type="curve"/>
      <point x="476" y="344"/>
      <point x="497" y="337"/>
      <point x="514" y="327" type="curve"/>
    </contour>
    <contour>
      <point x="536" y="424" type="line"/>
      <point x="518" y="319" type="line" smooth="yes"/>
      <point x="517" y="315"/>
      <point x="515" y="313"/>
      <point x="511" y="312" type="curve" smooth="yes"/>
      <point x="448" y="303" type="line"/>
      <point x="446" y="319" type="line"/>
      <point x="509" y="328" type="line" smooth="yes"/>
      <point x="512" y="328"/>
      <point x="502" y="318"/>
      <point x="502" y="321" type="curve" smooth="yes"/>
      <point x="520" y="426" type="line"/>
    </contour>
    <contour>
      <point x="349" y="158" type="line"/>
      <point x="298" y="7" type="line" smooth="yes"/>
      <point x="296" y="2"/>
      <point x="288" y="0"/>
      <point x="284" y="5" type="curve" smooth="yes"/>
      <point x="254" y="41" type="line"/>
      <point x="266" y="51" type="line"/>
      <point x="296" y="15" type="line" smooth="yes"/>
      <point x="300" y="10"/>
      <point x="280" y="7"/>
      <point x="282" y="13" type="curve" smooth="yes"/>
      <point x="333" y="164" type="line"/>
    </contour>
  </outline>
</glyph>
<glyph name="d" format="2">
  <advance width="437"/>
  <unicode hex="0064"/>
  <outline>
    <contour>
      <point x="89" y="-5" type="line" smooth="yes"/>
      <point x="83" y="-5"/>
      <point x="79" y="2"/>
      <point x="82" y="8" type="curve" smooth="yes"/>
      <point x="312" y="333" type="line" smooth="yes"/>
      <point x="314" y="335"/>
      <point x="316" y="336"/>
      <point x="319" y="336" type="curve" smooth="yes"/>
      <point x="415" y="336" type="line"/>
      <point x="415" y="336"/>
      <point x="415" y="336"/>
      <point x="415" y="336" type="curve"/>
      <point x="518" y="336"/>
      <point x="546" y="266"/>
      <point x="472" y="161" type="curve" smooth="yes"/>
      <point x="471" y="161"/>
      <point x="472" y="161"/>
      <point x="472" y="161" type="curve" smooth="yes"/>
      <point x="400" y="59"/>
      <point x="284" y="-5"/>
      <point x="185" y="-5" type="curve"/>
      <point x="185" y="-5"/>
      <point x="185" y="-5"/>
      <point x="185" y="-5" type="curve"/>
    </contour>
    <contour>
      <point x="89" y="11" type="curve" smooth="yes"/>
      <point x="185" y="11" type="line"/>
      <point x="185" y="11"/>
      <point x="185" y="11"/>
      <point x="185" y="11" type="curve"/>
      <point x="280" y="11"/>
      <point x="390" y="73"/>
      <point x="458" y="171" type="curve" smooth="yes"/>
      <point x="458" y="171"/>
      <point x="458" y="171"/>
      <point x="458" y="171" type="curve" smooth="yes"/>
      <point x="524" y="262"/>
      <point x="506" y="320"/>
      <point x="415" y="320" type="curve"/>
      <point x="415" y="320"/>
      <point x="415" y="320"/>
      <point x="415" y="320" type="curve"/>
      <point x="319" y="320" type="line" smooth="yes"/>
      <point x="316" y="320"/>
      <point x="327" y="325"/>
      <point x="326" y="323" type="curve" smooth="yes"/>
      <point x="96" y="-2" type="line" smooth="yes"/>
      <point x="92" y="-7"/>
      <point x="83" y="11"/>
    </contour>
    <contour>
      <point x="127" y="113" type="line"/>
      <point x="97" y="1" type="line" smooth="yes"/>
      <point x="96" y="-3"/>
      <point x="92" y="-6"/>
      <point x="88" y="-5" type="curve" smooth="yes"/>
      <point x="-60" y="23" type="line"/>
      <point x="-58" y="39" type="line"/>
      <point x="90" y="11" type="line" smooth="yes"/>
      <point x="95" y="10"/>
      <point x="80" y="1"/>
      <point x="81" y="5" type="curve" smooth="yes"/>
      <point x="111" y="117" type="line"/>
    </contour>
    <contour>
      <point x="237" y="446" type="line"/>
      <point x="325" y="333" type="line" smooth="yes"/>
      <point x="331" y="325"/>
      <point x="321" y="315"/>
      <point x="313" y="322" type="curve" smooth="yes"/>
      <point x="283" y="351" type="line"/>
      <point x="295" y="363" type="line"/>
      <point x="325" y="334" type="line" smooth="yes"/>
      <point x="332" y="327"/>
      <point x="319" y="315"/>
      <point x="313" y="323" type="curve" smooth="yes"/>
      <point x="225" y="436" type="line"/>
    </contour>
  </outline>
</glyph>
<glyph name="f" format="2">
  <advance width="327"/>
  <unicode hex="0066"/>
  <outline>
    <contour>
      <point x="82" y="9" type="line"/>
      <point x="192" y="164" type="line" smooth="yes"/>
      <point x="192" y="164"/>
      <point x="192" y="164"/>
      <point x="192" y="164" type="curve" smooth="yes"/>
      <point x="311" y="333" type="line" smooth="yes"/>
      <point x="313" y="335"/>
      <point x="315" y="336"/>
      <point x="318" y="336" type="curve" smooth="yes"/>
      <point x="370" y="336"/>
      <point x="429" y="334"/>
      <point x="467" y="332" type="curve"/>
      <point x="467" y="316" type="line"/>
      <point x="429" y="318"/>
      <point x="370" y="320"/>
      <point x="318" y="320" type="curve" smooth="yes"/>
      <point x="315" y="320"/>
      <point x="326" y="326"/>
      <point x="325" y="323" type="curve" smooth="yes"/>
      <point x="206" y="154" type="line" smooth="yes"/>
      <point x="206" y="154"/>
      <point x="206" y="154"/>
      <point x="206" y="154" type="curve" smooth="yes"/>
      <point x="96" y="-1" type="line"/>
    </contour>
    <contour>
      <point x="332" y="151" type="line"/>
      <point x="199" y="151" type="line"/>
      <point x="199" y="167" type="line"/>
      <point x="332" y="167" type="line"/>
    </contour>
    <contour>
      <point x="502" y="439" type="line"/>
      <point x="475" y="322" type="line" smooth="yes"/>
      <point x="474" y="318"/>
      <point x="470" y="315"/>
      <point x="465" y="316" type="curve" smooth="yes"/>
      <point x="417" y="327" type="line"/>
      <point x="421" y="343" type="line"/>
      <point x="469" y="332" type="line" smooth="yes"/>
      <point x="473" y="331"/>
      <point x="458" y="321"/>
      <point x="459" y="326" type="curve" smooth="yes"/>
      <point x="486" y="443" type="line"/>
    </contour>
    <contour>
      <point x="373" y="283" type="line"/>
      <point x="340" y="157" type="line" smooth="yes"/>
      <point x="339" y="153"/>
      <point x="334" y="150"/>
      <point x="330" y="151" type="curve" smooth="yes"/>
      <point x="284" y="166" type="line"/>
      <point x="288" y="182" type="line"/>
      <point x="334" y="167" type="line" smooth="yes"/>
      <point x="339" y="165"/>
      <point x="323" y="157"/>
      <point x="324" y="161" type="curve" smooth="yes"/>
      <point x="357" y="287" type="line"/>
    </contour>
    <contour>
      <point x="236" y="446" type="line"/>
      <point x="324" y="333" type="line" smooth="yes"/>
      <point x="330" y="325"/>
      <point x="319" y="315"/>
      <point x="312" y="322" type="curve" smooth="yes"/>
      <point x="283" y="351" type="line"/>
      <point x="295" y="363" type="line"/>
      <point x="324" y="334" type="line" smooth="yes"/>
      <point x="331" y="327"/>
      <point x="318" y="315"/>
      <point x="312" y="323" type="curve" smooth="yes"/>
      <point x="224" y="436" type="line"/>
    </contour>
    <contour>
      <point x="233" y="268" type="line"/>
      <point x="207" y="157" type="line" smooth="yes"/>
      <point x="205" y="151"/>
      <point x="198" y="149"/>
      <point x="193" y="153" type="curve" smooth="yes"/>
      <point x="162" y="183" type="line"/>
      <point x="174" y="195" type="line"/>
      <point x="205" y="165" type="line" smooth="yes"/>
      <point x="209" y="160"/>
      <point x="190" y="155"/>
      <point x="191" y="161" type="curve" smooth="yes"/>
      <point x="217" y="272" type="line"/>
    </contour>
    <contour>
      <point x="82" y="35" type="line"/>
      <point x="96" y="8" type="line" smooth="yes"/>
      <point x="99" y="2"/>
      <point x="94" y="-5"/>
      <point x="88" y="-4" type="curve" smooth="yes"/>
      <point x="-61" y="23" type="line"/>
      <point x="-59" y="39" type="line"/>
      <point x="90" y="12" type="line" smooth="yes"/>
      <point x="97" y="11"/>
      <point x="85" y="-6"/>
      <point x="82" y="0" type="curve" smooth="yes"/>
      <point x="68" y="27" type="line"/>
    </contour>
  </outline>
</glyph>
<glyph name="k" format="2">
  <advance width="423"/>
  <unicode hex="006B"/>
  <anchor x="125.0" y="31.0" name="below"/>
  <anchor x="415.0" y="441.0" name="above"/>
  <outline>
    <contour>
      <point x="323" y="321" type="line"/>
      <point x="214" y="167" type="line" smooth="yes"/>
      <point x="214" y="167"/>
      <point x="214" y="167"/>
      <point x="214" y="167" type="curve" smooth="yes"/>
      <point x="95" y="-1" type="line"/>
      <point x="81" y="9" type="line"/>
      <point x="200" y="177" type="line" smooth="yes"/>
      <point x="200" y="177"/>
      <point x="200" y="177"/>
      <point x="200" y="177" type="curve" smooth="yes"/>
      <point x="309" y="331" type="line"/>
    </contour>
    <contour>
      <point x="295" y="3" type="line"/>
      <point x="286" y="139" type="line" smooth="yes"/>
      <point x="286" y="140"/>
      <point x="286" y="140"/>
      <point x="286" y="140" type="curve" smooth="yes"/>
      <point x="285" y="167"/>
      <point x="272" y="166"/>
      <point x="207" y="164" type="curve" smooth="yes"/>
      <point x="197" y="164"/>
      <point x="196" y="180"/>
      <point x="207" y="180" type="curve" smooth="yes"/>
      <point x="280" y="182"/>
      <point x="291" y="186"/>
      <point x="343" y="220" type="curve" smooth="yes"/>
      <point x="343" y="220"/>
      <point x="343" y="220"/>
      <point x="343" y="220" type="curve" smooth="yes"/>
      <point x="523" y="333" type="line"/>
      <point x="531" y="319" type="line"/>
      <point x="351" y="206" type="line" smooth="yes"/>
      <point x="351" y="206"/>
      <point x="351" y="206"/>
      <point x="351" y="206" type="curve" smooth="yes"/>
      <point x="297" y="172"/>
      <point x="284" y="166"/>
      <point x="207" y="164" type="curve" smooth="yes"/>
      <point x="197" y="164"/>
      <point x="196" y="180"/>
      <point x="207" y="180" type="curve" smooth="yes"/>
      <point x="291" y="182"/>
      <point x="301" y="175"/>
      <point x="302" y="140" type="curve" smooth="yes"/>
      <point x="302" y="140"/>
      <point x="302" y="141"/>
      <point x="302" y="141" type="curve" smooth="yes"/>
      <point x="311" y="5" type="line"/>
    </contour>
    <contour>
      <point x="237" y="273" type="line"/>
      <point x="215" y="170" type="line" smooth="yes"/>
      <point x="213" y="163"/>
      <point x="203" y="162"/>
      <point x="200" y="168" type="curve" smooth="yes"/>
      <point x="178" y="209" type="line"/>
      <point x="192" y="217" type="line"/>
      <point x="214" y="176" type="line" smooth="yes"/>
      <point x="218" y="169"/>
      <point x="198" y="166"/>
      <point x="199" y="174" type="curve" smooth="yes"/>
      <point x="221" y="277" type="line"/>
    </contour>
    <contour>
      <point x="82" y="34" type="line"/>
      <point x="95" y="7" type="line" smooth="yes"/>
      <point x="98" y="2"/>
      <point x="93" y="-5"/>
      <point x="87" y="-4" type="curve" smooth="yes"/>
      <point x="-61" y="23" type="line"/>
      <point x="-59" y="39" type="line"/>
      <point x="89" y="12" type="line" smooth="yes"/>
      <point x="96" y="11"/>
      <point x="84" y="-5"/>
      <point x="81" y="1" type="curve" smooth="yes"/>
      <point x="68" y="28" type="line"/>
    </contour>
    <contour>
      <point x="236" y="446" type="line"/>
      <point x="322" y="331" type="line" smooth="yes"/>
      <point x="326" y="326"/>
      <point x="306" y="323"/>
      <point x="309" y="329" type="curve" smooth="yes"/>
      <point x="358" y="444" type="line"/>
      <point x="372" y="438" type="line"/>
      <point x="323" y="323" type="line" smooth="yes"/>
      <point x="321" y="317"/>
      <point x="313" y="316"/>
      <point x="310" y="321" type="curve" smooth="yes"/>
      <point x="224" y="436" type="line"/>
    </contour>
    <contour>
      <point x="340" y="25" type="line"/>
      <point x="308" y="-2" type="line" smooth="yes"/>
      <point x="306" y="-4"/>
      <point x="304" y="-4"/>
      <point x="301" y="-4" type="curve" smooth="yes"/>
      <point x="173" y="23" type="line"/>
      <point x="177" y="39" type="line"/>
      <point x="305" y="12" type="line" smooth="yes"/>
      <point x="307" y="11"/>
      <point x="296" y="9"/>
      <point x="298" y="10" type="curve" smooth="yes"/>
      <point x="330" y="37" type="line"/>
    </contour>
    <contour>
      <point x="480" y="444" type="line"/>
      <point x="534" y="329" type="line" smooth="yes"/>
      <point x="537" y="324"/>
      <point x="517" y="326"/>
      <point x="521" y="331" type="curve" smooth="yes"/>
      <point x="614" y="446" type="line"/>
      <point x="626" y="436" type="line"/>
      <point x="533" y="321" type="line" smooth="yes"/>
      <point x="530" y="316"/>
      <point x="522" y="317"/>
      <point x="520" y="323" type="curve" smooth="yes"/>
      <point x="466" y="438" type="line"/>
    </contour>
    <contour>
      <point x="309" y="248" type="line"/>
      <point x="294" y="191"/>
      <point x="257" y="165"/>
      <point x="207" y="164" type="curve"/>
      <point x="207" y="180" type="line"/>
      <point x="251" y="181"/>
      <point x="280" y="203"/>
      <point x="293" y="252" type="curve"/>
    </contour>
  </outline>
</glyph>
<glyph name="m" format="2">
  <advance width="556"/>
  <unicode hex="006D"/>
  <outline>
    <contour>
      <point x="435" y="9" type="line"/>
      <point x="664" y="332" type="line" smooth="yes"/>
      <point x="668" y="337"/>
      <point x="677" y="319"/>
      <point x="671" y="319" type="curve" smooth="yes"/>
      <point x="608" y="319" type="line" smooth="yes"/>
      <point x="606" y="319"/>
      <point x="615" y="323"/>
      <point x="613" y="321" type="curve" smooth="yes"/>
      <point x="268" y="-1" type="line" smooth="yes"/>
      <point x="262" y="-7"/>
      <point x="253" y="0"/>
      <point x="255" y="8" type="curve" smooth="yes"/>
      <point x="369" y="330" type="line" smooth="yes"/>
      <point x="371" y="335"/>
      <point x="383" y="319"/>
      <point x="377" y="319" type="curve" smooth="yes"/>
      <point x="312" y="319" type="line" smooth="yes"/>
      <point x="309" y="319"/>
      <point x="320" y="325"/>
      <point x="319" y="322" type="curve" smooth="yes"/>
      <point x="91" y="-1" type="line"/>
      <point x="77" y="9" type="line"/>
      <point x="305" y="332" type="line" smooth="yes"/>
      <point x="307" y="334"/>
      <point x="309" y="335"/>
      <point x="312" y="335" type="curve" smooth="yes"/>
      <point x="377" y="335" type="line" smooth="yes"/>
      <point x="383" y="335"/>
      <point x="386" y="330"/>
      <point x="385" y="324" type="curve" smooth="yes"/>
      <point x="271" y="2" type="line" smooth="yes"/>
      <point x="268" y="-6"/>
      <point x="251" y="5"/>
      <point x="258" y="11" type="curve" smooth="yes"/>
      <point x="603" y="333" type="line" smooth="yes"/>
      <point x="604" y="334"/>
      <point x="606" y="335"/>
      <point x="608" y="335" type="curve" smooth="yes"/>
      <point x="671" y="335" type="line" smooth="yes"/>
      <point x="677" y="335"/>
      <point x="681" y="328"/>
      <point x="678" y="322" type="curve" smooth="yes"/>
      <point x="449" y="-1" type="line"/>
    </contour>
    <contour>
      <point x="73" y="35" type="line"/>
      <point x="91" y="8" type="line" smooth="yes"/>
      <point x="95" y="3"/>
      <point x="89" y="-5"/>
      <point x="83" y="-4" type="curve" smooth="yes"/>
      <point x="-61" y="23" type="line"/>
      <point x="-59" y="39" type="line"/>
      <point x="85" y="12" type="line" smooth="yes"/>
      <point x="92" y="11"/>
      <point x="81" y="-6"/>
      <point x="77" y="0" type="curve" smooth="yes"/>
      <point x="59" y="27" type="line"/>
    </contour>
    <contour>
      <point x="433" y="35" type="line"/>
      <point x="449" y="8" type="line" smooth="yes"/>
      <point x="452" y="2"/>
      <point x="447" y="-5"/>
      <point x="441" y="-4" type="curve" smooth="yes"/>
      <point x="296" y="23" type="line"/>
      <point x="298" y="39" type="line"/>
      <point x="443" y="12" type="line" smooth="yes"/>
      <point x="450" y="11"/>
      <point x="439" y="-6"/>
      <point x="435" y="0" type="curve" smooth="yes"/>
      <point x="419" y="27" type="line"/>
    </contour>
    <contour>
      <point x="236" y="446" type="line"/>
      <point x="318" y="332" type="line" smooth="yes"/>
      <point x="322" y="327"/>
      <point x="319" y="320"/>
      <point x="313" y="319" type="curve" smooth="yes"/>
      <point x="254" y="314" type="line" smooth="yes"/>
      <point x="243" y="313"/>
      <point x="242" y="330"/>
      <point x="253" y="330" type="curve" smooth="yes"/>
      <point x="377" y="335" type="line" smooth="yes"/>
      <point x="380" y="335"/>
      <point x="368" y="325"/>
      <point x="369" y="329" type="curve" smooth="yes"/>
      <point x="396" y="443" type="line"/>
      <point x="412" y="439" type="line"/>
      <point x="385" y="325" type="line" smooth="yes"/>
      <point x="384" y="322"/>
      <point x="381" y="319"/>
      <point x="377" y="319" type="curve" smooth="yes"/>
      <point x="253" y="314" type="line" smooth="yes"/>
      <point x="243" y="314"/>
      <point x="242" y="329"/>
      <point x="252" y="330" type="curve" smooth="yes"/>
      <point x="311" y="335" type="line" smooth="yes"/>
      <point x="318" y="335"/>
      <point x="309" y="317"/>
      <point x="306" y="322" type="curve" smooth="yes"/>
      <point x="224" y="436" type="line"/>
    </contour>
    <contour>
      <point x="555" y="445" type="line"/>
      <point x="615" y="331" type="line" smooth="yes"/>
      <point x="618" y="325"/>
      <point x="614" y="319"/>
      <point x="608" y="319" type="curve" smooth="yes"/>
      <point x="524" y="318" type="line" smooth="yes"/>
      <point x="513" y="318"/>
      <point x="513" y="334"/>
      <point x="524" y="334" type="curve" smooth="yes"/>
      <point x="671" y="335" type="line" smooth="yes"/>
      <point x="674" y="335"/>
      <point x="662" y="327"/>
      <point x="664" y="330" type="curve" smooth="yes"/>
      <point x="709" y="444" type="line"/>
      <point x="723" y="438" type="line"/>
      <point x="678" y="324" type="line" smooth="yes"/>
      <point x="677" y="321"/>
      <point x="674" y="319"/>
      <point x="671" y="319" type="curve" smooth="yes"/>
      <point x="524" y="318" type="line" smooth="yes"/>
      <point x="513" y="318"/>
      <point x="513" y="334"/>
      <point x="524" y="334" type="curve" smooth="yes"/>
      <point x="608" y="335" type="line" smooth="yes"/>
      <point x="614" y="335"/>
      <point x="604" y="318"/>
      <point x="601" y="323" type="curve" smooth="yes"/>
      <point x="541" y="437" type="line"/>
    </contour>
    <contour>
      <point x="150" y="39" type="line"/>
      <point x="265" y="13" type="line" smooth="yes"/>
      <point x="274" y="11"/>
      <point x="268" y="-6"/>
      <point x="260" y="-2" type="curve" smooth="yes"/>
      <point x="205" y="24" type="line"/>
      <point x="211" y="38" type="line"/>
      <point x="266" y="12" type="line" smooth="yes"/>
      <point x="275" y="8"/>
      <point x="271" y="-5"/>
      <point x="261" y="-3" type="curve" smooth="yes"/>
      <point x="146" y="23" type="line"/>
    </contour>
    <contour>
      <point x="255" y="7" type="line"/>
      <point x="291" y="195" type="line"/>
      <point x="307" y="191" type="line"/>
      <point x="271" y="3" type="line"/>
    </contour>
  </outline>
</glyph>
<glyph name="n" format="2">
  <advance width="445"/>
  <unicode hex="006E"/>
  <anchor x="97.0" y="73.0" name="below"/>
  <anchor x="387.0" y="483.0" name="above"/>
  <outline>
    <contour>
      <point x="78" y="9" type="line"/>
      <point x="307" y="332" type="line" smooth="yes"/>
      <point x="312" y="338"/>
      <point x="322" y="335"/>
      <point x="322" y="327" type="curve" smooth="yes"/>
      <point x="338" y="3" type="line" smooth="yes"/>
      <point x="338" y="-4"/>
      <point x="319" y="1"/>
      <point x="323" y="8" type="curve" smooth="yes"/>
      <point x="552" y="331" type="line"/>
      <point x="566" y="321" type="line"/>
      <point x="337" y="-2" type="line" smooth="yes"/>
      <point x="332" y="-8"/>
      <point x="322" y="-5"/>
      <point x="322" y="3" type="curve" smooth="yes"/>
      <point x="306" y="327" type="line" smooth="yes"/>
      <point x="306" y="334"/>
      <point x="325" y="329"/>
      <point x="321" y="322" type="curve" smooth="yes"/>
      <point x="92" y="-1" type="line"/>
    </contour>
    <contour>
      <point x="75" y="35" type="line"/>
      <point x="92" y="8" type="line" smooth="yes"/>
      <point x="95" y="2"/>
      <point x="90" y="-5"/>
      <point x="84" y="-4" type="curve" smooth="yes"/>
      <point x="-61" y="23" type="line"/>
      <point x="-59" y="39" type="line"/>
      <point x="86" y="12" type="line" smooth="yes"/>
      <point x="93" y="11"/>
      <point x="82" y="-6"/>
      <point x="78" y="0" type="curve" smooth="yes"/>
      <point x="61" y="27" type="line"/>
    </contour>
    <contour>
      <point x="484" y="446" type="line"/>
      <point x="566" y="331" type="line" smooth="yes"/>
      <point x="569" y="325"/>
      <point x="549" y="323"/>
      <point x="552" y="329" type="curve" smooth="yes"/>
      <point x="598" y="444" type="line"/>
      <point x="612" y="438" type="line"/>
      <point x="566" y="323" type="line" smooth="yes"/>
      <point x="564" y="317"/>
      <point x="556" y="316"/>
      <point x="552" y="321" type="curve" smooth="yes"/>
      <point x="470" y="436" type="line"/>
    </contour>
    <contour>
      <point x="236" y="446" type="line"/>
      <point x="320" y="332" type="line" smooth="yes"/>
      <point x="325" y="326"/>
      <point x="306" y="320"/>
      <point x="306" y="327" type="curve" smooth="yes"/>
      <point x="312" y="441" type="line"/>
      <point x="328" y="441" type="line"/>
      <point x="322" y="327" type="line" smooth="yes"/>
      <point x="322" y="319"/>
      <point x="312" y="316"/>
      <point x="308" y="322" type="curve" smooth="yes"/>
      <point x="224" y="436" type="line"/>
    </contour>
    <contour>
      <point x="313" y="36" type="line"/>
      <point x="336" y="8" type="line" smooth="yes"/>
      <point x="341" y="2"/>
      <point x="336" y="-7"/>
      <point x="328" y="-5" type="curve" smooth="yes"/>
      <point x="216" y="23" type="line"/>
      <point x="220" y="39" type="line"/>
      <point x="332" y="11" type="line" smooth="yes"/>
      <point x="339" y="9"/>
      <point x="329" y="-8"/>
      <point x="324" y="-2" type="curve" smooth="yes"/>
      <point x="301" y="26" type="line"/>
    </contour>
    <contour>
      <point x="317" y="319" type="line"/>
      <point x="211" y="247" type="line"/>
      <point x="203" y="261" type="line"/>
      <point x="309" y="333" type="line"/>
    </contour>
    <contour>
      <point x="342" y="213" type="line"/>
      <point x="338" y="3" type="line"/>
      <point x="322" y="3" type="line"/>
      <point x="326" y="213" type="line"/>
    </contour>
  </outline>
</glyph>
<glyph name="q" format="2">
  <advance width="452"/>
  <unicode hex="0071"/>
  <outline>
    <contour>
      <point x="205" y="2" type="curve"/>
      <point x="205" y="2"/>
      <point x="205" y="2"/>
      <point x="205" y="2" type="curve"/>
      <point x="232" y="2"/>
      <point x="260" y="9"/>
      <point x="289" y="20" type="curve" smooth="yes"/>
      <point x="289" y="20"/>
      <point x="289" y="19"/>
      <point x="289" y="19" type="curve" smooth="yes"/>
      <point x="355" y="46"/>
      <point x="423" y="100"/>
      <point x="473" y="171" type="curve" smooth="yes"/>
      <point x="473" y="171"/>
      <point x="473" y="171"/>
      <point x="473" y="171" type="curve" smooth="yes"/>
      <point x="541" y="266"/>
      <point x="531" y="328"/>
      <point x="447" y="328" type="curve"/>
      <point x="447" y="328"/>
      <point x="447" y="328"/>
      <point x="447" y="328" type="curve"/>
      <point x="358" y="328"/>
      <point x="251" y="261"/>
      <point x="180" y="161" type="curve" smooth="yes"/>
      <point x="179" y="161"/>
      <point x="180" y="161"/>
      <point x="180" y="161" type="curve" smooth="yes"/>
      <point x="112" y="65"/>
      <point x="120" y="2"/>
    </contour>
    <contour>
      <point x="205" y="-14" type="curve"/>
      <point x="108" y="-14"/>
      <point x="90" y="61"/>
      <point x="166" y="171" type="curve" smooth="yes"/>
      <point x="166" y="171"/>
      <point x="166" y="171"/>
      <point x="166" y="171" type="curve" smooth="yes"/>
      <point x="241" y="275"/>
      <point x="354" y="344"/>
      <point x="447" y="344" type="curve"/>
      <point x="447" y="344"/>
      <point x="447" y="344"/>
      <point x="447" y="344" type="curve"/>
      <point x="543" y="344"/>
      <point x="563" y="270"/>
      <point x="487" y="161" type="curve" smooth="yes"/>
      <point x="487" y="161"/>
      <point x="487" y="161"/>
      <point x="487" y="161" type="curve" smooth="yes"/>
      <point x="435" y="88"/>
      <point x="363" y="32"/>
      <point x="295" y="5" type="curve" smooth="yes"/>
      <point x="295" y="5"/>
      <point x="295" y="5"/>
      <point x="295" y="4" type="curve" smooth="yes"/>
      <point x="264" y="-7"/>
      <point x="234" y="-14"/>
      <point x="205" y="-14" type="curve"/>
      <point x="205" y="-14"/>
      <point x="205" y="-14"/>
    </contour>
    <contour>
      <point x="388" y="-19" type="line"/>
      <point x="310" y="-73"/>
      <point x="257" y="-70"/>
      <point x="284" y="14" type="curve"/>
      <point x="300" y="10" type="line"/>
      <point x="278" y="-58"/>
      <point x="317" y="-49"/>
      <point x="378" y="-5" type="curve"/>
    </contour>
    <contour>
      <point x="182" y="36" type="line"/>
      <point x="293" y="20" type="line" smooth="yes"/>
      <point x="298" y="19"/>
      <point x="283" y="9"/>
      <point x="284" y="13" type="curve" smooth="yes"/>
      <point x="293" y="76" type="line"/>
      <point x="309" y="74" type="line"/>
      <point x="300" y="11" type="line" smooth="yes"/>
      <point x="299" y="6"/>
      <point x="295" y="3"/>
      <point x="291" y="4" type="curve" smooth="yes"/>
      <point x="180" y="20" type="line"/>
    </contour>
  </outline>
</glyph>
<glyph name="r" format="2">
  <advance width="406"/>
  <unicode hex="0072"/>
  <anchor x="95.0" y="73.0" name="below"/>
  <anchor x="358.0" y="483.0" name="above"/>
  <outline>
    <contour>
      <point x="82" y="9" type="line"/>
      <point x="181" y="149" type="line" smooth="yes"/>
      <point x="181" y="149"/>
      <point x="181" y="149"/>
      <point x="181" y="149" type="curve" smooth="yes"/>
      <point x="311" y="333" type="line" smooth="yes"/>
      <point x="313" y="335"/>
      <point x="315" y="336"/>
      <point x="318" y="336" type="curve" smooth="yes"/>
      <point x="411" y="336" type="line"/>
      <point x="411" y="336"/>
      <point x="411" y="336"/>
      <point x="411" y="336" type="curve"/>
      <point x="488" y="336"/>
      <point x="507" y="292"/>
      <point x="465" y="231" type="curve" smooth="yes"/>
      <point x="465" y="231"/>
      <point x="465" y="231"/>
      <point x="465" y="231" type="curve" smooth="yes"/>
      <point x="429" y="182"/>
      <point x="370" y="144"/>
      <point x="313" y="136" type="curve" smooth="yes"/>
      <point x="313" y="136"/>
      <point x="312" y="136"/>
      <point x="312" y="136" type="curve" smooth="yes"/>
      <point x="188" y="136" type="line"/>
      <point x="188" y="152" type="line"/>
      <point x="312" y="152" type="line" smooth="yes"/>
      <point x="312" y="152"/>
      <point x="310" y="152"/>
      <point x="311" y="152" type="curve" smooth="yes"/>
      <point x="364" y="160"/>
      <point x="419" y="194"/>
      <point x="451" y="241" type="curve" smooth="yes"/>
      <point x="451" y="241"/>
      <point x="451" y="241"/>
      <point x="451" y="241" type="curve" smooth="yes"/>
      <point x="487" y="290"/>
      <point x="474" y="320"/>
      <point x="411" y="320" type="curve"/>
      <point x="411" y="320"/>
      <point x="411" y="320"/>
      <point x="411" y="320" type="curve"/>
      <point x="318" y="320" type="line" smooth="yes"/>
      <point x="315" y="320"/>
      <point x="326" y="326"/>
      <point x="325" y="323" type="curve" smooth="yes"/>
      <point x="195" y="139" type="line" smooth="yes"/>
      <point x="195" y="139"/>
      <point x="195" y="139"/>
      <point x="195" y="139" type="curve" smooth="yes"/>
      <point x="96" y="-1" type="line"/>
    </contour>
    <contour>
      <point x="320" y="144" type="line"/>
      <point x="312" y="4" type="line"/>
      <point x="296" y="4" type="line"/>
      <point x="304" y="144" type="line"/>
    </contour>
    <contour>
      <point x="82" y="35" type="line"/>
      <point x="96" y="8" type="line" smooth="yes"/>
      <point x="99" y="2"/>
      <point x="94" y="-5"/>
      <point x="88" y="-4" type="curve" smooth="yes"/>
      <point x="-61" y="23" type="line"/>
      <point x="-59" y="39" type="line"/>
      <point x="90" y="12" type="line" smooth="yes"/>
      <point x="97" y="11"/>
      <point x="85" y="-6"/>
      <point x="82" y="0" type="curve" smooth="yes"/>
      <point x="68" y="27" type="line"/>
    </contour>
    <contour>
      <point x="335" y="26" type="line"/>
      <point x="310" y="-1" type="line" smooth="yes"/>
      <point x="308" y="-3"/>
      <point x="305" y="-4"/>
      <point x="302" y="-4" type="curve" smooth="yes"/>
      <point x="171" y="23" type="line"/>
      <point x="175" y="39" type="line"/>
      <point x="306" y="12" type="line" smooth="yes"/>
      <point x="308" y="11"/>
      <point x="296" y="7"/>
      <point x="298" y="9" type="curve" smooth="yes"/>
      <point x="323" y="36" type="line"/>
    </contour>
    <contour>
      <point x="236" y="446" type="line"/>
      <point x="324" y="333" type="line" smooth="yes"/>
      <point x="330" y="325"/>
      <point x="319" y="315"/>
      <point x="312" y="322" type="curve" smooth="yes"/>
      <point x="283" y="351" type="line"/>
      <point x="295" y="363" type="line"/>
      <point x="324" y="334" type="line" smooth="yes"/>
      <point x="331" y="327"/>
      <point x="318" y="315"/>
      <point x="312" y="323" type="curve" smooth="yes"/>
      <point x="224" y="436" type="line"/>
    </contour>
    <contour>
      <point x="223" y="253" type="line"/>
      <point x="196" y="142" type="line" smooth="yes"/>
      <point x="194" y="136"/>
      <point x="187" y="134"/>
      <point x="182" y="138" type="curve" smooth="yes"/>
      <point x="153" y="168" type="line"/>
      <point x="165" y="180" type="line"/>
      <point x="194" y="150" type="line" smooth="yes"/>
      <point x="198" y="145"/>
      <point x="179" y="140"/>
      <point x="180" y="146" type="curve" smooth="yes"/>
      <point x="207" y="257" type="line"/>
    </contour>
    <contour>
      <point x="208" y="182" type="line"/>
      <point x="314" y="152" type="line" smooth="yes"/>
      <point x="319" y="150"/>
      <point x="304" y="139"/>
      <point x="304" y="144" type="curve" smooth="yes"/>
      <point x="307" y="196" type="line"/>
      <point x="323" y="196" type="line"/>
      <point x="320" y="144" type="line" smooth="yes"/>
      <point x="320" y="138"/>
      <point x="315" y="135"/>
      <point x="310" y="136" type="curve" smooth="yes"/>
      <point x="204" y="166" type="line"/>
    </contour>
  </outline>
</glyph>
<glyph name="t" format="2">
  <advance width="363"/>
  <unicode hex="0074"/>
  <outline>
    <contour>
      <point x="516" y="316" type="line"/>
      <point x="491" y="318"/>
      <point x="453" y="320"/>
      <point x="396" y="320" type="curve"/>
      <point x="396" y="320"/>
      <point x="396" y="320"/>
      <point x="396" y="320" type="curve"/>
      <point x="340" y="320"/>
      <point x="300" y="318"/>
      <point x="271" y="316" type="curve"/>
      <point x="269" y="332" type="line"/>
      <point x="300" y="334"/>
      <point x="340" y="336"/>
      <point x="396" y="336" type="curve"/>
      <point x="396" y="336"/>
      <point x="396" y="336"/>
      <point x="396" y="336" type="curve"/>
      <point x="453" y="336"/>
      <point x="491" y="334"/>
      <point x="518" y="332" type="curve"/>
    </contour>
    <contour>
      <point x="403" y="323" type="line"/>
      <point x="174" y="-1" type="line"/>
      <point x="160" y="9" type="line"/>
      <point x="389" y="333" type="line"/>
    </contour>
    <contour>
      <point x="161" y="34" type="line"/>
      <point x="174" y="7" type="line" smooth="yes"/>
      <point x="177" y="2"/>
      <point x="172" y="-5"/>
      <point x="166" y="-4" type="curve" smooth="yes"/>
      <point x="18" y="23" type="line"/>
      <point x="20" y="39" type="line"/>
      <point x="168" y="12" type="line" smooth="yes"/>
      <point x="175" y="11"/>
      <point x="163" y="-5"/>
      <point x="160" y="1" type="curve" smooth="yes"/>
      <point x="147" y="28" type="line"/>
    </contour>
    <contour>
      <point x="552" y="439" type="line"/>
      <point x="525" y="322" type="line" smooth="yes"/>
      <point x="524" y="318"/>
      <point x="520" y="315"/>
      <point x="515" y="316" type="curve" smooth="yes"/>
      <point x="467" y="327" type="line"/>
      <point x="471" y="343" type="line"/>
      <point x="519" y="332" type="line" smooth="yes"/>
      <point x="523" y="331"/>
      <point x="508" y="321"/>
      <point x="509" y="326" type="curve" smooth="yes"/>
      <point x="536" y="443" type="line"/>
    </contour>
    <contour>
      <point x="135" y="343" type="line"/>
      <point x="271" y="332" type="line" smooth="yes"/>
      <point x="277" y="331"/>
      <point x="266" y="315"/>
      <point x="263" y="320" type="curve" smooth="yes"/>
      <point x="202" y="437" type="line"/>
      <point x="216" y="445" type="line"/>
      <point x="277" y="328" type="line" smooth="yes"/>
      <point x="280" y="322"/>
      <point x="276" y="316"/>
      <point x="269" y="316" type="curve" smooth="yes"/>
      <point x="133" y="327" type="line"/>
    </contour>
    <contour>
      <point x="267" y="363" type="line"/>
      <point x="398" y="336" type="line" smooth="yes"/>
      <point x="406" y="334"/>
      <point x="396" y="317"/>
      <point x="391" y="322" type="curve" smooth="yes"/>
      <point x="362" y="349" type="line"/>
      <point x="372" y="361" type="line"/>
      <point x="401" y="334" type="line" smooth="yes"/>
      <point x="407" y="328"/>
      <point x="402" y="319"/>
      <point x="394" y="320" type="curve" smooth="yes"/>
      <point x="263" y="347" type="line"/>
    </contour>
  </outline>
</glyph>
<glyph name="u" format="2">
  <advance width="438"/>
  <unicode hex="0075"/>
  <anchor x="456.0" y="483.0" name="horn"/>
  <anchor x="92.0" y="70.0" name="below"/>
  <anchor x="384.0" y="483.0" name="above"/>
  <outline>
    <contour>
      <point x="563" y="321" type="line"/>
      <point x="411" y="106" type="line" smooth="yes"/>
      <point x="411" y="106"/>
      <point x="411" y="106"/>
      <point x="411" y="106" type="curve" smooth="yes"/>
      <point x="358" y="32"/>
      <point x="274" y="-14"/>
      <point x="198" y="-14" type="curve"/>
      <point x="198" y="-14"/>
      <point x="198" y="-14"/>
      <point x="198" y="-14" type="curve"/>
      <point x="118" y="-14"/>
      <point x="96" y="38"/>
      <point x="151" y="116" type="curve" smooth="yes"/>
      <point x="151" y="116"/>
      <point x="151" y="116"/>
      <point x="151" y="116" type="curve" smooth="yes"/>
      <point x="303" y="331" type="line"/>
      <point x="317" y="321" type="line"/>
      <point x="165" y="106" type="line" smooth="yes"/>
      <point x="165" y="106"/>
      <point x="165" y="106"/>
      <point x="165" y="106" type="curve" smooth="yes"/>
      <point x="118" y="40"/>
      <point x="130" y="2"/>
      <point x="198" y="2" type="curve"/>
      <point x="198" y="2"/>
      <point x="198" y="2"/>
      <point x="198" y="2" type="curve"/>
      <point x="270" y="2"/>
      <point x="348" y="46"/>
      <point x="397" y="116" type="curve" smooth="yes"/>
      <point x="397" y="116"/>
      <point x="397" y="116"/>
      <point x="397" y="116" type="curve" smooth="yes"/>
      <point x="549" y="331" type="line"/>
    </contour>
    <contour>
      <point x="229" y="446" type="line"/>
      <point x="316" y="331" type="line" smooth="yes"/>
      <point x="320" y="326"/>
      <point x="300" y="323"/>
      <point x="303" y="329" type="curve" smooth="yes"/>
      <point x="351" y="444" type="line"/>
      <point x="365" y="438" type="line"/>
      <point x="317" y="323" type="line" smooth="yes"/>
      <point x="315" y="317"/>
      <point x="307" y="316"/>
      <point x="304" y="321" type="curve" smooth="yes"/>
      <point x="217" y="436" type="line"/>
    </contour>
    <contour>
      <point x="476" y="446" type="line"/>
      <point x="562" y="331" type="line" smooth="yes"/>
      <point x="566" y="326"/>
      <point x="546" y="323"/>
      <point x="549" y="329" type="curve" smooth="yes"/>
      <point x="598" y="444" type="line"/>
      <point x="612" y="438" type="line"/>
      <point x="563" y="323" type="line" smooth="yes"/>
      <point x="561" y="317"/>
      <point x="553" y="316"/>
      <point x="550" y="321" type="curve" smooth="yes"/>
      <point x="464" y="436" type="line"/>
    </contour>
  </outline>
</glyph>
<glyph name="v" format="2">
  <advance width="428"/>
  <unicode hex="0076"/>
  <outline>
    <contour>
      <point x="489" y="445" type="line"/>
      <point x="563" y="325" type="line" smooth="yes"/>
      <point x="566" y="320"/>
      <point x="546" y="320"/>
      <point x="549" y="325" type="curve" smooth="yes"/>
      <point x="616" y="445" type="line"/>
      <point x="630" y="437" type="line"/>
      <point x="563" y="317" type="line" smooth="yes"/>
      <point x="560" y="312"/>
      <point x="552" y="312"/>
      <point x="549" y="317" type="curve" smooth="yes"/>
      <point x="475" y="437" type="line"/>
    </contour>
    <contour>
      <point x="201" y="446" type="line"/>
      <point x="303" y="326" type="line" smooth="yes"/>
      <point x="307" y="322"/>
      <point x="287" y="318"/>
      <point x="290" y="324" type="curve" smooth="yes"/>
      <point x="339" y="444" type="line"/>
      <point x="353" y="438" type="line"/>
      <point x="304" y="318" type="line" smooth="yes"/>
      <point x="302" y="312"/>
      <point x="295" y="311"/>
      <point x="291" y="316" type="curve" smooth="yes"/>
      <point x="189" y="436" type="line"/>
    </contour>
    <contour>
      <point x="304" y="318" type="line"/>
      <point x="291" y="287"/>
      <point x="274" y="240"/>
      <point x="247" y="156" type="curve" smooth="yes"/>
      <point x="247" y="156"/>
      <point x="247" y="157"/>
      <point x="247" y="157" type="curve" smooth="yes"/>
      <point x="234" y="116"/>
      <point x="216" y="62"/>
      <point x="201" y="21" type="curve" smooth="yes"/>
      <point x="199" y="16"/>
      <point x="187" y="32"/>
      <point x="193" y="32" type="curve" smooth="yes"/>
      <point x="239" y="32" type="line" smooth="yes"/>
      <point x="241" y="32"/>
      <point x="232" y="28"/>
      <point x="234" y="30" type="curve" smooth="yes"/>
      <point x="276" y="69"/>
      <point x="334" y="122"/>
      <point x="378" y="165" type="curve" smooth="yes"/>
      <point x="379" y="165"/>
      <point x="379" y="165"/>
      <point x="379" y="165" type="curve" smooth="yes"/>
      <point x="470" y="249"/>
      <point x="520" y="297"/>
      <point x="550" y="327" type="curve"/>
      <point x="562" y="315" type="line"/>
      <point x="532" y="285"/>
      <point x="482" y="237"/>
      <point x="389" y="153" type="curve" smooth="yes"/>
      <point x="389" y="153"/>
      <point x="390" y="153"/>
      <point x="390" y="153" type="curve" smooth="yes"/>
      <point x="346" y="112"/>
      <point x="288" y="59"/>
      <point x="244" y="18" type="curve" smooth="yes"/>
      <point x="243" y="17"/>
      <point x="241" y="16"/>
      <point x="239" y="16" type="curve" smooth="yes"/>
      <point x="193" y="16" type="line" smooth="yes"/>
      <point x="187" y="16"/>
      <point x="184" y="22"/>
      <point x="185" y="27" type="curve" smooth="yes"/>
      <point x="200" y="68"/>
      <point x="218" y="122"/>
      <point x="231" y="161" type="curve" smooth="yes"/>
      <point x="231" y="161"/>
      <point x="231" y="162"/>
      <point x="231" y="162" type="curve" smooth="yes"/>
      <point x="259" y="246"/>
      <point x="277" y="293"/>
      <point x="290" y="324" type="curve"/>
    </contour>
    <contour>
      <point x="66" y="39" type="line"/>
      <point x="193" y="32" type="line" smooth="yes"/>
      <point x="197" y="32"/>
      <point x="184" y="21"/>
      <point x="185" y="25" type="curve" smooth="yes"/>
      <point x="209" y="163" type="line" smooth="yes"/>
      <point x="211" y="172"/>
      <point x="223" y="172"/>
      <point x="225" y="163" type="curve" smooth="yes"/>
      <point x="247" y="25" type="line" smooth="yes"/>
      <point x="248" y="20"/>
      <point x="243" y="15"/>
      <point x="238" y="16" type="curve" smooth="yes"/>
      <point x="171" y="23" type="line"/>
      <point x="173" y="39" type="line"/>
      <point x="240" y="32" type="line" smooth="yes"/>
      <point x="245" y="31"/>
      <point x="232" y="18"/>
      <point x="231" y="23" type="curve" smooth="yes"/>
      <point x="209" y="161" type="line" smooth="yes"/>
      <point x="208" y="170"/>
      <point x="226" y="170"/>
      <point x="225" y="161" type="curve" smooth="yes"/>
      <point x="201" y="23" type="line" smooth="yes"/>
      <point x="200" y="19"/>
      <point x="197" y="16"/>
      <point x="193" y="16" type="curve" smooth="yes"/>
      <point x="66" y="23" type="line"/>
    </contour>
  </outline>
</glyph>
<glyph name="w" format="2">
  <advance width="563"/>
  <unicode hex="0077"/>
  <anchor x="187.0" y="31.0" name="below"/>
  <anchor x="477.0" y="441.0" name="above"/>
  <outline>
    <contour>
      <point x="705" y="320" type="line"/>
      <point x="372" y="-10" type="line" smooth="yes"/>
      <point x="365" y="-16"/>
      <point x="355" y="-9"/>
      <point x="359" y="-1" type="curve" smooth="yes"/>
      <point x="487" y="324" type="line" smooth="yes"/>
      <point x="490" y="332"/>
      <point x="506" y="321"/>
      <point x="500" y="315" type="curve" smooth="yes"/>
      <point x="169" y="-10" type="line" smooth="yes"/>
      <point x="162" y="-16"/>
      <point x="152" y="-9"/>
      <point x="156" y="-1" type="curve" smooth="yes"/>
      <point x="287" y="329" type="line"/>
      <point x="301" y="323" type="line"/>
      <point x="170" y="-7" type="line" smooth="yes"/>
      <point x="167" y="-15"/>
      <point x="151" y="-4"/>
      <point x="157" y="2" type="curve" smooth="yes"/>
      <point x="488" y="327" type="line" smooth="yes"/>
      <point x="495" y="333"/>
      <point x="505" y="326"/>
      <point x="501" y="318" type="curve" smooth="yes"/>
      <point x="373" y="-7" type="line" smooth="yes"/>
      <point x="370" y="-15"/>
      <point x="354" y="-4"/>
      <point x="360" y="2" type="curve" smooth="yes"/>
      <point x="693" y="332" type="line"/>
    </contour>
    <contour>
      <point x="205" y="446" type="line"/>
      <point x="300" y="331" type="line" smooth="yes"/>
      <point x="304" y="326"/>
      <point x="284" y="323"/>
      <point x="287" y="329" type="curve" smooth="yes"/>
      <point x="333" y="444" type="line"/>
      <point x="347" y="438" type="line"/>
      <point x="301" y="323" type="line" smooth="yes"/>
      <point x="299" y="317"/>
      <point x="292" y="316"/>
      <point x="288" y="321" type="curve" smooth="yes"/>
      <point x="193" y="436" type="line"/>
    </contour>
    <contour>
      <point x="626" y="446" type="line"/>
      <point x="706" y="331" type="line" smooth="yes"/>
      <point x="709" y="326"/>
      <point x="689" y="324"/>
      <point x="692" y="329" type="curve" smooth="yes"/>
      <point x="747" y="444" type="line"/>
      <point x="761" y="438" type="line"/>
      <point x="706" y="323" type="line" smooth="yes"/>
      <point x="704" y="317"/>
      <point x="696" y="316"/>
      <point x="692" y="321" type="curve" smooth="yes"/>
      <point x="612" y="436" type="line"/>
    </contour>
    <contour>
      <point x="445" y="444" type="line"/>
      <point x="501" y="324" type="line" smooth="yes"/>
      <point x="504" y="317"/>
      <point x="484" y="315"/>
      <point x="486" y="323" type="curve" smooth="yes"/>
      <point x="514" y="443" type="line"/>
      <point x="530" y="439" type="line"/>
      <point x="502" y="319" type="line" smooth="yes"/>
      <point x="500" y="312"/>
      <point x="490" y="311"/>
      <point x="487" y="318" type="curve" smooth="yes"/>
      <point x="431" y="438" type="line"/>
    </contour>
    <contour>
      <point x="342" y="261" type="line"/>
      <point x="491" y="328" type="line"/>
      <point x="497" y="314" type="line"/>
      <point x="348" y="247" type="line"/>
    </contour>
    <contour>
      <point x="47" y="39" type="line"/>
      <point x="165" y="4" type="line" smooth="yes"/>
      <point x="174" y="1"/>
      <point x="164" y="-16"/>
      <point x="158" y="-10" type="curve" smooth="yes"/>
      <point x="117" y="25" type="line"/>
      <point x="127" y="37" type="line"/>
      <point x="168" y="2" type="line" smooth="yes"/>
      <point x="175" y="-4"/>
      <point x="169" y="-14"/>
      <point x="161" y="-12" type="curve" smooth="yes"/>
      <point x="43" y="23" type="line"/>
    </contour>
    <contour>
      <point x="253" y="39" type="line"/>
      <point x="368" y="4" type="line" smooth="yes"/>
      <point x="376" y="1"/>
      <point x="367" y="-16"/>
      <point x="361" y="-10" type="curve" smooth="yes"/>
      <point x="323" y="25" type="line"/>
      <point x="333" y="37" type="line"/>
      <point x="371" y="2" type="line" smooth="yes"/>
      <point x="378" y="-4"/>
      <point x="372" y="-14"/>
      <point x="364" y="-12" type="curve" smooth="yes"/>
      <point x="249" y="23" type="line"/>
    </contour>
    <contour>
      <point x="232" y="217" type="line"/>
      <point x="171" y="-6" type="line"/>
      <point x="155" y="-2" type="line"/>
      <point x="216" y="221" type="line"/>
    </contour>
    <contour>
      <point x="434" y="220" type="line"/>
      <point x="374" y="-6" type="line"/>
      <point x="358" y="-2" type="line"/>
      <point x="418" y="224" type="line"/>
    </contour>
  </outline>
</glyph>
<glyph name="y" format="2">
  <advance width="399"/>
  <unicode hex="0079"/>
  <anchor x="80.0" y="73.0" name="below"/>
  <anchor x="365.0" y="483.0" name="above"/>
  <outline>
    <contour>
      <point x="309" y="325" type="line"/>
      <point x="281" y="120" type="line" smooth="yes"/>
      <point x="280" y="113"/>
      <point x="262" y="123"/>
      <point x="268" y="127" type="curve" smooth="yes"/>
      <point x="527" y="332" type="line"/>
      <point x="537" y="320" type="line"/>
      <point x="278" y="115" type="line" smooth="yes"/>
      <point x="272" y="110"/>
      <point x="264" y="115"/>
      <point x="265" y="122" type="curve" smooth="yes"/>
      <point x="293" y="327" type="line"/>
    </contour>
    <contour>
      <point x="292" y="276" type="line"/>
      <point x="281" y="120" type="line" smooth="yes"/>
      <point x="281" y="119"/>
      <point x="280" y="118"/>
      <point x="280" y="116" type="curve" smooth="yes"/>
      <point x="197" y="-1" type="line"/>
      <point x="183" y="9" type="line"/>
      <point x="266" y="126" type="line" smooth="yes"/>
      <point x="267" y="127"/>
      <point x="265" y="120"/>
      <point x="265" y="122" type="curve" smooth="yes"/>
      <point x="276" y="278" type="line"/>
    </contour>
    <contour>
      <point x="183" y="35" type="line"/>
      <point x="197" y="8" type="line" smooth="yes"/>
      <point x="200" y="2"/>
      <point x="195" y="-5"/>
      <point x="189" y="-4" type="curve" smooth="yes"/>
      <point x="41" y="23" type="line"/>
      <point x="43" y="39" type="line"/>
      <point x="191" y="12" type="line" smooth="yes"/>
      <point x="198" y="11"/>
      <point x="186" y="-6"/>
      <point x="183" y="0" type="curve" smooth="yes"/>
      <point x="169" y="27" type="line"/>
    </contour>
    <contour>
      <point x="198" y="447" type="line"/>
      <point x="307" y="332" type="line" smooth="yes"/>
      <point x="311" y="327"/>
      <point x="292" y="322"/>
      <point x="293" y="328" type="curve" smooth="yes"/>
      <point x="326" y="443" type="line"/>
      <point x="342" y="439" type="line"/>
      <point x="309" y="324" type="line" smooth="yes"/>
      <point x="307" y="318"/>
      <point x="299" y="316"/>
      <point x="295" y="320" type="curve" smooth="yes"/>
      <point x="186" y="435" type="line"/>
    </contour>
    <contour>
      <point x="473" y="445" type="line"/>
      <point x="539" y="330" type="line" smooth="yes"/>
      <point x="542" y="325"/>
      <point x="522" y="325"/>
      <point x="525" y="330" type="curve" smooth="yes"/>
      <point x="590" y="445" type="line"/>
      <point x="604" y="437" type="line"/>
      <point x="539" y="322" type="line" smooth="yes"/>
      <point x="536" y="317"/>
      <point x="528" y="317"/>
      <point x="525" y="322" type="curve" smooth="yes"/>
      <point x="459" y="437" type="line"/>
    </contour>
    <contour>
      <point x="179" y="201" type="line"/>
      <point x="278" y="127" type="line" smooth="yes"/>
      <point x="283" y="124"/>
      <point x="265" y="115"/>
      <point x="265" y="121" type="curve" smooth="yes"/>
      <point x="268" y="195" type="line"/>
      <point x="284" y="195" type="line"/>
      <point x="281" y="121" type="line" smooth="yes"/>
      <point x="281" y="114"/>
      <point x="273" y="111"/>
      <point x="268" y="115" type="curve" smooth="yes"/>
      <point x="169" y="189" type="line"/>
    </contour>
  </outline>
</glyph>
<glyph name="z" format="2">
  <advance width="364"/>
  <unicode hex="007A"/>
  <anchor x="57.0" y="73.0" name="below"/>
  <anchor x="347.0" y="483.0" name="above"/>
  <outline>
    <contour>
      <point x="289" y="332" type="line"/>
      <point x="320" y="334"/>
      <point x="361" y="336"/>
      <point x="485" y="336" type="curve" smooth="yes"/>
      <point x="493" y="336"/>
      <point x="496" y="326"/>
      <point x="490" y="322" type="curve" smooth="yes"/>
      <point x="83" y="-3" type="line" smooth="yes"/>
      <point x="77" y="-8"/>
      <point x="70" y="11"/>
      <point x="78" y="11" type="curve" smooth="yes"/>
      <point x="195" y="11"/>
      <point x="235" y="12"/>
      <point x="265" y="15" type="curve"/>
      <point x="267" y="-1" type="line"/>
      <point x="237" y="-4"/>
      <point x="195" y="-5"/>
      <point x="78" y="-5" type="curve" smooth="yes"/>
      <point x="70" y="-5"/>
      <point x="67" y="5"/>
      <point x="73" y="9" type="curve" smooth="yes"/>
      <point x="480" y="334" type="line" smooth="yes"/>
      <point x="486" y="339"/>
      <point x="493" y="320"/>
      <point x="485" y="320" type="curve" smooth="yes"/>
      <point x="361" y="320"/>
      <point x="320" y="318"/>
      <point x="291" y="316" type="curve"/>
    </contour>
    <contour>
      <point x="155" y="343" type="line"/>
      <point x="291" y="332" type="line" smooth="yes"/>
      <point x="297" y="331"/>
      <point x="286" y="315"/>
      <point x="283" y="320" type="curve" smooth="yes"/>
      <point x="222" y="437" type="line"/>
      <point x="236" y="445" type="line"/>
      <point x="297" y="328" type="line" smooth="yes"/>
      <point x="300" y="322"/>
      <point x="296" y="316"/>
      <point x="289" y="316" type="curve" smooth="yes"/>
      <point x="153" y="327" type="line"/>
    </contour>
    <contour>
      <point x="328" y="141" type="line"/>
      <point x="273" y="4" type="line" smooth="yes"/>
      <point x="272" y="-1"/>
      <point x="266" y="-2"/>
      <point x="262" y="0" type="curve" smooth="yes"/>
      <point x="223" y="24" type="line"/>
      <point x="231" y="38" type="line"/>
      <point x="270" y="14" type="line" smooth="yes"/>
      <point x="274" y="11"/>
      <point x="257" y="5"/>
      <point x="259" y="10" type="curve" smooth="yes"/>
      <point x="314" y="147" type="line"/>
    </contour>
    <contour>
      <point x="-79" y="39" type="line"/>
      <point x="79" y="11" type="line" smooth="yes"/>
      <point x="83" y="10"/>
      <point x="69" y="4"/>
      <point x="71" y="7" type="curve" smooth="yes"/>
      <point x="129" y="120" type="line"/>
      <point x="143" y="112" type="line"/>
      <point x="85" y="-1" type="line" smooth="yes"/>
      <point x="84" y="-4"/>
      <point x="80" y="-5"/>
      <point x="77" y="-5" type="curve" smooth="yes"/>
      <point x="-81" y="23" type="line"/>
    </contour>
    <contour>
      <point x="329" y="364" type="line"/>
      <point x="486" y="336" type="line" smooth="yes"/>
      <point x="490" y="335"/>
      <point x="476" y="329"/>
      <point x="478" y="332" type="curve" smooth="yes"/>
      <point x="537" y="445" type="line"/>
      <point x="551" y="437" type="line"/>
      <point x="492" y="324" type="line" smooth="yes"/>
      <point x="490" y="321"/>
      <point x="487" y="320"/>
      <point x="484" y="320" type="curve" smooth="yes"/>
      <point x="327" y="348" type="line"/>
    </contour>
  </outline>
</glyph>
<glyph name="braceleft" format="2">
  <advance width="325"/>
  <unicode hex="007B"/>
  <outline>
    <contour>
      <point x="592" y="487" type="line"/>
      <point x="523" y="505"/>
      <point x="455" y="478"/>
      <point x="415" y="420" type="curve" smooth="yes"/>
      <point x="415" y="420"/>
      <point x="415" y="420"/>
      <point x="414" y="420" type="curve" smooth="yes"/>
      <point x="379" y="371"/>
      <point x="370" y="305"/>
      <point x="341" y="263" type="curve" smooth="yes"/>
      <point x="341" y="263"/>
      <point x="341" y="263"/>
      <point x="341" y="263" type="curve" smooth="yes"/>
      <point x="308" y="217"/>
      <point x="267" y="193"/>
      <point x="204" y="193" type="curve" smooth="yes"/>
      <point x="193" y="193"/>
      <point x="193" y="209"/>
      <point x="204" y="209" type="curve" smooth="yes"/>
      <point x="271" y="209"/>
      <point x="281" y="180"/>
      <point x="246" y="129" type="curve" smooth="yes"/>
      <point x="246" y="129"/>
      <point x="246" y="129"/>
      <point x="246" y="129" type="curve" smooth="yes"/>
      <point x="217" y="89"/>
      <point x="133" y="23"/>
      <point x="99" y="-27" type="curve" smooth="yes"/>
      <point x="99" y="-27"/>
      <point x="99" y="-27"/>
      <point x="99" y="-27" type="curve" smooth="yes"/>
      <point x="60" y="-81"/>
      <point x="88" y="-101"/>
      <point x="176" y="-84" type="curve"/>
      <point x="180" y="-100" type="line"/>
      <point x="73" y="-121"/>
      <point x="39" y="-83"/>
      <point x="85" y="-17" type="curve" smooth="yes"/>
      <point x="86" y="-17"/>
      <point x="85" y="-17"/>
      <point x="85" y="-17" type="curve" smooth="yes"/>
      <point x="121" y="33"/>
      <point x="205" y="99"/>
      <point x="232" y="139" type="curve" smooth="yes"/>
      <point x="232" y="139"/>
      <point x="232" y="139"/>
      <point x="232" y="139" type="curve" smooth="yes"/>
      <point x="261" y="178"/>
      <point x="257" y="193"/>
      <point x="204" y="193" type="curve" smooth="yes"/>
      <point x="193" y="193"/>
      <point x="193" y="209"/>
      <point x="204" y="209" type="curve" smooth="yes"/>
      <point x="261" y="209"/>
      <point x="298" y="231"/>
      <point x="327" y="273" type="curve" smooth="yes"/>
      <point x="327" y="273"/>
      <point x="327" y="273"/>
      <point x="327" y="273" type="curve" smooth="yes"/>
      <point x="356" y="313"/>
      <point x="365" y="379"/>
      <point x="402" y="430" type="curve" smooth="yes"/>
      <point x="402" y="430"/>
      <point x="401" y="430"/>
      <point x="401" y="430" type="curve" smooth="yes"/>
      <point x="445" y="492"/>
      <point x="521" y="523"/>
      <point x="596" y="503" type="curve"/>
    </contour>
    <contour>
      <point x="197" y="204" type="line"/>
      <point x="226" y="275" type="line"/>
      <point x="240" y="269" type="line"/>
      <point x="211" y="198" type="line"/>
    </contour>
    <contour>
      <point x="146" y="317" type="line"/>
      <point x="211" y="205" type="line" smooth="yes"/>
      <point x="214" y="199"/>
      <point x="209" y="192"/>
      <point x="202" y="193" type="curve" smooth="yes"/>
      <point x="80" y="224" type="line"/>
      <point x="84" y="240" type="line"/>
      <point x="206" y="209" type="line" smooth="yes"/>
      <point x="213" y="207"/>
      <point x="201" y="191"/>
      <point x="197" y="197" type="curve" smooth="yes"/>
      <point x="132" y="309" type="line"/>
    </contour>
    <contour>
      <point x="623" y="603" type="line"/>
      <point x="602" y="493" type="line" smooth="yes"/>
      <point x="601" y="489"/>
      <point x="597" y="487"/>
      <point x="593" y="487" type="curve" smooth="yes"/>
      <point x="541" y="494" type="line"/>
      <point x="543" y="510" type="line"/>
      <point x="595" y="503" type="line" smooth="yes"/>
      <point x="599" y="502"/>
      <point x="585" y="492"/>
      <point x="586" y="497" type="curve" smooth="yes"/>
      <point x="607" y="607" type="line"/>
    </contour>
    <contour>
      <point x="226" y="41" type="line"/>
      <point x="186" y="-94" type="line" smooth="yes"/>
      <point x="184" y="-100"/>
      <point x="177" y="-102"/>
      <point x="172" y="-98" type="curve" smooth="yes"/>
      <point x="139" y="-66" type="line"/>
      <point x="151" y="-54" type="line"/>
      <point x="184" y="-86" type="line" smooth="yes"/>
      <point x="188" y="-90"/>
      <point x="169" y="-95"/>
      <point x="170" y="-90" type="curve" smooth="yes"/>
      <point x="210" y="45" type="line"/>
    </contour>
  </outline>
</glyph>
<glyph name="bar" format="2">
  <advance width="273"/>
  <unicode hex="007C"/>
  <outline>
    <contour>
      <point x="442" y="442" type="line"/>
      <point x="92" y="-54" type="line"/>
      <point x="78" y="-44" type="line"/>
      <point x="428" y="452" type="line"/>
    </contour>
    <contour>
      <point x="58" y="-16" type="line"/>
      <point x="90" y="-43" type="line" smooth="yes"/>
      <point x="97" y="-48"/>
      <point x="92" y="-59"/>
      <point x="83" y="-57" type="curve" smooth="yes"/>
      <point x="-47" y="-30" type="line"/>
      <point x="-43" y="-14" type="line"/>
      <point x="87" y="-41" type="line" smooth="yes"/>
      <point x="95" y="-43"/>
      <point x="86" y="-60"/>
      <point x="80" y="-55" type="curve" smooth="yes"/>
      <point x="48" y="-28" type="line"/>
    </contour>
    <contour>
      <point x="374" y="565" type="line"/>
      <point x="442" y="451" type="line" smooth="yes"/>
      <point x="445" y="445"/>
      <point x="425" y="442"/>
      <point x="427" y="449" type="curve" smooth="yes"/>
      <point x="458" y="563" type="line"/>
      <point x="474" y="559" type="line"/>
      <point x="443" y="445" type="line" smooth="yes"/>
      <point x="441" y="438"/>
      <point x="432" y="437"/>
      <point x="428" y="443" type="curve" smooth="yes"/>
      <point x="360" y="557" type="line"/>
    </contour>
  </outline>
</glyph>
<glyph name="asciitilde" format="2">
  <advance width="451"/>
  <unicode hex="007E"/>
  <outline>
    <contour>
      <point x="142" y="130" type="line"/>
      <point x="193" y="194"/>
      <point x="247" y="225"/>
      <point x="291" y="225" type="curve"/>
      <point x="291" y="225"/>
      <point x="291" y="225"/>
      <point x="291" y="225" type="curve"/>
      <point x="329" y="225"/>
      <point x="334" y="199"/>
      <point x="339" y="173" type="curve"/>
      <point x="339" y="173"/>
      <point x="339" y="173"/>
      <point x="339" y="173" type="curve"/>
      <point x="342" y="155"/>
      <point x="344" y="136"/>
      <point x="371" y="136" type="curve"/>
      <point x="371" y="136"/>
      <point x="371" y="136"/>
      <point x="371" y="136" type="curve"/>
      <point x="410" y="136"/>
      <point x="460" y="168"/>
      <point x="508" y="227" type="curve"/>
      <point x="520" y="217" type="line"/>
      <point x="468" y="152"/>
      <point x="414" y="120"/>
      <point x="371" y="120" type="curve"/>
      <point x="371" y="120"/>
      <point x="371" y="120"/>
      <point x="371" y="120" type="curve"/>
      <point x="334" y="120"/>
      <point x="328" y="145"/>
      <point x="323" y="171" type="curve"/>
      <point x="323" y="171"/>
      <point x="323" y="171"/>
      <point x="323" y="171" type="curve"/>
      <point x="320" y="189"/>
      <point x="319" y="209"/>
      <point x="291" y="209" type="curve"/>
      <point x="291" y="209"/>
      <point x="291" y="209"/>
      <point x="291" y="209" type="curve"/>
      <point x="251" y="209"/>
      <point x="201" y="178"/>
      <point x="154" y="120" type="curve"/>
    </contour>
    <contour>
      <point x="107" y="159" type="line"/>
      <point x="152" y="132" type="line" smooth="yes"/>
      <point x="160" y="127"/>
      <point x="155" y="115"/>
      <point x="146" y="117" type="curve" smooth="yes"/>
      <point x="27" y="144" type="line"/>
      <point x="31" y="160" type="line"/>
      <point x="150" y="133" type="line" smooth="yes"/>
      <point x="159" y="131"/>
      <point x="152" y="113"/>
      <point x="144" y="118" type="curve" smooth="yes"/>
      <point x="99" y="145" type="line"/>
    </contour>
    <contour>
      <point x="466" y="339" type="line"/>
      <point x="521" y="225" type="line" smooth="yes"/>
      <point x="525" y="218"/>
      <point x="505" y="216"/>
      <point x="506" y="223" type="curve" smooth="yes"/>
      <point x="526" y="337" type="line"/>
      <point x="542" y="335" type="line"/>
      <point x="522" y="221" type="line" smooth="yes"/>
      <point x="521" y="213"/>
      <point x="510" y="212"/>
      <point x="507" y="219" type="curve" smooth="yes"/>
      <point x="452" y="333" type="line"/>
    </contour>
  </outline>
</glyph>
<glyph name="exclamdown" format="2">
  <advance width="205"/>
  <unicode hex="00A1"/>
  <outline>
    <contour>
      <point x="327" y="405" type="line"/>
      <point x="360" y="391" type="line" smooth="yes"/>
      <point x="367" y="388"/>
      <point x="353" y="374"/>
      <point x="350" y="380" type="curve" smooth="yes"/>
      <point x="284" y="508" type="line"/>
      <point x="298" y="516" type="line"/>
      <point x="364" y="388" type="line" smooth="yes"/>
      <point x="368" y="381"/>
      <point x="361" y="374"/>
      <point x="354" y="377" type="curve" smooth="yes"/>
      <point x="321" y="391" type="line"/>
    </contour>
    <contour>
      <point x="412" y="509" type="line"/>
      <point x="365" y="381" type="line" smooth="yes"/>
      <point x="363" y="378"/>
      <point x="360" y="376"/>
      <point x="356" y="376" type="curve" smooth="yes"/>
      <point x="209" y="390" type="line"/>
      <point x="211" y="406" type="line"/>
      <point x="358" y="392" type="line" smooth="yes"/>
      <point x="361" y="392"/>
      <point x="348" y="383"/>
      <point x="349" y="387" type="curve" smooth="yes"/>
      <point x="396" y="515" type="line"/>
    </contour>
    <contour>
      <point x="253" y="222" type="line"/>
      <point x="96" y="-1" type="line"/>
      <point x="82" y="9" type="line"/>
      <point x="239" y="232" type="line"/>
    </contour>
    <contour>
      <point x="188" y="334" type="line"/>
      <point x="253" y="231" type="line" smooth="yes"/>
      <point x="257" y="225"/>
      <point x="237" y="220"/>
      <point x="238" y="228" type="curve" smooth="yes"/>
      <point x="249" y="331" type="line"/>
      <point x="265" y="329" type="line"/>
      <point x="254" y="226" type="line" smooth="yes"/>
      <point x="253" y="219"/>
      <point x="243" y="216"/>
      <point x="239" y="223" type="curve" smooth="yes"/>
      <point x="174" y="326" type="line"/>
    </contour>
    <contour>
      <point x="81" y="35" type="line"/>
      <point x="96" y="8" type="line" smooth="yes"/>
      <point x="99" y="2"/>
      <point x="94" y="-5"/>
      <point x="88" y="-4" type="curve" smooth="yes"/>
      <point x="-60" y="23" type="line"/>
      <point x="-58" y="39" type="line"/>
      <point x="90" y="12" type="line" smooth="yes"/>
      <point x="97" y="11"/>
      <point x="85" y="-6"/>
      <point x="82" y="0" type="curve" smooth="yes"/>
      <point x="67" y="27" type="line"/>
    </contour>
  </outline>
</glyph>
